<?xml version="1.0" encoding="UTF-8" standalone="no"?>
<!DOCTYPE svg PUBLIC "-//W3C//DTD SVG 1.1//EN"
 "http://www.w3.org/Graphics/SVG/1.1/DTD/svg11.dtd">
<!-- Generated by graphviz version 2.50.0 (0)
 -->
<!-- Title: dependency&#45;cruiser output Pages: 1 -->
<svg width="528pt" height="486pt"
 viewBox="0.00 0.00 528.00 485.76" xmlns="http://www.w3.org/2000/svg" xmlns:xlink="http://www.w3.org/1999/xlink">
<g id="graph0" class="graph" transform="scale(1 1) rotate(0) translate(4 481.76)">
<title>dependency&#45;cruiser output</title>
<polygon fill="white" stroke="transparent" points="-4,4 -4,-481.76 524,-481.76 524,4 -4,4"/>
<g id="clust1" class="cluster">
<title>cluster_src</title>
<path fill="#ffffff" stroke="black" stroke-width="2" d="M20,-134C20,-134 446,-134 446,-134 452,-134 458,-140 458,-146 458,-146 458,-348 458,-348 458,-354 452,-360 446,-360 446,-360 20,-360 20,-360 14,-360 8,-354 8,-348 8,-348 8,-146 8,-146 8,-140 14,-134 20,-134"/>
<text text-anchor="middle" x="233" y="-348.8" font-family="Helvetica,sans-Serif" font-weight="bold" font-size="9.00">src</text>
</g>
<g id="clust2" class="cluster">
<title>cluster_src/commands</title>
<path fill="#ffffff" stroke="black" stroke-width="2" d="M90,-165C90,-165 150,-165 150,-165 156,-165 162,-171 162,-177 162,-177 162,-235 162,-235 162,-241 156,-247 150,-247 150,-247 90,-247 90,-247 84,-247 78,-241 78,-235 78,-235 78,-177 78,-177 78,-171 84,-165 90,-165"/>
<text text-anchor="middle" x="120" y="-235.8" font-family="Helvetica,sans-Serif" font-weight="bold" font-size="9.00">commands</text>
</g>
<g id="clust3" class="cluster">
<title>cluster_src/utils</title>
<path fill="#ffffff" stroke="black" stroke-width="2" d="M390,-212C390,-212 438,-212 438,-212 444,-212 450,-218 450,-224 450,-224 450,-282 450,-282 450,-288 444,-294 438,-294 438,-294 390,-294 390,-294 384,-294 378,-288 378,-282 378,-282 378,-224 378,-224 378,-218 384,-212 390,-212"/>
<text text-anchor="middle" x="414" y="-282.8" font-family="Helvetica,sans-Serif" font-weight="bold" font-size="9.00">utils</text>
</g>
<!-- child_process -->
<g id="node1" class="node">
<title>child_process</title>
<g id="a_node1"><a xlink:title="child_process">
<path fill="#ffffcc" stroke="grey" d="M244,-18C244,-18 179,-18 179,-18 176,-18 173,-15 173,-12 173,-12 173,-6 173,-6 173,-3 176,0 179,0 179,0 244,0 244,0 247,0 250,-3 250,-6 250,-6 250,-12 250,-12 250,-15 247,-18 244,-18"/>
<text text-anchor="middle" x="211.5" y="-6.8" font-family="Helvetica,sans-Serif" font-size="9.00" fill="grey">child_process</text>
</a>
</g>
</g>
<!-- crypto -->
<g id="node2" class="node">
<title>crypto</title>
<g id="a_node2"><a xlink:title="crypto">
<path fill="#ffffcc" stroke="grey" d="M435,-126C435,-126 393,-126 393,-126 390,-126 387,-123 387,-120 387,-120 387,-114 387,-114 387,-111 390,-108 393,-108 393,-108 435,-108 435,-108 438,-108 441,-111 441,-114 441,-114 441,-120 441,-120 441,-123 438,-126 435,-126"/>
<text text-anchor="middle" x="414" y="-114.8" font-family="Helvetica,sans-Serif" font-size="9.00" fill="grey">crypto</text>
</a>
</g>
</g>
<!-- fs -->
<g id="node3" class="node">
<title>fs</title>
<g id="a_node3"><a xlink:title="fs">
<path fill="#ffffcc" stroke="grey" d="M514,-154C514,-154 472,-154 472,-154 469,-154 466,-151 466,-148 466,-148 466,-142 466,-142 466,-139 469,-136 472,-136 472,-136 514,-136 514,-136 517,-136 520,-139 520,-142 520,-142 520,-148 520,-148 520,-151 517,-154 514,-154"/>
<text text-anchor="middle" x="493" y="-142.8" font-family="Helvetica,sans-Serif" font-size="9.00" fill="grey">fs</text>
</a>
</g>
</g>
<!-- path -->
<g id="node4" class="node">
<title>path</title>
<g id="a_node4"><a xlink:title="path">
<path fill="#ffffcc" stroke="grey" d="M514,-370C514,-370 472,-370 472,-370 469,-370 466,-367 466,-364 466,-364 466,-358 466,-358 466,-355 469,-352 472,-352 472,-352 514,-352 514,-352 517,-352 520,-355 520,-358 520,-358 520,-364 520,-364 520,-367 517,-370 514,-370"/>
<text text-anchor="middle" x="493" y="-358.8" font-family="Helvetica,sans-Serif" font-size="9.00" fill="grey">path</text>
</a>
</g>
</g>
<!-- src/cache.ts -->
<g id="node5" class="node">
<title>src/cache.ts</title>
<g id="a_node5"><a xlink:href="https://github.com/dragonman225/notablog/tree/master/src/cache.ts" xlink:title="cache.ts">
<path fill="#ddfeff" stroke="black" d="M339.5,-174C339.5,-174 296.5,-174 296.5,-174 293.5,-174 290.5,-171 290.5,-168 290.5,-168 290.5,-162 290.5,-162 290.5,-159 293.5,-156 296.5,-156 296.5,-156 339.5,-156 339.5,-156 342.5,-156 345.5,-159 345.5,-162 345.5,-162 345.5,-168 345.5,-168 345.5,-171 342.5,-174 339.5,-174"/>
<text text-anchor="start" x="298.5" y="-162.8" font-family="Helvetica,sans-Serif" font-size="9.00">cache.ts</text>
</a>
</g>
</g>
<!-- src/cache.ts&#45;&gt;crypto -->
<g id="edge2" class="edge">
<title>src/cache.ts&#45;&gt;crypto</title>
<path fill="none" stroke="#000000" stroke-dasharray="5,2" stroke-opacity="0.200000" d="M333.72,-155.73C345.46,-148.53 362.47,-138.53 378,-131 379.77,-130.14 381.6,-129.29 383.46,-128.46"/>
<polygon fill="#000000" fill-opacity="0.200000" stroke="#000000" stroke-opacity="0.200000" points="384.4,-130.35 389.08,-126.04 382.74,-126.49 384.4,-130.35"/>
</g>
<!-- src/cache.ts&#45;&gt;fs -->
<g id="edge3" class="edge">
<title>src/cache.ts&#45;&gt;fs</title>
<path fill="none" stroke="#000000" stroke-dasharray="5,2" stroke-opacity="0.200000" d="M345.65,-161.92C376.31,-158.37 426.63,-152.56 459.55,-148.75"/>
<polygon fill="#000000" fill-opacity="0.200000" stroke="#000000" stroke-opacity="0.200000" points="460.17,-150.79 465.88,-148.02 459.68,-146.62 460.17,-150.79"/>
</g>
<!-- src/cache.ts&#45;&gt;path -->
<g id="edge4" class="edge">
<title>src/cache.ts&#45;&gt;path</title>
<path fill="none" stroke="#000000" stroke-dasharray="5,2" stroke-opacity="0.200000" d="M335.82,-174.31C347.55,-181.78 362.41,-193.41 370,-208 379.17,-225.61 365.36,-281.69 378,-297 401.56,-325.53 427.04,-299.75 458,-320 468.38,-326.79 477.22,-337.72 483.28,-346.59"/>
<polygon fill="#000000" fill-opacity="0.200000" stroke="#000000" stroke-opacity="0.200000" points="481.64,-347.92 486.69,-351.79 485.16,-345.62 481.64,-347.92"/>
</g>
<!-- src/utils/misc.ts -->
<g id="node6" class="node">
<title>src/utils/misc.ts</title>
<g id="a_node6"><a xlink:href="https://github.com/dragonman225/notablog/tree/master/src/utils/misc.ts" xlink:title="misc.ts">
<path fill="#ddfeff" stroke="black" d="M435,-238C435,-238 393,-238 393,-238 390,-238 387,-235 387,-232 387,-232 387,-226 387,-226 387,-223 390,-220 393,-220 393,-220 435,-220 435,-220 438,-220 441,-223 441,-226 441,-226 441,-232 441,-232 441,-235 438,-238 435,-238"/>
<text text-anchor="start" x="397.5" y="-226.8" font-family="Helvetica,sans-Serif" font-size="9.00">misc.ts</text>
</a>
</g>
</g>
<!-- src/cache.ts&#45;&gt;src/utils/misc.ts -->
<g id="edge1" class="edge">
<title>src/cache.ts&#45;&gt;src/utils/misc.ts</title>
<path fill="none" stroke="#000000" stroke-width="2" stroke-opacity="0.200000" d="M345.72,-169.14C354.55,-171.76 363.71,-176.03 370,-183 380.12,-194.2 367.98,-204.72 378,-216 379.05,-217.19 380.23,-218.27 381.49,-219.25"/>
<polygon fill="#000000" fill-opacity="0.200000" stroke="#000000" stroke-width="2" stroke-opacity="0.200000" points="380.52,-221.12 386.71,-222.56 382.77,-217.57 380.52,-221.12"/>
</g>
<!-- src/utils/misc.ts&#45;&gt;fs -->
<g id="edge37" class="edge">
<title>src/utils/misc.ts&#45;&gt;fs</title>
<path fill="none" stroke="#000000" stroke-dasharray="5,2" stroke-opacity="0.200000" d="M441.31,-224.77C447.29,-222.85 453.26,-220.06 458,-216 475.03,-201.39 484.21,-176.31 488.59,-160.21"/>
<polygon fill="#000000" fill-opacity="0.200000" stroke="#000000" stroke-opacity="0.200000" points="490.65,-160.64 490.09,-154.31 486.58,-159.61 490.65,-160.64"/>
</g>
<!-- src/utils/misc.ts&#45;&gt;path -->
<g id="edge38" class="edge">
<title>src/utils/misc.ts&#45;&gt;path</title>
<path fill="none" stroke="#000000" stroke-dasharray="5,2" stroke-opacity="0.200000" d="M441.41,-233.85C447.52,-236.07 453.54,-239.3 458,-244 484.99,-272.46 490.72,-321.08 491.83,-345.72"/>
<polygon fill="#000000" fill-opacity="0.200000" stroke="#000000" stroke-opacity="0.200000" points="489.73,-345.79 492.02,-351.72 493.93,-345.65 489.73,-345.79"/>
</g>
<!-- src/commands/generate.ts -->
<g id="node7" class="node">
<title>src/commands/generate.ts</title>
<g id="a_node7"><a xlink:href="https://github.com/dragonman225/notablog/tree/master/src/commands/generate.ts" xlink:title="generate.ts">
<path fill="#ddfeff" stroke="black" d="M148,-221C148,-221 92,-221 92,-221 89,-221 86,-218 86,-215 86,-215 86,-209 86,-209 86,-206 89,-203 92,-203 92,-203 148,-203 148,-203 151,-203 154,-206 154,-209 154,-209 154,-215 154,-215 154,-218 151,-221 148,-221"/>
<text text-anchor="start" x="94" y="-209.8" font-family="Helvetica,sans-Serif" font-size="9.00">generate.ts</text>
</a>
</g>
</g>
<!-- src/commands/generate.ts&#45;&gt;fs -->
<g id="edge13" class="edge">
<title>src/commands/generate.ts&#45;&gt;fs</title>
<path fill="none" stroke="#000000" stroke-dasharray="5,2" stroke-opacity="0.200000" d="M154.13,-203.79C157.12,-201.97 159.83,-199.73 162,-197 180.36,-173.85 155.13,-156.53 170,-131 196.7,-85.14 215.6,-76.61 266,-60 347.05,-33.29 387.51,-12.9 458,-61 480.77,-76.54 488.3,-110.15 490.78,-129.82"/>
<polygon fill="#000000" fill-opacity="0.200000" stroke="#000000" stroke-opacity="0.200000" points="488.71,-130.17 491.45,-135.91 492.88,-129.72 488.71,-130.17"/>
</g>
<!-- src/commands/generate.ts&#45;&gt;path -->
<g id="edge14" class="edge">
<title>src/commands/generate.ts&#45;&gt;path</title>
<path fill="none" stroke="#000000" stroke-dasharray="5,2" stroke-opacity="0.200000" d="M121.65,-221.05C124.53,-258.06 137.39,-397.09 170,-423 270.23,-502.62 347.86,-488.22 458,-423 475.01,-412.93 484.07,-391 488.45,-376.12"/>
<polygon fill="#000000" fill-opacity="0.200000" stroke="#000000" stroke-opacity="0.200000" points="490.51,-376.56 490.06,-370.22 486.46,-375.46 490.51,-376.56"/>
</g>
<!-- src/commands/generate.ts&#45;&gt;src/cache.ts -->
<g id="edge5" class="edge">
<title>src/commands/generate.ts&#45;&gt;src/cache.ts</title>
<path fill="none" stroke="#000000" stroke-width="2" stroke-opacity="0.200000" d="M148.86,-202.97C155.73,-200.88 163.1,-198.76 170,-197 206.49,-187.7 216.22,-188.07 253,-180 263.15,-177.77 274.19,-175.23 284.18,-172.88"/>
<polygon fill="#000000" fill-opacity="0.200000" stroke="#000000" stroke-width="2" stroke-opacity="0.200000" points="284.9,-174.87 290.26,-171.44 283.94,-170.78 284.9,-174.87"/>
</g>
<!-- src/commands/generate.ts&#45;&gt;src/utils/misc.ts -->
<g id="edge11" class="edge">
<title>src/commands/generate.ts&#45;&gt;src/utils/misc.ts</title>
<path fill="none" stroke="#000000" stroke-width="2" stroke-opacity="0.200000" d="M154.27,-207.52C213.12,-200.19 332.88,-188.16 370,-206 375.13,-208.47 373.39,-212.67 378,-216 379.11,-216.8 380.27,-217.56 381.48,-218.28"/>
<polygon fill="#000000" fill-opacity="0.200000" stroke="#000000" stroke-width="2" stroke-opacity="0.200000" points="380.66,-220.22 386.95,-221.15 382.62,-216.5 380.66,-220.22"/>
</g>
<!-- src/config.ts -->
<g id="node8" class="node">
<title>src/config.ts</title>
<g id="a_node8"><a xlink:href="https://github.com/dragonman225/notablog/tree/master/src/config.ts" xlink:title="config.ts">
<path fill="#ddfeff" stroke="black" d="M233.5,-174C233.5,-174 189.5,-174 189.5,-174 186.5,-174 183.5,-171 183.5,-168 183.5,-168 183.5,-162 183.5,-162 183.5,-159 186.5,-156 189.5,-156 189.5,-156 233.5,-156 233.5,-156 236.5,-156 239.5,-159 239.5,-162 239.5,-162 239.5,-168 239.5,-168 239.5,-171 236.5,-174 233.5,-174"/>
<text text-anchor="start" x="191.5" y="-162.8" font-family="Helvetica,sans-Serif" font-size="9.00">config.ts</text>
</a>
</g>
</g>
<!-- src/commands/generate.ts&#45;&gt;src/config.ts -->
<g id="edge6" class="edge">
<title>src/commands/generate.ts&#45;&gt;src/config.ts</title>
<path fill="none" stroke="#000000" stroke-width="2" stroke-opacity="0.200000" d="M153.13,-202.82C156.31,-201.17 159.34,-199.25 162,-197 167.48,-192.38 164.68,-187.81 170,-183 172.43,-180.81 175.16,-178.85 178.04,-177.1"/>
<polygon fill="#000000" fill-opacity="0.200000" stroke="#000000" stroke-width="2" stroke-opacity="0.200000" points="179.09,-178.92 183.33,-174.19 177.07,-175.24 179.09,-178.92"/>
</g>
<!-- src/parseTable.ts -->
<g id="node9" class="node">
<title>src/parseTable.ts</title>
<g id="a_node9"><a xlink:href="https://github.com/dragonman225/notablog/tree/master/src/parseTable.ts" xlink:title="parseTable.ts">
<path fill="#ddfeff" stroke="black" d="M243,-320C243,-320 180,-320 180,-320 177,-320 174,-317 174,-314 174,-314 174,-308 174,-308 174,-305 177,-302 180,-302 180,-302 243,-302 243,-302 246,-302 249,-305 249,-308 249,-308 249,-314 249,-314 249,-317 246,-320 243,-320"/>
<text text-anchor="start" x="182" y="-308.8" font-family="Helvetica,sans-Serif" font-size="9.00">parseTable.ts</text>
</a>
</g>
</g>
<!-- src/commands/generate.ts&#45;&gt;src/parseTable.ts -->
<g id="edge7" class="edge">
<title>src/commands/generate.ts&#45;&gt;src/parseTable.ts</title>
<path fill="none" stroke="#000000" stroke-width="2" stroke-opacity="0.200000" d="M124.42,-221.26C130.93,-237.73 146.57,-272.35 170,-293 172.53,-295.23 175.37,-297.22 178.35,-298.99"/>
<polygon fill="#000000" fill-opacity="0.200000" stroke="#000000" stroke-width="2" stroke-opacity="0.200000" points="177.55,-300.94 183.83,-301.94 179.54,-297.24 177.55,-300.94"/>
</g>
<!-- src/renderer.ts -->
<g id="node10" class="node">
<title>src/renderer.ts</title>
<g id="a_node10"><a xlink:href="https://github.com/dragonman225/notablog/tree/master/src/renderer.ts" xlink:title="renderer.ts">
<path fill="#ddfeff" stroke="black" d="M238,-232C238,-232 185,-232 185,-232 182,-232 179,-229 179,-226 179,-226 179,-220 179,-220 179,-217 182,-214 185,-214 185,-214 238,-214 238,-214 241,-214 244,-217 244,-220 244,-220 244,-226 244,-226 244,-229 241,-232 238,-232"/>
<text text-anchor="start" x="187" y="-220.8" font-family="Helvetica,sans-Serif" font-size="9.00">renderer.ts</text>
</a>
</g>
</g>
<!-- src/commands/generate.ts&#45;&gt;src/renderer.ts -->
<g id="edge8" class="edge">
<title>src/commands/generate.ts&#45;&gt;src/renderer.ts</title>
<path fill="none" stroke="#000000" stroke-width="2" stroke-opacity="0.200000" d="M154.07,-216.06C160.12,-216.81 166.48,-217.59 172.66,-218.35"/>
<polygon fill="#000000" fill-opacity="0.200000" stroke="#000000" stroke-width="2" stroke-opacity="0.200000" points="172.54,-220.45 178.75,-219.1 173.05,-216.28 172.54,-220.45"/>
</g>
<!-- src/renderIndex.ts -->
<g id="node11" class="node">
<title>src/renderIndex.ts</title>
<g id="a_node11"><a xlink:href="https://github.com/dragonman225/notablog/tree/master/src/renderIndex.ts" xlink:title="renderIndex.ts">
<path fill="#ddfeff" stroke="black" d="M247,-262C247,-262 176,-262 176,-262 173,-262 170,-259 170,-256 170,-256 170,-250 170,-250 170,-247 173,-244 176,-244 176,-244 247,-244 247,-244 250,-244 253,-247 253,-250 253,-250 253,-256 253,-256 253,-259 250,-262 247,-262"/>
<text text-anchor="start" x="178" y="-250.8" font-family="Helvetica,sans-Serif" font-size="9.00">renderIndex.ts</text>
</a>
</g>
</g>
<!-- src/commands/generate.ts&#45;&gt;src/renderIndex.ts -->
<g id="edge9" class="edge">
<title>src/commands/generate.ts&#45;&gt;src/renderIndex.ts</title>
<path fill="none" stroke="#000000" stroke-width="2" stroke-opacity="0.200000" d="M137.06,-221.22C146.5,-226.46 158.75,-232.96 170,-238 172.76,-239.24 175.66,-240.46 178.58,-241.64"/>
<polygon fill="#000000" fill-opacity="0.200000" stroke="#000000" stroke-width="2" stroke-opacity="0.200000" points="178.23,-243.75 184.58,-243.99 179.76,-239.84 178.23,-243.75"/>
</g>
<!-- src/renderPost.ts -->
<g id="node12" class="node">
<title>src/renderPost.ts</title>
<g id="a_node12"><a xlink:href="https://github.com/dragonman225/notablog/tree/master/src/renderPost.ts" xlink:title="renderPost.ts">
<path fill="#ddfeff" stroke="black" d="M350.5,-276C350.5,-276 285.5,-276 285.5,-276 282.5,-276 279.5,-273 279.5,-270 279.5,-270 279.5,-264 279.5,-264 279.5,-261 282.5,-258 285.5,-258 285.5,-258 350.5,-258 350.5,-258 353.5,-258 356.5,-261 356.5,-264 356.5,-264 356.5,-270 356.5,-270 356.5,-273 353.5,-276 350.5,-276"/>
<text text-anchor="start" x="287.5" y="-264.8" font-family="Helvetica,sans-Serif" font-size="9.00">renderPost.ts</text>
</a>
</g>
</g>
<!-- src/commands/generate.ts&#45;&gt;src/renderPost.ts -->
<g id="edge10" class="edge">
<title>src/commands/generate.ts&#45;&gt;src/renderPost.ts</title>
<path fill="none" stroke="#000000" stroke-width="2" stroke-opacity="0.200000" d="M125.79,-221.34C133.2,-234.61 148.82,-258.39 170,-268 202.22,-282.62 242.66,-281.11 272.96,-276.66"/>
<polygon fill="#000000" fill-opacity="0.200000" stroke="#000000" stroke-width="2" stroke-opacity="0.200000" points="273.66,-278.67 279.26,-275.67 273.01,-274.52 273.66,-278.67"/>
</g>
<!-- src/utils/notion.ts -->
<g id="node13" class="node">
<title>src/utils/notion.ts</title>
<g id="a_node13"><a xlink:href="https://github.com/dragonman225/notablog/tree/master/src/utils/notion.ts" xlink:title="notion.ts">
<path fill="#ddfeff" stroke="black" d="M436,-268C436,-268 392,-268 392,-268 389,-268 386,-265 386,-262 386,-262 386,-256 386,-256 386,-253 389,-250 392,-250 392,-250 436,-250 436,-250 439,-250 442,-253 442,-256 442,-256 442,-262 442,-262 442,-265 439,-268 436,-268"/>
<text text-anchor="start" x="394" y="-256.8" font-family="Helvetica,sans-Serif" font-size="9.00">notion.ts</text>
</a>
</g>
</g>
<!-- src/commands/generate.ts&#45;&gt;src/utils/notion.ts -->
<g id="edge12" class="edge">
<title>src/commands/generate.ts&#45;&gt;src/utils/notion.ts</title>
<path fill="none" stroke="#000000" stroke-width="2" stroke-opacity="0.200000" d="M124.03,-221.21C129.92,-237.41 144.61,-270.57 170,-284 189.64,-294.39 348.54,-289.78 370,-284 379.35,-281.48 388.76,-276.37 396.38,-271.43"/>
<polygon fill="#000000" fill-opacity="0.200000" stroke="#000000" stroke-width="2" stroke-opacity="0.200000" points="397.56,-273.16 401.35,-268.06 395.2,-269.69 397.56,-273.16"/>
</g>
<!-- src/config.ts&#45;&gt;fs -->
<g id="edge20" class="edge">
<title>src/config.ts&#45;&gt;fs</title>
<path fill="none" stroke="#000000" stroke-dasharray="5,2" stroke-opacity="0.200000" d="M214.97,-155.8C220.52,-137.26 235.87,-95.74 266,-79 303.3,-58.28 421.57,-56.79 458,-79 475.91,-89.92 484.79,-113.63 488.88,-129.46"/>
<polygon fill="#000000" fill-opacity="0.200000" stroke="#000000" stroke-opacity="0.200000" points="486.93,-130.34 490.36,-135.69 491.02,-129.37 486.93,-130.34"/>
</g>
<!-- src/config.ts&#45;&gt;src/utils/misc.ts -->
<g id="edge19" class="edge">
<title>src/config.ts&#45;&gt;src/utils/misc.ts</title>
<path fill="none" stroke="#000000" stroke-width="2" stroke-opacity="0.200000" d="M239.57,-173.22C247.99,-175.61 257.33,-178.08 266,-180 311.73,-190.12 333.21,-168.02 370,-197 377.2,-202.67 371.38,-209.66 378,-216 379.11,-217.06 380.31,-218.03 381.57,-218.93"/>
<polygon fill="#000000" fill-opacity="0.200000" stroke="#000000" stroke-width="2" stroke-opacity="0.200000" points="380.51,-220.74 386.74,-222.01 382.66,-217.13 380.51,-220.74"/>
</g>
<!-- src/parseTable.ts&#45;&gt;src/utils/notion.ts -->
<g id="edge25" class="edge">
<title>src/parseTable.ts&#45;&gt;src/utils/notion.ts</title>
<path fill="none" stroke="#000000" stroke-width="2" stroke-opacity="0.200000" d="M233.38,-320.04C265.03,-332.28 326.13,-349.97 370,-326 390.13,-315 402.23,-290.1 408.25,-273.95"/>
<polygon fill="#000000" fill-opacity="0.200000" stroke="#000000" stroke-width="2" stroke-opacity="0.200000" points="410.33,-274.39 410.34,-268.03 406.36,-273 410.33,-274.39"/>
</g>
<!-- src/ntable.ts -->
<g id="node16" class="node">
<title>src/ntable.ts</title>
<g id="a_node16"><a xlink:href="https://github.com/dragonman225/notablog/tree/master/src/ntable.ts" xlink:title="ntable.ts">
<path fill="#ddfeff" stroke="black" d="M340,-320C340,-320 296,-320 296,-320 293,-320 290,-317 290,-314 290,-314 290,-308 290,-308 290,-305 293,-302 296,-302 296,-302 340,-302 340,-302 343,-302 346,-305 346,-308 346,-308 346,-314 346,-314 346,-317 343,-320 340,-320"/>
<text text-anchor="start" x="298" y="-308.8" font-family="Helvetica,sans-Serif" font-size="9.00">ntable.ts</text>
</a>
</g>
</g>
<!-- src/parseTable.ts&#45;&gt;src/ntable.ts -->
<g id="edge24" class="edge">
<title>src/parseTable.ts&#45;&gt;src/ntable.ts</title>
<path fill="none" stroke="#000000" stroke-width="2" stroke-opacity="0.200000" d="M249.05,-311C260.37,-311 272.78,-311 283.86,-311"/>
<polygon fill="#000000" fill-opacity="0.200000" stroke="#000000" stroke-width="2" stroke-opacity="0.200000" points="283.86,-313.1 289.86,-311 283.86,-308.9 283.86,-313.1"/>
</g>
<!-- src/templateProvider.ts -->
<g id="node17" class="node">
<title>src/templateProvider.ts</title>
<g id="a_node17"><a xlink:href="https://github.com/dragonman225/notablog/tree/master/src/templateProvider.ts" xlink:title="templateProvider.ts">
<path fill="#ddfeff" stroke="black" d="M364,-232C364,-232 272,-232 272,-232 269,-232 266,-229 266,-226 266,-226 266,-220 266,-220 266,-217 269,-214 272,-214 272,-214 364,-214 364,-214 367,-214 370,-217 370,-220 370,-220 370,-226 370,-226 370,-229 367,-232 364,-232"/>
<text text-anchor="start" x="274" y="-220.8" font-family="Helvetica,sans-Serif" font-size="9.00">templateProvider.ts</text>
</a>
</g>
</g>
<!-- src/renderer.ts&#45;&gt;src/templateProvider.ts -->
<g id="edge33" class="edge">
<title>src/renderer.ts&#45;&gt;src/templateProvider.ts</title>
<path fill="none" stroke="#000000" stroke-width="2" stroke-opacity="0.200000" d="M244.14,-223C249.06,-223 254.27,-223 259.56,-223"/>
<polygon fill="#000000" fill-opacity="0.200000" stroke="#000000" stroke-width="2" stroke-opacity="0.200000" points="259.78,-225.1 265.78,-223 259.78,-220.9 259.78,-225.1"/>
</g>
<!-- src/renderIndex.ts&#45;&gt;fs -->
<g id="edge27" class="edge">
<title>src/renderIndex.ts&#45;&gt;fs</title>
<path fill="none" stroke="#000000" stroke-dasharray="5,2" stroke-opacity="0.200000" d="M246.31,-243.96C248.82,-242.3 251.11,-240.33 253,-238 277.9,-207.29 241.88,-181.32 266,-150 299.05,-107.09 324.95,-112.89 378,-102 412.83,-94.85 426,-86.51 458,-102 470.03,-107.82 479.09,-120.2 484.82,-130.18"/>
<polygon fill="#000000" fill-opacity="0.200000" stroke="#000000" stroke-opacity="0.200000" points="483.11,-131.44 487.81,-135.72 486.81,-129.44 483.11,-131.44"/>
</g>
<!-- src/renderIndex.ts&#45;&gt;path -->
<g id="edge28" class="edge">
<title>src/renderIndex.ts&#45;&gt;path</title>
<path fill="none" stroke="#000000" stroke-dasharray="5,2" stroke-opacity="0.200000" d="M222.88,-262.08C231.76,-270.26 244.43,-282.98 253,-296 260.99,-308.14 255.35,-316.11 266,-326 319.01,-375.23 411.05,-372.11 459.7,-366.22"/>
<polygon fill="#000000" fill-opacity="0.200000" stroke="#000000" stroke-opacity="0.200000" points="460.02,-368.3 465.7,-365.46 459.48,-364.14 460.02,-368.3"/>
</g>
<!-- src/renderIndex.ts&#45;&gt;src/utils/misc.ts -->
<g id="edge26" class="edge">
<title>src/renderIndex.ts&#45;&gt;src/utils/misc.ts</title>
<path fill="none" stroke="#000000" stroke-width="2" stroke-opacity="0.200000" d="M253.12,-250.38C285.01,-248.02 330.49,-244 370,-238 373.48,-237.47 377.1,-236.84 380.7,-236.16"/>
<polygon fill="#000000" fill-opacity="0.200000" stroke="#000000" stroke-width="2" stroke-opacity="0.200000" points="381.22,-238.2 386.71,-234.99 380.41,-234.08 381.22,-238.2"/>
</g>
<!-- src/renderPost.ts&#45;&gt;fs -->
<g id="edge31" class="edge">
<title>src/renderPost.ts&#45;&gt;fs</title>
<path fill="none" stroke="#000000" stroke-dasharray="5,2" stroke-opacity="0.200000" d="M343.39,-257.96C352.92,-253.32 363.18,-246.76 370,-238 378.21,-227.45 368.76,-218.66 378,-209 403.83,-181.98 426.68,-203.41 458,-183 467.52,-176.8 476.04,-167.26 482.17,-159.29"/>
<polygon fill="#000000" fill-opacity="0.200000" stroke="#000000" stroke-opacity="0.200000" points="484.14,-160.16 486.02,-154.09 480.76,-157.66 484.14,-160.16"/>
</g>
<!-- src/renderPost.ts&#45;&gt;path -->
<g id="edge32" class="edge">
<title>src/renderPost.ts&#45;&gt;path</title>
<path fill="none" stroke="#000000" stroke-dasharray="5,2" stroke-opacity="0.200000" d="M344.66,-276.07C354.03,-280.64 363.83,-287.14 370,-296 382.6,-314.11 362.22,-329.57 378,-345 399.08,-365.61 433.71,-367.78 459.28,-365.92"/>
<polygon fill="#000000" fill-opacity="0.200000" stroke="#000000" stroke-opacity="0.200000" points="459.78,-367.98 465.58,-365.37 459.41,-363.8 459.78,-367.98"/>
</g>
<!-- src/renderPost.ts&#45;&gt;src/utils/misc.ts -->
<g id="edge29" class="edge">
<title>src/renderPost.ts&#45;&gt;src/utils/misc.ts</title>
<path fill="none" stroke="#000000" stroke-width="2" stroke-opacity="0.200000" d="M348.04,-257.99C355.34,-255.39 363.06,-252.34 370,-249 373.78,-247.18 374.28,-245.94 378,-244 380.24,-242.83 382.59,-241.67 384.97,-240.55"/>
<polygon fill="#000000" fill-opacity="0.200000" stroke="#000000" stroke-width="2" stroke-opacity="0.200000" points="385.95,-242.42 390.54,-238.02 384.21,-238.59 385.95,-242.42"/>
</g>
<!-- src/renderPost.ts&#45;&gt;src/utils/notion.ts -->
<g id="edge30" class="edge">
<title>src/renderPost.ts&#45;&gt;src/utils/notion.ts</title>
<path fill="none" stroke="#000000" stroke-width="2" stroke-opacity="0.200000" d="M356.69,-263.79C364.27,-263.15 372.19,-262.47 379.61,-261.84"/>
<polygon fill="#000000" fill-opacity="0.200000" stroke="#000000" stroke-width="2" stroke-opacity="0.200000" points="379.91,-263.92 385.71,-261.32 379.56,-259.74 379.91,-263.92"/>
</g>
<!-- src/commands/preview.ts -->
<g id="node14" class="node">
<title>src/commands/preview.ts</title>
<g id="a_node14"><a xlink:href="https://github.com/dragonman225/notablog/tree/master/src/commands/preview.ts" xlink:title="preview.ts">
<path fill="#ddfeff" stroke="black" d="M145,-191C145,-191 95,-191 95,-191 92,-191 89,-188 89,-185 89,-185 89,-179 89,-179 89,-176 92,-173 95,-173 95,-173 145,-173 145,-173 148,-173 151,-176 151,-179 151,-179 151,-185 151,-185 151,-188 148,-191 145,-191"/>
<text text-anchor="start" x="97" y="-179.8" font-family="Helvetica,sans-Serif" font-size="9.00">preview.ts</text>
</a>
</g>
</g>
<!-- src/commands/preview.ts&#45;&gt;child_process -->
<g id="edge17" class="edge">
<title>src/commands/preview.ts&#45;&gt;child_process</title>
<path fill="none" stroke="#000000" stroke-dasharray="5,2" stroke-opacity="0.200000" d="M121.37,-172.69C122.91,-146.46 130.69,-70.98 170,-27 171.79,-25 173.84,-23.21 176.05,-21.61"/>
<polygon fill="#000000" fill-opacity="0.200000" stroke="#000000" stroke-opacity="0.200000" points="177.49,-23.19 181.45,-18.22 175.26,-19.63 177.49,-23.19"/>
</g>
<!-- src/commands/preview.ts&#45;&gt;path -->
<g id="edge18" class="edge">
<title>src/commands/preview.ts&#45;&gt;path</title>
<path fill="none" stroke="#000000" stroke-dasharray="5,2" stroke-opacity="0.200000" d="M151.15,-188.26C155.38,-190.38 159.22,-193.21 162,-197 172.94,-211.88 157.07,-349.82 170,-363 259.75,-454.48 332.94,-404.96 458,-377 462.29,-376.04 466.68,-374.48 470.81,-372.7"/>
<polygon fill="#000000" fill-opacity="0.200000" stroke="#000000" stroke-opacity="0.200000" points="471.7,-374.6 476.26,-370.17 469.94,-370.79 471.7,-374.6"/>
</g>
<!-- src/commands/preview.ts&#45;&gt;src/utils/misc.ts -->
<g id="edge16" class="edge">
<title>src/commands/preview.ts&#45;&gt;src/utils/misc.ts</title>
<path fill="none" stroke="#000000" stroke-width="2" stroke-opacity="0.200000" d="M130.53,-172.7C139.76,-164.39 154.58,-152.82 170,-148 254.83,-121.45 293.82,-102.19 370,-148 393.78,-162.3 405.11,-194.68 409.92,-213.88"/>
<polygon fill="#000000" fill-opacity="0.200000" stroke="#000000" stroke-width="2" stroke-opacity="0.200000" points="407.91,-214.48 411.31,-219.85 412,-213.53 407.91,-214.48"/>
</g>
<!-- src/commands/preview.ts&#45;&gt;src/config.ts -->
<g id="edge15" class="edge">
<title>src/commands/preview.ts&#45;&gt;src/config.ts</title>
<path fill="none" stroke="#000000" stroke-width="2" stroke-opacity="0.200000" d="M151.3,-176.24C159.54,-174.68 168.52,-172.97 176.93,-171.38"/>
<polygon fill="#000000" fill-opacity="0.200000" stroke="#000000" stroke-width="2" stroke-opacity="0.200000" points="177.73,-173.36 183.24,-170.18 176.95,-169.24 177.73,-173.36"/>
</g>
<!-- src/index.ts -->
<g id="node15" class="node">
<title>src/index.ts</title>
<g id="a_node15"><a xlink:href="https://github.com/dragonman225/notablog/tree/master/src/index.ts" xlink:title="index.ts">
<path fill="#ddfeff" stroke="black" d="M64,-206C64,-206 22,-206 22,-206 19,-206 16,-203 16,-200 16,-200 16,-194 16,-194 16,-191 19,-188 22,-188 22,-188 64,-188 64,-188 67,-188 70,-191 70,-194 70,-194 70,-200 70,-200 70,-203 67,-206 64,-206"/>
<text text-anchor="start" x="24.5" y="-194.8" font-family="Helvetica,sans-Serif" font-size="9.00">index.ts</text>
</a>
</g>
</g>
<!-- src/index.ts&#45;&gt;src/commands/generate.ts -->
<g id="edge21" class="edge">
<title>src/index.ts&#45;&gt;src/commands/generate.ts</title>
<path fill="none" stroke="#000000" stroke-width="2" stroke-opacity="0.200000" d="M70.23,-202.25C73.4,-202.88 76.69,-203.54 79.99,-204.2"/>
<polygon fill="#000000" fill-opacity="0.200000" stroke="#000000" stroke-width="2" stroke-opacity="0.200000" points="79.63,-206.27 85.93,-205.39 80.45,-202.15 79.63,-206.27"/>
</g>
<!-- src/index.ts&#45;&gt;src/commands/preview.ts -->
<g id="edge22" class="edge">
<title>src/index.ts&#45;&gt;src/commands/preview.ts</title>
<path fill="none" stroke="#000000" stroke-width="2" stroke-opacity="0.200000" d="M70.23,-191.75C74.26,-190.95 78.48,-190.1 82.68,-189.26"/>
<polygon fill="#000000" fill-opacity="0.200000" stroke="#000000" stroke-width="2" stroke-opacity="0.200000" points="83.33,-191.28 88.8,-188.04 82.51,-187.16 83.33,-191.28"/>
</g>
<!-- src/ntable.ts&#45;&gt;src/utils/notion.ts -->
<g id="edge23" class="edge">
<title>src/ntable.ts&#45;&gt;src/utils/notion.ts</title>
<path fill="none" stroke="#000000" stroke-width="2" stroke-opacity="0.200000" d="M346.19,-303.26C354.1,-300.52 362.6,-297.08 370,-293 380.35,-287.29 390.78,-279.12 398.78,-272.21"/>
<polygon fill="#000000" fill-opacity="0.200000" stroke="#000000" stroke-width="2" stroke-opacity="0.200000" points="400.31,-273.66 403.42,-268.11 397.53,-270.51 400.31,-273.66"/>
</g>
<!-- src/templateProvider.ts&#45;&gt;fs -->
<g id="edge35" class="edge">
<title>src/templateProvider.ts&#45;&gt;fs</title>
<path fill="none" stroke="#000000" stroke-dasharray="5,2" stroke-opacity="0.200000" d="M332.12,-213.82C343.77,-205.96 361.47,-194.71 378,-187 412,-171.13 423.02,-173.59 458,-160 460.79,-158.92 463.68,-157.74 466.54,-156.53"/>
<polygon fill="#000000" fill-opacity="0.200000" stroke="#000000" stroke-opacity="0.200000" points="467.67,-158.33 472.35,-154.03 466.01,-154.47 467.67,-158.33"/>
</g>
<!-- src/templateProvider.ts&#45;&gt;path -->
<g id="edge36" class="edge">
<title>src/templateProvider.ts&#45;&gt;path</title>
<path fill="none" stroke="#000000" stroke-dasharray="5,2" stroke-opacity="0.200000" d="M345.12,-232.07C354.44,-236.61 364.08,-243.09 370,-252 386.59,-276.98 359.09,-295.72 378,-319 401.66,-348.13 423.02,-332.41 458,-346 460.79,-347.08 463.68,-348.26 466.54,-349.47"/>
<polygon fill="#000000" fill-opacity="0.200000" stroke="#000000" stroke-opacity="0.200000" points="466.01,-351.53 472.35,-351.97 467.67,-347.67 466.01,-351.53"/>
</g>
<!-- src/templateProvider.ts&#45;&gt;src/utils/misc.ts -->
<g id="edge34" class="edge">
<title>src/templateProvider.ts&#45;&gt;src/utils/misc.ts</title>
<path fill="none" stroke="#000000" stroke-width="2" stroke-opacity="0.200000" d="M370.13,-226.26C373.68,-226.49 377.2,-226.71 380.61,-226.93"/>
<polygon fill="#000000" fill-opacity="0.200000" stroke="#000000" stroke-width="2" stroke-opacity="0.200000" points="380.48,-229.03 386.6,-227.31 380.74,-224.84 380.48,-229.03"/>
</g>
</g>
</svg>
