<?xml version="1.0" encoding="UTF-8" standalone="no"?>
<!DOCTYPE svg PUBLIC "-//W3C//DTD SVG 1.1//EN"
 "http://www.w3.org/Graphics/SVG/1.1/DTD/svg11.dtd">
<!-- Generated by graphviz version 2.40.1 (0)
 -->
<!-- Title: dependency&#45;cruiser output Pages: 1 -->
<svg width="291pt" height="285pt"
 viewBox="0.00 0.00 291.00 285.39" xmlns="http://www.w3.org/2000/svg" xmlns:xlink="http://www.w3.org/1999/xlink">
<g id="graph0" class="graph" transform="scale(1 1) rotate(0) translate(4 281.3909)">
<title>dependency&#45;cruiser output</title>
<polygon fill="#ffffff" stroke="transparent" points="-4,4 -4,-281.3909 287,-281.3909 287,4 -4,4"/>
<g id="clust1" class="cluster">
<title>cluster_src</title>
<path fill="#ffffff" stroke="#000000" stroke-width="2" d="M74,-19.3909C74,-19.3909 263,-19.3909 263,-19.3909 269,-19.3909 275,-25.3909 275,-31.3909 275,-31.3909 275,-209.3909 275,-209.3909 275,-215.3909 269,-221.3909 263,-221.3909 263,-221.3909 74,-221.3909 74,-221.3909 68,-221.3909 62,-215.3909 62,-209.3909 62,-209.3909 62,-31.3909 62,-31.3909 62,-25.3909 68,-19.3909 74,-19.3909"/>
<text text-anchor="middle" x="168.5" y="-210.1909" font-family="Helvetica,sans-Serif" font-weight="bold" font-size="9.00" fill="#000000">src</text>
</g>
<g id="clust2" class="cluster">
<title>cluster_src/plugins</title>
<path fill="#ffffff" stroke="#000000" stroke-width="2" d="M88.5,-143.3909C88.5,-143.3909 158.5,-143.3909 158.5,-143.3909 164.5,-143.3909 170.5,-149.3909 170.5,-155.3909 170.5,-155.3909 170.5,-183.3909 170.5,-183.3909 170.5,-189.3909 164.5,-195.3909 158.5,-195.3909 158.5,-195.3909 88.5,-195.3909 88.5,-195.3909 82.5,-195.3909 76.5,-189.3909 76.5,-183.3909 76.5,-183.3909 76.5,-155.3909 76.5,-155.3909 76.5,-149.3909 82.5,-143.3909 88.5,-143.3909"/>
<text text-anchor="middle" x="123.5" y="-184.1909" font-family="Helvetica,sans-Serif" font-weight="bold" font-size="9.00" fill="#000000">plugins</text>
</g>
<!-- fs -->
<g id="node1" class="node">
<title>fs</title>
<path fill="#ffffcc" stroke="#c0c0c0" d="M249.5,-277.3909C249.5,-277.3909 207.5,-277.3909 207.5,-277.3909 204.5,-277.3909 201.5,-274.3909 201.5,-271.3909 201.5,-271.3909 201.5,-265.3909 201.5,-265.3909 201.5,-262.3909 204.5,-259.3909 207.5,-259.3909 207.5,-259.3909 249.5,-259.3909 249.5,-259.3909 252.5,-259.3909 255.5,-262.3909 255.5,-265.3909 255.5,-265.3909 255.5,-271.3909 255.5,-271.3909 255.5,-274.3909 252.5,-277.3909 249.5,-277.3909"/>
<text text-anchor="middle" x="228.5" y="-266.1909" font-family="Helvetica,sans-Serif" font-size="9.00" fill="#c0c0c0">fs</text>
</g>
<!-- index.js -->
<g id="node2" class="node">
<title>index.js</title>
<g id="a_node2"><a xlink:href="https://github.com/dragonman225/notablog/tree/master/index.js" xlink:title="index.js">
<path fill="#ffffcc" stroke="#000000" d="M48,-120.3909C48,-120.3909 6,-120.3909 6,-120.3909 3,-120.3909 0,-117.3909 0,-114.3909 0,-114.3909 0,-108.3909 0,-108.3909 0,-105.3909 3,-102.3909 6,-102.3909 6,-102.3909 48,-102.3909 48,-102.3909 51,-102.3909 54,-105.3909 54,-108.3909 54,-108.3909 54,-114.3909 54,-114.3909 54,-117.3909 51,-120.3909 48,-120.3909"/>
<text text-anchor="middle" x="27" y="-109.1909" font-family="Helvetica,sans-Serif" font-size="9.00" fill="#000000">index.js</text>
</a>
</g>
</g>
<!-- index.js&#45;&gt;fs -->
<g id="edge7" class="edge">
<title>index.js&#45;&gt;fs</title>
<path fill="none" stroke="#c0c0c0" d="M28.5569,-120.5071C32.9458,-145.1633 46.1367,-212.3257 62,-227.3909 96.8257,-260.4646 153.8834,-268.1354 191.3204,-269.2859"/>
<polygon fill="#c0c0c0" stroke="#c0c0c0" points="191.2674,-272.7854 201.3245,-269.4532 191.3845,-265.7864 191.2674,-272.7854"/>
</g>
<!-- path -->
<g id="node3" class="node">
<title>path</title>
<path fill="#ffffcc" stroke="#c0c0c0" d="M249.5,-247.3909C249.5,-247.3909 207.5,-247.3909 207.5,-247.3909 204.5,-247.3909 201.5,-244.3909 201.5,-241.3909 201.5,-241.3909 201.5,-235.3909 201.5,-235.3909 201.5,-232.3909 204.5,-229.3909 207.5,-229.3909 207.5,-229.3909 249.5,-229.3909 249.5,-229.3909 252.5,-229.3909 255.5,-232.3909 255.5,-235.3909 255.5,-235.3909 255.5,-241.3909 255.5,-241.3909 255.5,-244.3909 252.5,-247.3909 249.5,-247.3909"/>
<text text-anchor="middle" x="228.5" y="-236.1909" font-family="Helvetica,sans-Serif" font-size="9.00" fill="#c0c0c0">path</text>
</g>
<!-- index.js&#45;&gt;path -->
<g id="edge8" class="edge">
<title>index.js&#45;&gt;path</title>
<path fill="none" stroke="#c0c0c0" d="M27.957,-120.5968C30.3186,-138.4327 38.0897,-177.7543 62,-198.3909 98.051,-229.506 154.1771,-237.3433 191.1395,-238.8513"/>
<polygon fill="#c0c0c0" stroke="#c0c0c0" points="191.3971,-242.3594 201.4875,-239.1292 191.5851,-235.3619 191.3971,-242.3594"/>
</g>
<!-- src/parse&#45;table.js -->
<g id="node5" class="node">
<title>src/parse&#45;table.js</title>
<g id="a_node5"><a xlink:href="https://github.com/dragonman225/notablog/tree/master/src/parse-table.js" xlink:title="parse&#45;table.js">
<path fill="#ffffcc" stroke="#000000" d="M156.5,-45.3909C156.5,-45.3909 90.5,-45.3909 90.5,-45.3909 87.5,-45.3909 84.5,-42.3909 84.5,-39.3909 84.5,-39.3909 84.5,-33.3909 84.5,-33.3909 84.5,-30.3909 87.5,-27.3909 90.5,-27.3909 90.5,-27.3909 156.5,-27.3909 156.5,-27.3909 159.5,-27.3909 162.5,-30.3909 162.5,-33.3909 162.5,-33.3909 162.5,-39.3909 162.5,-39.3909 162.5,-42.3909 159.5,-45.3909 156.5,-45.3909"/>
<text text-anchor="middle" x="123.5" y="-34.1909" font-family="Helvetica,sans-Serif" font-size="9.00" fill="#000000">parse&#45;table.js</text>
</a>
</g>
</g>
<!-- index.js&#45;&gt;src/parse&#45;table.js -->
<g id="edge1" class="edge">
<title>index.js&#45;&gt;src/parse&#45;table.js</title>
<path fill="none" stroke="#000000" stroke-width="2" stroke-opacity="0.466667" d="M29.8224,-102.0985C34.3662,-88.7611 44.6016,-64.3712 62,-51.3909 65.8703,-48.5034 70.2237,-46.1652 74.7804,-44.2729"/>
<polygon fill="#000000" fill-opacity="0.466667" stroke="#000000" stroke-width="2" stroke-opacity="0.466667" points="76.0157,-47.5492 84.3293,-40.9815 73.7346,-40.9313 76.0157,-47.5492"/>
</g>
<!-- src/plugins/render&#45;icon.js -->
<g id="node6" class="node">
<title>src/plugins/render&#45;icon.js</title>
<g id="a_node6"><a xlink:href="https://github.com/dragonman225/notablog/tree/master/src/plugins/render-icon.js" xlink:title="render&#45;icon.js">
<path fill="#ffffcc" stroke="#000000" d="M156.5,-169.3909C156.5,-169.3909 90.5,-169.3909 90.5,-169.3909 87.5,-169.3909 84.5,-166.3909 84.5,-163.3909 84.5,-163.3909 84.5,-157.3909 84.5,-157.3909 84.5,-154.3909 87.5,-151.3909 90.5,-151.3909 90.5,-151.3909 156.5,-151.3909 156.5,-151.3909 159.5,-151.3909 162.5,-154.3909 162.5,-157.3909 162.5,-157.3909 162.5,-163.3909 162.5,-163.3909 162.5,-166.3909 159.5,-169.3909 156.5,-169.3909"/>
<text text-anchor="middle" x="123.5" y="-158.1909" font-family="Helvetica,sans-Serif" font-size="9.00" fill="#000000">render&#45;icon.js</text>
</a>
</g>
</g>
<!-- index.js&#45;&gt;src/plugins/render&#45;icon.js -->
<g id="edge2" class="edge">
<title>index.js&#45;&gt;src/plugins/render&#45;icon.js</title>
<path fill="none" stroke="#000000" stroke-width="2" stroke-opacity="0.466667" d="M33.3982,-120.5733C39.6999,-128.8931 50.0918,-140.825 62,-147.3909 65.9227,-149.5538 70.1685,-151.3573 74.5331,-152.8611"/>
<polygon fill="#000000" fill-opacity="0.466667" stroke="#000000" stroke-width="2" stroke-opacity="0.466667" points="73.6171,-156.2398 84.198,-155.6974 75.5883,-149.523 73.6171,-156.2398"/>
</g>
<!-- src/render&#45;index.js -->
<g id="node7" class="node">
<title>src/render&#45;index.js</title>
<g id="a_node7"><a xlink:href="https://github.com/dragonman225/notablog/tree/master/src/render-index.js" xlink:title="render&#45;index.js">
<path fill="#ffffcc" stroke="#000000" d="M159.5,-105.3909C159.5,-105.3909 87.5,-105.3909 87.5,-105.3909 84.5,-105.3909 81.5,-102.3909 81.5,-99.3909 81.5,-99.3909 81.5,-93.3909 81.5,-93.3909 81.5,-90.3909 84.5,-87.3909 87.5,-87.3909 87.5,-87.3909 159.5,-87.3909 159.5,-87.3909 162.5,-87.3909 165.5,-90.3909 165.5,-93.3909 165.5,-93.3909 165.5,-99.3909 165.5,-99.3909 165.5,-102.3909 162.5,-105.3909 159.5,-105.3909"/>
<text text-anchor="middle" x="123.5" y="-94.1909" font-family="Helvetica,sans-Serif" font-size="9.00" fill="#000000">render&#45;index.js</text>
</a>
</g>
</g>
<!-- index.js&#45;&gt;src/render&#45;index.js -->
<g id="edge3" class="edge">
<title>index.js&#45;&gt;src/render&#45;index.js</title>
<path fill="none" stroke="#000000" stroke-width="2" stroke-opacity="0.466667" d="M54.1374,-107.1727C59.5658,-106.3289 65.4382,-105.4161 71.3895,-104.491"/>
<polygon fill="#000000" fill-opacity="0.466667" stroke="#000000" stroke-width="2" stroke-opacity="0.466667" points="72.0712,-107.9272 81.415,-102.9326 70.996,-101.0102 72.0712,-107.9272"/>
</g>
<!-- src/render&#45;post.js -->
<g id="node8" class="node">
<title>src/render&#45;post.js</title>
<g id="a_node8"><a xlink:href="https://github.com/dragonman225/notablog/tree/master/src/render-post.js" xlink:title="render&#45;post.js">
<path fill="#ffffcc" stroke="#000000" d="M156.5,-75.3909C156.5,-75.3909 90.5,-75.3909 90.5,-75.3909 87.5,-75.3909 84.5,-72.3909 84.5,-69.3909 84.5,-69.3909 84.5,-63.3909 84.5,-63.3909 84.5,-60.3909 87.5,-57.3909 90.5,-57.3909 90.5,-57.3909 156.5,-57.3909 156.5,-57.3909 159.5,-57.3909 162.5,-60.3909 162.5,-63.3909 162.5,-63.3909 162.5,-69.3909 162.5,-69.3909 162.5,-72.3909 159.5,-75.3909 156.5,-75.3909"/>
<text text-anchor="middle" x="123.5" y="-64.1909" font-family="Helvetica,sans-Serif" font-size="9.00" fill="#000000">render&#45;post.js</text>
</a>
</g>
</g>
<!-- index.js&#45;&gt;src/render&#45;post.js -->
<g id="edge4" class="edge">
<title>index.js&#45;&gt;src/render&#45;post.js</title>
<path fill="none" stroke="#000000" stroke-width="2" stroke-opacity="0.466667" d="M35.3477,-102.2089C41.9533,-95.4853 51.7458,-86.6505 62,-81.3909 66.0139,-79.3321 70.3217,-77.5479 74.726,-76.0032"/>
<polygon fill="#000000" fill-opacity="0.466667" stroke="#000000" stroke-width="2" stroke-opacity="0.466667" points="75.9299,-79.2943 84.4451,-72.9903 73.8572,-72.6082 75.9299,-79.2943"/>
</g>
<!-- src/template&#45;provider.js -->
<g id="node9" class="node">
<title>src/template&#45;provider.js</title>
<g id="a_node9"><a xlink:href="https://github.com/dragonman225/notablog/tree/master/src/template-provider.js" xlink:title="template&#45;provider.js">
<path fill="#ffffcc" stroke="#000000" d="M171,-135.3909C171,-135.3909 76,-135.3909 76,-135.3909 73,-135.3909 70,-132.3909 70,-129.3909 70,-129.3909 70,-123.3909 70,-123.3909 70,-120.3909 73,-117.3909 76,-117.3909 76,-117.3909 171,-117.3909 171,-117.3909 174,-117.3909 177,-120.3909 177,-123.3909 177,-123.3909 177,-129.3909 177,-129.3909 177,-132.3909 174,-135.3909 171,-135.3909"/>
<text text-anchor="middle" x="123.5" y="-124.1909" font-family="Helvetica,sans-Serif" font-size="9.00" fill="#000000">template&#45;provider.js</text>
</a>
</g>
</g>
<!-- index.js&#45;&gt;src/template&#45;provider.js -->
<g id="edge5" class="edge">
<title>index.js&#45;&gt;src/template&#45;provider.js</title>
<path fill="none" stroke="#000000" stroke-width="2" stroke-opacity="0.466667" d="M54.1374,-115.6092C55.8238,-115.8713 57.553,-116.1401 59.3141,-116.4138"/>
<polygon fill="#000000" fill-opacity="0.466667" stroke="#000000" stroke-width="2" stroke-opacity="0.466667" points="59.2541,-119.9465 69.6731,-118.024 60.3293,-113.0295 59.2541,-119.9465"/>
</g>
<!-- src/utils.js -->
<g id="node10" class="node">
<title>src/utils.js</title>
<g id="a_node10"><a xlink:href="https://github.com/dragonman225/notablog/tree/master/src/utils.js" xlink:title="utils.js">
<path fill="#ffffcc" stroke="#000000" d="M249.5,-75.3909C249.5,-75.3909 207.5,-75.3909 207.5,-75.3909 204.5,-75.3909 201.5,-72.3909 201.5,-69.3909 201.5,-69.3909 201.5,-63.3909 201.5,-63.3909 201.5,-60.3909 204.5,-57.3909 207.5,-57.3909 207.5,-57.3909 249.5,-57.3909 249.5,-57.3909 252.5,-57.3909 255.5,-60.3909 255.5,-63.3909 255.5,-63.3909 255.5,-69.3909 255.5,-69.3909 255.5,-72.3909 252.5,-75.3909 249.5,-75.3909"/>
<text text-anchor="middle" x="228.5" y="-64.1909" font-family="Helvetica,sans-Serif" font-size="9.00" fill="#000000">utils.js</text>
</a>
</g>
</g>
<!-- index.js&#45;&gt;src/utils.js -->
<g id="edge6" class="edge">
<title>index.js&#45;&gt;src/utils.js</title>
<path fill="none" stroke="#000000" stroke-width="2" stroke-opacity="0.466667" d="M29.1494,-102.3429C34.3124,-81.4599 48.0245,-30.9511 62,-21.3909 104.1852,7.4666 134.2739,6.6595 177,-21.3909 189.1474,-29.3659 179.5345,-41.3096 190,-51.3909 190.8008,-52.1623 191.6457,-52.8953 192.5266,-53.5916"/>
<polygon fill="#000000" fill-opacity="0.466667" stroke="#000000" stroke-width="2" stroke-opacity="0.466667" points="190.8467,-56.6673 201.1993,-58.9201 194.5111,-50.7031 190.8467,-56.6673"/>
</g>
<!-- src/notion&#45;utils.js -->
<g id="node4" class="node">
<title>src/notion&#45;utils.js</title>
<g id="a_node4"><a xlink:href="https://github.com/dragonman225/notablog/tree/master/src/notion-utils.js" xlink:title="notion&#45;utils.js">
<path fill="#ffffcc" stroke="#000000" d="M261,-45.3909C261,-45.3909 196,-45.3909 196,-45.3909 193,-45.3909 190,-42.3909 190,-39.3909 190,-39.3909 190,-33.3909 190,-33.3909 190,-30.3909 193,-27.3909 196,-27.3909 196,-27.3909 261,-27.3909 261,-27.3909 264,-27.3909 267,-30.3909 267,-33.3909 267,-33.3909 267,-39.3909 267,-39.3909 267,-42.3909 264,-45.3909 261,-45.3909"/>
<text text-anchor="middle" x="228.5" y="-34.1909" font-family="Helvetica,sans-Serif" font-size="9.00" fill="#000000">notion&#45;utils.js</text>
</a>
</g>
</g>
<!-- src/parse&#45;table.js&#45;&gt;src/notion&#45;utils.js -->
<g id="edge9" class="edge">
<title>src/parse&#45;table.js&#45;&gt;src/notion&#45;utils.js</title>
<path fill="none" stroke="#000000" stroke-width="2" stroke-opacity="0.466667" d="M162.5981,-36.3909C168.1373,-36.3909 173.8897,-36.3909 179.5856,-36.3909"/>
<polygon fill="#000000" fill-opacity="0.466667" stroke="#000000" stroke-width="2" stroke-opacity="0.466667" points="179.7189,-39.891 189.7188,-36.3909 179.7188,-32.891 179.7189,-39.891"/>
</g>
<!-- src/parse&#45;table.js&#45;&gt;src/utils.js -->
<g id="edge10" class="edge">
<title>src/parse&#45;table.js&#45;&gt;src/utils.js</title>
<path fill="none" stroke="#000000" stroke-width="2" stroke-opacity="0.466667" d="M156.0506,-45.4608C162.9697,-47.4046 170.2293,-49.4558 177,-51.3909 181.6784,-52.7281 186.5925,-54.1443 191.4511,-55.5515"/>
<polygon fill="#000000" fill-opacity="0.466667" stroke="#000000" stroke-width="2" stroke-opacity="0.466667" points="190.6734,-58.9702 201.2528,-58.3994 192.6265,-52.2482 190.6734,-58.9702"/>
</g>
<!-- src/render&#45;index.js&#45;&gt;fs -->
<g id="edge12" class="edge">
<title>src/render&#45;index.js&#45;&gt;fs</title>
<path fill="none" stroke="#c0c0c0" d="M165.6792,-102.6979C169.992,-104.8537 173.9136,-107.6845 177,-111.3909 197.2768,-135.7415 170.9423,-228.0749 190,-253.3909 190.9168,-254.6088 191.9466,-255.7278 193.0645,-256.756"/>
<polygon fill="#c0c0c0" stroke="#c0c0c0" points="191.1822,-259.7074 201.4527,-262.3089 195.0463,-253.8704 191.1822,-259.7074"/>
</g>
<!-- src/render&#45;index.js&#45;&gt;path -->
<g id="edge13" class="edge">
<title>src/render&#45;index.js&#45;&gt;path</title>
<path fill="none" stroke="#c0c0c0" d="M165.5959,-102.7681C169.923,-104.9119 173.8708,-107.7206 177,-111.3909 209.7985,-149.8606 158.6751,-184.7122 190,-224.3909 190.8181,-225.4271 191.7199,-226.3867 192.6891,-227.2752"/>
<polygon fill="#c0c0c0" stroke="#c0c0c0" points="190.8737,-230.2697 201.1641,-232.7912 194.6921,-224.4028 190.8737,-230.2697"/>
</g>
<!-- src/render&#45;index.js&#45;&gt;src/utils.js -->
<g id="edge11" class="edge">
<title>src/render&#45;index.js&#45;&gt;src/utils.js</title>
<path fill="none" stroke="#000000" stroke-width="2" stroke-opacity="0.466667" d="M156.0506,-87.321C162.9697,-85.3773 170.2293,-83.3261 177,-81.3909 181.6784,-80.0538 186.5925,-78.6376 191.4511,-77.2303"/>
<polygon fill="#000000" fill-opacity="0.466667" stroke="#000000" stroke-width="2" stroke-opacity="0.466667" points="192.6265,-80.5337 201.2528,-74.3825 190.6734,-73.8116 192.6265,-80.5337"/>
</g>
<!-- src/render&#45;post.js&#45;&gt;fs -->
<g id="edge15" class="edge">
<title>src/render&#45;post.js&#45;&gt;fs</title>
<path fill="none" stroke="#c0c0c0" d="M162.5754,-71.2075C168.117,-73.4996 173.2095,-76.7648 177,-81.3909 201.2938,-111.0404 167.1901,-222.5852 190,-253.3909 190.9071,-254.616 191.9289,-255.7411 193.0401,-256.7742"/>
<polygon fill="#c0c0c0" stroke="#c0c0c0" points="191.14,-259.7139 201.4026,-262.3464 195.0215,-253.8887 191.14,-259.7139"/>
</g>
<!-- src/render&#45;post.js&#45;&gt;path -->
<g id="edge16" class="edge">
<title>src/render&#45;post.js&#45;&gt;path</title>
<path fill="none" stroke="#c0c0c0" d="M162.515,-71.2574C168.0638,-73.5435 173.1744,-76.7938 177,-81.3909 197.4107,-105.918 170.5285,-199.1118 190,-224.3909 190.83,-225.4685 191.7509,-226.4633 192.7445,-227.3815"/>
<polygon fill="#c0c0c0" stroke="#c0c0c0" points="191.1827,-230.5395 201.481,-233.0286 194.9827,-224.6607 191.1827,-230.5395"/>
</g>
<!-- src/render&#45;post.js&#45;&gt;src/utils.js -->
<g id="edge14" class="edge">
<title>src/render&#45;post.js&#45;&gt;src/utils.js</title>
<path fill="none" stroke="#000000" stroke-width="2" stroke-opacity="0.466667" d="M162.5981,-66.3909C172.0028,-66.3909 182.0224,-66.3909 191.3361,-66.3909"/>
<polygon fill="#000000" fill-opacity="0.466667" stroke="#000000" stroke-width="2" stroke-opacity="0.466667" points="191.4812,-69.891 201.4812,-66.3909 191.4812,-62.891 191.4812,-69.891"/>
</g>
<!-- src/template&#45;provider.js&#45;&gt;fs -->
<g id="edge17" class="edge">
<title>src/template&#45;provider.js&#45;&gt;fs</title>
<path fill="none" stroke="#c0c0c0" d="M171.4948,-135.4214C173.5084,-136.8587 175.364,-138.5055 177,-140.3909 210.1322,-178.5736 159.1284,-213.3585 190,-253.3909 190.8132,-254.4454 191.7108,-255.4258 192.6764,-256.3373"/>
<polygon fill="#c0c0c0" stroke="#c0c0c0" points="190.8922,-259.356 201.1353,-262.0634 194.8162,-253.5593 190.8922,-259.356"/>
</g>
<!-- src/template&#45;provider.js&#45;&gt;path -->
<g id="edge18" class="edge">
<title>src/template&#45;provider.js&#45;&gt;path</title>
<path fill="none" stroke="#c0c0c0" d="M171.4066,-135.4995C173.4429,-136.9167 175.3275,-138.5378 177,-140.3909 202.3108,-168.4359 166.0176,-195.2018 190,-224.3909 190.8381,-225.411 191.7571,-226.3567 192.7408,-227.2336"/>
<polygon fill="#c0c0c0" stroke="#c0c0c0" points="190.9717,-230.2567 201.2819,-232.6963 194.7434,-224.3597 190.9717,-230.2567"/>
</g>
</g>
</svg>
