<?xml version="1.0" encoding="UTF-8" standalone="no"?>
<!DOCTYPE svg PUBLIC "-//W3C//DTD SVG 1.1//EN"
 "http://www.w3.org/Graphics/SVG/1.1/DTD/svg11.dtd">
<!-- Generated by graphviz version 2.40.1 (0)
 -->
<!-- Title: dependency&#45;cruiser output Pages: 1 -->
<svg width="304pt" height="216pt"
 viewBox="0.00 0.00 304.00 216.00" xmlns="http://www.w3.org/2000/svg" xmlns:xlink="http://www.w3.org/1999/xlink">
<g id="graph0" class="graph" transform="scale(1 1) rotate(0) translate(4 212)">
<title>dependency&#45;cruiser output</title>
<polygon fill="#ffffff" stroke="transparent" points="-4,4 -4,-212 300,-212 300,4 -4,4"/>
<g id="clust1" class="cluster">
<title>cluster_src</title>
<path fill="#ffffff" stroke="#000000" stroke-width="2" d="M20,-26C20,-26 276,-26 276,-26 282,-26 288,-32 288,-38 288,-38 288,-170 288,-170 288,-176 282,-182 276,-182 276,-182 20,-182 20,-182 14,-182 8,-176 8,-170 8,-170 8,-38 8,-38 8,-32 14,-26 20,-26"/>
<text text-anchor="middle" x="148" y="-170.8" font-family="Helvetica,sans-Serif" font-weight="bold" font-size="9.00" fill="#000000">src</text>
</g>
<!-- fs -->
<g id="node1" class="node">
<title>fs</title>
<path fill="#ffffcc" stroke="#c0c0c0" d="M262.5,-208C262.5,-208 220.5,-208 220.5,-208 217.5,-208 214.5,-205 214.5,-202 214.5,-202 214.5,-196 214.5,-196 214.5,-193 217.5,-190 220.5,-190 220.5,-190 262.5,-190 262.5,-190 265.5,-190 268.5,-193 268.5,-196 268.5,-196 268.5,-202 268.5,-202 268.5,-205 265.5,-208 262.5,-208"/>
<text text-anchor="middle" x="241.5" y="-196.8" font-family="Helvetica,sans-Serif" font-size="9.00" fill="#c0c0c0">fs</text>
</g>
<!-- path -->
<g id="node2" class="node">
<title>path</title>
<path fill="#ffffcc" stroke="#c0c0c0" d="M262.5,-18C262.5,-18 220.5,-18 220.5,-18 217.5,-18 214.5,-15 214.5,-12 214.5,-12 214.5,-6 214.5,-6 214.5,-3 217.5,0 220.5,0 220.5,0 262.5,0 262.5,0 265.5,0 268.5,-3 268.5,-6 268.5,-6 268.5,-12 268.5,-12 268.5,-15 265.5,-18 262.5,-18"/>
<text text-anchor="middle" x="241.5" y="-6.8" font-family="Helvetica,sans-Serif" font-size="9.00" fill="#c0c0c0">path</text>
</g>
<!-- src/index.js -->
<g id="node3" class="node">
<title>src/index.js</title>
<g id="a_node3"><a xlink:href="https://github.com/dragonman225/notablog/tree/master/src/index.js" xlink:title="index.js">
<path fill="#ffffcc" stroke="#000000" d="M64,-96C64,-96 22,-96 22,-96 19,-96 16,-93 16,-90 16,-90 16,-84 16,-84 16,-81 19,-78 22,-78 22,-78 64,-78 64,-78 67,-78 70,-81 70,-84 70,-84 70,-90 70,-90 70,-93 67,-96 64,-96"/>
<text text-anchor="middle" x="43" y="-84.8" font-family="Helvetica,sans-Serif" font-size="9.00" fill="#000000">index.js</text>
</a>
</g>
</g>
<!-- src/index.js&#45;&gt;fs -->
<g id="edge6" class="edge">
<title>src/index.js&#45;&gt;fs</title>
<path fill="none" stroke="#c0c0c0" d="M45.2406,-96.2311C49.6207,-112.2265 60.8828,-145.0083 83,-162 118.0297,-188.9119 169.3821,-196.7533 204.0594,-198.7798"/>
<polygon fill="#c0c0c0" stroke="#c0c0c0" points="204.1027,-202.2851 214.2494,-199.2367 204.4163,-195.2922 204.1027,-202.2851"/>
</g>
<!-- src/index.js&#45;&gt;path -->
<g id="edge7" class="edge">
<title>src/index.js&#45;&gt;path</title>
<path fill="none" stroke="#c0c0c0" d="M46.273,-77.9978C51.6627,-64.5948 63.7653,-39.7178 83,-28 119.7856,-5.5901 170.3265,-3.3878 204.3618,-5.1165"/>
<polygon fill="#c0c0c0" stroke="#c0c0c0" points="204.1565,-8.6104 214.361,-5.7612 204.607,-1.6249 204.1565,-8.6104"/>
</g>
<!-- src/parse&#45;table.js -->
<g id="node5" class="node">
<title>src/parse&#45;table.js</title>
<g id="a_node5"><a xlink:href="https://github.com/dragonman225/notablog/tree/master/src/parse-table.js" xlink:title="parse&#45;table.js">
<path fill="#ffffcc" stroke="#000000" d="M169.5,-52C169.5,-52 103.5,-52 103.5,-52 100.5,-52 97.5,-49 97.5,-46 97.5,-46 97.5,-40 97.5,-40 97.5,-37 100.5,-34 103.5,-34 103.5,-34 169.5,-34 169.5,-34 172.5,-34 175.5,-37 175.5,-40 175.5,-40 175.5,-46 175.5,-46 175.5,-49 172.5,-52 169.5,-52"/>
<text text-anchor="middle" x="136.5" y="-40.8" font-family="Helvetica,sans-Serif" font-size="9.00" fill="#000000">parse&#45;table.js</text>
</a>
</g>
</g>
<!-- src/index.js&#45;&gt;src/parse&#45;table.js -->
<g id="edge1" class="edge">
<title>src/index.js&#45;&gt;src/parse&#45;table.js</title>
<path fill="none" stroke="#000000" stroke-width="2" stroke-opacity="0.466667" d="M55.1352,-77.9596C62.8305,-72.5239 73.1577,-65.76 83,-61 87.0293,-59.0513 91.3237,-57.2251 95.6604,-55.5395"/>
<polygon fill="#000000" fill-opacity="0.466667" stroke="#000000" stroke-width="2" stroke-opacity="0.466667" points="96.9413,-58.7979 105.1352,-52.0816 94.5413,-52.2222 96.9413,-58.7979"/>
</g>
<!-- src/render&#45;index.js -->
<g id="node6" class="node">
<title>src/render&#45;index.js</title>
<g id="a_node6"><a xlink:href="https://github.com/dragonman225/notablog/tree/master/src/render-index.js" xlink:title="render&#45;index.js">
<path fill="#ffffcc" stroke="#000000" d="M172.5,-126C172.5,-126 100.5,-126 100.5,-126 97.5,-126 94.5,-123 94.5,-120 94.5,-120 94.5,-114 94.5,-114 94.5,-111 97.5,-108 100.5,-108 100.5,-108 172.5,-108 172.5,-108 175.5,-108 178.5,-111 178.5,-114 178.5,-114 178.5,-120 178.5,-120 178.5,-123 175.5,-126 172.5,-126"/>
<text text-anchor="middle" x="136.5" y="-114.8" font-family="Helvetica,sans-Serif" font-size="9.00" fill="#000000">render&#45;index.js</text>
</a>
</g>
</g>
<!-- src/index.js&#45;&gt;src/render&#45;index.js -->
<g id="edge2" class="edge">
<title>src/index.js&#45;&gt;src/render&#45;index.js</title>
<path fill="none" stroke="#000000" stroke-width="2" stroke-opacity="0.466667" d="M66.1479,-96.063C71.6403,-98.107 77.5015,-100.2019 83,-102 86.262,-103.0668 89.6506,-104.1267 93.0677,-105.1612"/>
<polygon fill="#000000" fill-opacity="0.466667" stroke="#000000" stroke-width="2" stroke-opacity="0.466667" points="92.1102,-108.5278 102.6916,-107.9934 94.0865,-101.8125 92.1102,-108.5278"/>
</g>
<!-- src/render&#45;post.js -->
<g id="node7" class="node">
<title>src/render&#45;post.js</title>
<g id="a_node7"><a xlink:href="https://github.com/dragonman225/notablog/tree/master/src/render-post.js" xlink:title="render&#45;post.js">
<path fill="#ffffcc" stroke="#000000" d="M169.5,-96C169.5,-96 103.5,-96 103.5,-96 100.5,-96 97.5,-93 97.5,-90 97.5,-90 97.5,-84 97.5,-84 97.5,-81 100.5,-78 103.5,-78 103.5,-78 169.5,-78 169.5,-78 172.5,-78 175.5,-81 175.5,-84 175.5,-84 175.5,-90 175.5,-90 175.5,-93 172.5,-96 169.5,-96"/>
<text text-anchor="middle" x="136.5" y="-84.8" font-family="Helvetica,sans-Serif" font-size="9.00" fill="#000000">render&#45;post.js</text>
</a>
</g>
</g>
<!-- src/index.js&#45;&gt;src/render&#45;post.js -->
<g id="edge3" class="edge">
<title>src/index.js&#45;&gt;src/render&#45;post.js</title>
<path fill="none" stroke="#000000" stroke-width="2" stroke-opacity="0.466667" d="M70.0441,-87C75.37,-87 81.1137,-87 86.9157,-87"/>
<polygon fill="#000000" fill-opacity="0.466667" stroke="#000000" stroke-width="2" stroke-opacity="0.466667" points="87.345,-90.5001 97.3449,-87 87.3449,-83.5001 87.345,-90.5001"/>
</g>
<!-- src/template&#45;provider.js -->
<g id="node8" class="node">
<title>src/template&#45;provider.js</title>
<g id="a_node8"><a xlink:href="https://github.com/dragonman225/notablog/tree/master/src/template-provider.js" xlink:title="template&#45;provider.js">
<path fill="#ffffcc" stroke="#000000" d="M184,-156C184,-156 89,-156 89,-156 86,-156 83,-153 83,-150 83,-150 83,-144 83,-144 83,-141 86,-138 89,-138 89,-138 184,-138 184,-138 187,-138 190,-141 190,-144 190,-144 190,-150 190,-150 190,-153 187,-156 184,-156"/>
<text text-anchor="middle" x="136.5" y="-144.8" font-family="Helvetica,sans-Serif" font-size="9.00" fill="#000000">template&#45;provider.js</text>
</a>
</g>
</g>
<!-- src/index.js&#45;&gt;src/template&#45;provider.js -->
<g id="edge4" class="edge">
<title>src/index.js&#45;&gt;src/template&#45;provider.js</title>
<path fill="none" stroke="#000000" stroke-width="2" stroke-opacity="0.466667" d="M48.9001,-96.3641C55.8363,-106.611 68.2873,-122.8014 83,-132 83.9202,-132.5753 84.8628,-133.129 85.8241,-133.6619"/>
<polygon fill="#000000" fill-opacity="0.466667" stroke="#000000" stroke-width="2" stroke-opacity="0.466667" points="84.3403,-136.8318 94.8794,-137.9174 87.3176,-130.4965 84.3403,-136.8318"/>
</g>
<!-- src/utils.js -->
<g id="node9" class="node">
<title>src/utils.js</title>
<g id="a_node9"><a xlink:href="https://github.com/dragonman225/notablog/tree/master/src/utils.js" xlink:title="utils.js">
<path fill="#ffffcc" stroke="#000000" d="M262.5,-89C262.5,-89 220.5,-89 220.5,-89 217.5,-89 214.5,-86 214.5,-83 214.5,-83 214.5,-77 214.5,-77 214.5,-74 217.5,-71 220.5,-71 220.5,-71 262.5,-71 262.5,-71 265.5,-71 268.5,-74 268.5,-77 268.5,-77 268.5,-83 268.5,-83 268.5,-86 265.5,-89 262.5,-89"/>
<text text-anchor="middle" x="241.5" y="-77.8" font-family="Helvetica,sans-Serif" font-size="9.00" fill="#000000">utils.js</text>
</a>
</g>
</g>
<!-- src/index.js&#45;&gt;src/utils.js -->
<g id="edge5" class="edge">
<title>src/index.js&#45;&gt;src/utils.js</title>
<path fill="none" stroke="#000000" stroke-width="2" stroke-opacity="0.466667" d="M62.9489,-77.9183C69.2319,-75.4971 76.2862,-73.2175 83,-72 124.0975,-64.5476 172.1013,-68.7265 204.421,-73.3747"/>
<polygon fill="#000000" fill-opacity="0.466667" stroke="#000000" stroke-width="2" stroke-opacity="0.466667" points="203.9213,-76.8389 214.3346,-74.8862 204.9764,-69.9189 203.9213,-76.8389"/>
</g>
<!-- src/notion&#45;utils.js -->
<g id="node4" class="node">
<title>src/notion&#45;utils.js</title>
<g id="a_node4"><a xlink:href="https://github.com/dragonman225/notablog/tree/master/src/notion-utils.js" xlink:title="notion&#45;utils.js">
<path fill="#ffffcc" stroke="#000000" d="M274,-52C274,-52 209,-52 209,-52 206,-52 203,-49 203,-46 203,-46 203,-40 203,-40 203,-37 206,-34 209,-34 209,-34 274,-34 274,-34 277,-34 280,-37 280,-40 280,-40 280,-46 280,-46 280,-49 277,-52 274,-52"/>
<text text-anchor="middle" x="241.5" y="-40.8" font-family="Helvetica,sans-Serif" font-size="9.00" fill="#000000">notion&#45;utils.js</text>
</a>
</g>
</g>
<!-- src/parse&#45;table.js&#45;&gt;src/notion&#45;utils.js -->
<g id="edge8" class="edge">
<title>src/parse&#45;table.js&#45;&gt;src/notion&#45;utils.js</title>
<path fill="none" stroke="#000000" stroke-width="2" stroke-opacity="0.466667" d="M175.5981,-43C181.1373,-43 186.8897,-43 192.5856,-43"/>
<polygon fill="#000000" fill-opacity="0.466667" stroke="#000000" stroke-width="2" stroke-opacity="0.466667" points="192.7189,-46.5001 202.7188,-43 192.7188,-39.5001 192.7189,-46.5001"/>
</g>
<!-- src/parse&#45;table.js&#45;&gt;src/utils.js -->
<g id="edge9" class="edge">
<title>src/parse&#45;table.js&#45;&gt;src/utils.js</title>
<path fill="none" stroke="#000000" stroke-width="2" stroke-opacity="0.466667" d="M163.769,-52.0055C172.1963,-54.8339 181.4973,-58.0019 190,-61 195.7577,-63.0302 201.8588,-65.2342 207.7709,-67.3977"/>
<polygon fill="#000000" fill-opacity="0.466667" stroke="#000000" stroke-width="2" stroke-opacity="0.466667" points="206.8545,-70.7901 217.448,-70.963 209.2745,-64.2217 206.8545,-70.7901"/>
</g>
<!-- src/render&#45;index.js&#45;&gt;fs -->
<g id="edge11" class="edge">
<title>src/render&#45;index.js&#45;&gt;fs</title>
<path fill="none" stroke="#c0c0c0" d="M178.6858,-124.026C182.8868,-126.0657 186.7801,-128.6726 190,-132 206.8663,-149.4291 186.8028,-166.9474 203,-185 203.76,-185.847 204.5753,-186.6428 205.4362,-187.3905"/>
<polygon fill="#c0c0c0" stroke="#c0c0c0" points="203.8241,-190.5124 214.1453,-192.9048 207.5687,-184.5982 203.8241,-190.5124"/>
</g>
<!-- src/render&#45;index.js&#45;&gt;path -->
<g id="edge12" class="edge">
<title>src/render&#45;index.js&#45;&gt;path</title>
<path fill="none" stroke="#c0c0c0" d="M178.6856,-110.3454C182.9409,-108.2443 186.847,-105.5214 190,-102 213.7365,-75.4906 180.2797,-50.3854 203,-23 203.843,-21.9839 204.7661,-21.0416 205.7534,-20.1677"/>
<polygon fill="#c0c0c0" stroke="#c0c0c0" points="207.7557,-23.0421 214.3105,-14.7182 203.9956,-17.1377 207.7557,-23.0421"/>
</g>
<!-- src/render&#45;index.js&#45;&gt;src/utils.js -->
<g id="edge10" class="edge">
<title>src/render&#45;index.js&#45;&gt;src/utils.js</title>
<path fill="none" stroke="#000000" stroke-width="2" stroke-opacity="0.466667" d="M171.2417,-107.971C177.53,-106.1356 183.9948,-104.1144 190,-102 197.3137,-99.4249 205.0685,-96.3192 212.2799,-93.2634"/>
<polygon fill="#000000" fill-opacity="0.466667" stroke="#000000" stroke-width="2" stroke-opacity="0.466667" points="213.9044,-96.3738 221.6842,-89.1817 211.1174,-89.9525 213.9044,-96.3738"/>
</g>
<!-- src/render&#45;post.js&#45;&gt;fs -->
<g id="edge14" class="edge">
<title>src/render&#45;post.js&#45;&gt;fs</title>
<path fill="none" stroke="#c0c0c0" d="M175.5319,-92.1939C181.0084,-94.4469 186.0918,-97.6011 190,-102 214.7997,-129.9132 179.2702,-156.1717 203,-185 203.839,-186.0193 204.7588,-186.9644 205.7432,-187.8407"/>
<polygon fill="#c0c0c0" stroke="#c0c0c0" points="203.9763,-190.8651 214.2873,-193.3009 207.7457,-184.9667 203.9763,-190.8651"/>
</g>
<!-- src/render&#45;post.js&#45;&gt;path -->
<g id="edge15" class="edge">
<title>src/render&#45;post.js&#45;&gt;path</title>
<path fill="none" stroke="#c0c0c0" d="M161.6953,-77.8977C171.6318,-73.2449 182.4513,-66.6966 190,-58 200.8774,-45.4685 191.2261,-34.6933 203,-23 203.8074,-22.1981 204.6643,-21.4418 205.5613,-20.7284"/>
<polygon fill="#c0c0c0" stroke="#c0c0c0" points="207.6821,-23.5382 214.4657,-15.3997 204.0875,-17.5316 207.6821,-23.5382"/>
</g>
<!-- src/render&#45;post.js&#45;&gt;src/utils.js -->
<g id="edge13" class="edge">
<title>src/render&#45;post.js&#45;&gt;src/utils.js</title>
<path fill="none" stroke="#000000" stroke-width="2" stroke-opacity="0.466667" d="M175.5981,-84.3935C185.0028,-83.7665 195.0224,-83.0985 204.3361,-82.4776"/>
<polygon fill="#000000" fill-opacity="0.466667" stroke="#000000" stroke-width="2" stroke-opacity="0.466667" points="204.7362,-85.9588 214.4812,-81.8013 204.2705,-78.9743 204.7362,-85.9588"/>
</g>
<!-- src/template&#45;provider.js&#45;&gt;fs -->
<g id="edge16" class="edge">
<title>src/template&#45;provider.js&#45;&gt;fs</title>
<path fill="none" stroke="#c0c0c0" d="M152.9888,-156.0198C163.6164,-161.889 177.698,-169.7696 190,-177 195.8488,-180.4375 196.8919,-182.0478 203,-185 203.6724,-185.325 204.3544,-185.6468 205.044,-185.9653"/>
<polygon fill="#c0c0c0" stroke="#c0c0c0" points="203.7144,-189.2031 214.287,-189.8902 206.4505,-182.76 203.7144,-189.2031"/>
</g>
<!-- src/template&#45;provider.js&#45;&gt;path -->
<g id="edge17" class="edge">
<title>src/template&#45;provider.js&#45;&gt;path</title>
<path fill="none" stroke="#c0c0c0" d="M183.5675,-137.7094C185.9422,-136.0873 188.1179,-134.1983 190,-132 221.7302,-94.94 172.6895,-61.2298 203,-23 203.8202,-21.9655 204.7239,-21.0074 205.6946,-20.1201"/>
<polygon fill="#c0c0c0" stroke="#c0c0c0" points="207.6976,-22.9926 214.1768,-14.6098 203.8842,-17.1225 207.6976,-22.9926"/>
</g>
</g>
</svg>
