<?xml version="1.0" encoding="UTF-8" standalone="no"?>
<!DOCTYPE svg PUBLIC "-//W3C//DTD SVG 1.1//EN"
 "http://www.w3.org/Graphics/SVG/1.1/DTD/svg11.dtd">
<!-- Generated by graphviz version 2.43.20190912.0211 (20190912.0211)
 -->
<!-- Title: dependency&#45;cruiser output Pages: 1 -->
<svg width="303pt" height="216pt"
 viewBox="0.00 0.00 303.00 216.00" xmlns="http://www.w3.org/2000/svg" xmlns:xlink="http://www.w3.org/1999/xlink">
<g id="graph0" class="graph" transform="scale(1 1) rotate(0) translate(4 212)">
<title>dependency&#45;cruiser output</title>
<polygon fill="white" stroke="transparent" points="-4,4 -4,-212 299,-212 299,4 -4,4"/>
<g id="clust1" class="cluster">
<title>cluster_src</title>
<path fill="#ffffff" stroke="black" stroke-width="2" d="M20,-26C20,-26 275,-26 275,-26 281,-26 287,-32 287,-38 287,-38 287,-170 287,-170 287,-176 281,-182 275,-182 275,-182 20,-182 20,-182 14,-182 8,-176 8,-170 8,-170 8,-38 8,-38 8,-32 14,-26 20,-26"/>
<text text-anchor="middle" x="147.5" y="-170.8" font-family="Helvetica,sans-Serif" font-weight="bold" font-size="9.00">src</text>
</g>
<!-- fs -->
<g id="node1" class="node">
<title>fs</title>
<path fill="#ffffcc" stroke="grey" d="M261.5,-208C261.5,-208 219.5,-208 219.5,-208 216.5,-208 213.5,-205 213.5,-202 213.5,-202 213.5,-196 213.5,-196 213.5,-193 216.5,-190 219.5,-190 219.5,-190 261.5,-190 261.5,-190 264.5,-190 267.5,-193 267.5,-196 267.5,-196 267.5,-202 267.5,-202 267.5,-205 264.5,-208 261.5,-208"/>
<text text-anchor="middle" x="240.5" y="-196.8" font-family="Helvetica,sans-Serif" font-size="9.00" fill="grey">fs</text>
</g>
<!-- path -->
<g id="node2" class="node">
<title>path</title>
<path fill="#ffffcc" stroke="grey" d="M261.5,-18C261.5,-18 219.5,-18 219.5,-18 216.5,-18 213.5,-15 213.5,-12 213.5,-12 213.5,-6 213.5,-6 213.5,-3 216.5,0 219.5,0 219.5,0 261.5,0 261.5,0 264.5,0 267.5,-3 267.5,-6 267.5,-6 267.5,-12 267.5,-12 267.5,-15 264.5,-18 261.5,-18"/>
<text text-anchor="middle" x="240.5" y="-6.8" font-family="Helvetica,sans-Serif" font-size="9.00" fill="grey">path</text>
</g>
<!-- src/index.js -->
<g id="node3" class="node">
<title>src/index.js</title>
<g id="a_node3"><a xlink:href="https://github.com/dragonman225/notablog/tree/master/src/index.js" xlink:title="index.js">
<path fill="#ffffcc" stroke="black" d="M64,-96C64,-96 22,-96 22,-96 19,-96 16,-93 16,-90 16,-90 16,-84 16,-84 16,-81 19,-78 22,-78 22,-78 64,-78 64,-78 67,-78 70,-81 70,-84 70,-84 70,-90 70,-90 70,-93 67,-96 64,-96"/>
<text text-anchor="middle" x="43" y="-84.8" font-family="Helvetica,sans-Serif" font-size="9.00">index.js</text>
</a>
</g>
</g>
<!-- src/index.js&#45;&gt;fs -->
<g id="edge6" class="edge">
<title>src/index.js&#45;&gt;fs</title>
<path fill="none" stroke="grey" d="M46.12,-96.22C50.29,-112.2 61.12,-144.96 83,-162 117.73,-189.05 169.06,-196.82 203.35,-198.79"/>
<polygon fill="grey" stroke="grey" points="203.27,-202.29 213.41,-199.23 203.58,-195.3 203.27,-202.29"/>
</g>
<!-- src/index.js&#45;&gt;path -->
<g id="edge7" class="edge">
<title>src/index.js&#45;&gt;path</title>
<path fill="none" stroke="grey" d="M47.3,-77.56C52.56,-64.07 64.2,-39.62 83,-28 119.24,-5.6 169.26,-3.41 202.92,-5.14"/>
<polygon fill="grey" stroke="grey" points="203.02,-8.66 213.23,-5.82 203.48,-1.67 203.02,-8.66"/>
</g>
<!-- src/parse&#45;table.js -->
<g id="node5" class="node">
<title>src/parse&#45;table.js</title>
<g id="a_node5"><a xlink:href="https://github.com/dragonman225/notablog/tree/master/src/parse-table.js" xlink:title="parse&#45;table.js">
<path fill="#ffffcc" stroke="black" d="M168.5,-52C168.5,-52 103.5,-52 103.5,-52 100.5,-52 97.5,-49 97.5,-46 97.5,-46 97.5,-40 97.5,-40 97.5,-37 100.5,-34 103.5,-34 103.5,-34 168.5,-34 168.5,-34 171.5,-34 174.5,-37 174.5,-40 174.5,-40 174.5,-46 174.5,-46 174.5,-49 171.5,-52 168.5,-52"/>
<text text-anchor="middle" x="136" y="-40.8" font-family="Helvetica,sans-Serif" font-size="9.00">parse&#45;table.js</text>
</a>
</g>
</g>
<!-- src/index.js&#45;&gt;src/parse&#45;table.js -->
<g id="edge1" class="edge">
<title>src/index.js&#45;&gt;src/parse&#45;table.js</title>
<path fill="none" stroke="#000000" stroke-width="2" stroke-opacity="0.200000" d="M55.81,-77.97C63.31,-72.54 73.38,-65.77 83,-61 86.85,-59.09 90.95,-57.29 95.1,-55.63"/>
<polygon fill="#000000" fill-opacity="0.200000" stroke="#000000" stroke-width="2" stroke-opacity="0.200000" points="96.63,-58.8 104.77,-52.01 94.18,-52.24 96.63,-58.8"/>
</g>
<!-- src/render&#45;index.js -->
<g id="node6" class="node">
<title>src/render&#45;index.js</title>
<g id="a_node6"><a xlink:href="https://github.com/dragonman225/notablog/tree/master/src/render-index.js" xlink:title="render&#45;index.js">
<path fill="#ffffcc" stroke="black" d="M172,-126C172,-126 100,-126 100,-126 97,-126 94,-123 94,-120 94,-120 94,-114 94,-114 94,-111 97,-108 100,-108 100,-108 172,-108 172,-108 175,-108 178,-111 178,-114 178,-114 178,-120 178,-120 178,-123 175,-126 172,-126"/>
<text text-anchor="middle" x="136" y="-114.8" font-family="Helvetica,sans-Serif" font-size="9.00">render&#45;index.js</text>
</a>
</g>
</g>
<!-- src/index.js&#45;&gt;src/render&#45;index.js -->
<g id="edge2" class="edge">
<title>src/index.js&#45;&gt;src/render&#45;index.js</title>
<path fill="none" stroke="#000000" stroke-width="2" stroke-opacity="0.200000" d="M66.56,-96.06C71.92,-98.1 77.64,-100.2 83,-102 86.07,-103.03 89.26,-104.06 92.48,-105.06"/>
<polygon fill="#000000" fill-opacity="0.200000" stroke="#000000" stroke-width="2" stroke-opacity="0.200000" points="91.55,-108.44 102.13,-107.99 93.58,-101.74 91.55,-108.44"/>
</g>
<!-- src/render&#45;post.js -->
<g id="node7" class="node">
<title>src/render&#45;post.js</title>
<g id="a_node7"><a xlink:href="https://github.com/dragonman225/notablog/tree/master/src/render-post.js" xlink:title="render&#45;post.js">
<path fill="#ffffcc" stroke="black" d="M169.5,-96C169.5,-96 102.5,-96 102.5,-96 99.5,-96 96.5,-93 96.5,-90 96.5,-90 96.5,-84 96.5,-84 96.5,-81 99.5,-78 102.5,-78 102.5,-78 169.5,-78 169.5,-78 172.5,-78 175.5,-81 175.5,-84 175.5,-84 175.5,-90 175.5,-90 175.5,-93 172.5,-96 169.5,-96"/>
<text text-anchor="middle" x="136" y="-84.8" font-family="Helvetica,sans-Serif" font-size="9.00">render&#45;post.js</text>
</a>
</g>
</g>
<!-- src/index.js&#45;&gt;src/render&#45;post.js -->
<g id="edge3" class="edge">
<title>src/index.js&#45;&gt;src/render&#45;post.js</title>
<path fill="none" stroke="#000000" stroke-width="2" stroke-opacity="0.200000" d="M70.32,-87C75.25,-87 80.54,-87 85.9,-87"/>
<polygon fill="#000000" fill-opacity="0.200000" stroke="#000000" stroke-width="2" stroke-opacity="0.200000" points="86.21,-90.5 96.21,-87 86.21,-83.5 86.21,-90.5"/>
</g>
<!-- src/template&#45;provider.js -->
<g id="node8" class="node">
<title>src/template&#45;provider.js</title>
<g id="a_node8"><a xlink:href="https://github.com/dragonman225/notablog/tree/master/src/template-provider.js" xlink:title="template&#45;provider.js">
<path fill="#ffffcc" stroke="black" d="M183,-156C183,-156 89,-156 89,-156 86,-156 83,-153 83,-150 83,-150 83,-144 83,-144 83,-141 86,-138 89,-138 89,-138 183,-138 183,-138 186,-138 189,-141 189,-144 189,-144 189,-150 189,-150 189,-153 186,-156 183,-156"/>
<text text-anchor="middle" x="136" y="-144.8" font-family="Helvetica,sans-Serif" font-size="9.00">template&#45;provider.js</text>
</a>
</g>
</g>
<!-- src/index.js&#45;&gt;src/template&#45;provider.js -->
<g id="edge4" class="edge">
<title>src/index.js&#45;&gt;src/template&#45;provider.js</title>
<path fill="none" stroke="#000000" stroke-width="2" stroke-opacity="0.200000" d="M49.71,-96.35C56.43,-106.58 68.54,-122.76 83,-132 83.8,-132.51 84.61,-133 85.44,-133.48"/>
<polygon fill="#000000" fill-opacity="0.200000" stroke="#000000" stroke-width="2" stroke-opacity="0.200000" points="84.26,-136.79 94.79,-137.98 87.29,-130.49 84.26,-136.79"/>
</g>
<!-- src/utils.js -->
<g id="node9" class="node">
<title>src/utils.js</title>
<g id="a_node9"><a xlink:href="https://github.com/dragonman225/notablog/tree/master/src/utils.js" xlink:title="utils.js">
<path fill="#ffffcc" stroke="black" d="M261.5,-89C261.5,-89 219.5,-89 219.5,-89 216.5,-89 213.5,-86 213.5,-83 213.5,-83 213.5,-77 213.5,-77 213.5,-74 216.5,-71 219.5,-71 219.5,-71 261.5,-71 261.5,-71 264.5,-71 267.5,-74 267.5,-77 267.5,-77 267.5,-83 267.5,-83 267.5,-86 264.5,-89 261.5,-89"/>
<text text-anchor="middle" x="240.5" y="-77.8" font-family="Helvetica,sans-Serif" font-size="9.00">utils.js</text>
</a>
</g>
</g>
<!-- src/index.js&#45;&gt;src/utils.js -->
<g id="edge5" class="edge">
<title>src/index.js&#45;&gt;src/utils.js</title>
<path fill="none" stroke="#000000" stroke-width="2" stroke-opacity="0.200000" d="M63.43,-77.92C69.56,-75.5 76.44,-73.22 83,-72 123.61,-64.46 171.1,-68.68 203.03,-73.36"/>
<polygon fill="#000000" fill-opacity="0.200000" stroke="#000000" stroke-width="2" stroke-opacity="0.200000" points="202.8,-76.87 213.22,-74.95 203.88,-69.95 202.8,-76.87"/>
</g>
<!-- src/notion&#45;utils.js -->
<g id="node4" class="node">
<title>src/notion&#45;utils.js</title>
<g id="a_node4"><a xlink:href="https://github.com/dragonman225/notablog/tree/master/src/notion-utils.js" xlink:title="notion&#45;utils.js">
<path fill="#ffffcc" stroke="black" d="M273,-52C273,-52 208,-52 208,-52 205,-52 202,-49 202,-46 202,-46 202,-40 202,-40 202,-37 205,-34 208,-34 208,-34 273,-34 273,-34 276,-34 279,-37 279,-40 279,-40 279,-46 279,-46 279,-49 276,-52 273,-52"/>
<text text-anchor="middle" x="240.5" y="-40.8" font-family="Helvetica,sans-Serif" font-size="9.00">notion&#45;utils.js</text>
</a>
</g>
</g>
<!-- src/parse&#45;table.js&#45;&gt;src/notion&#45;utils.js -->
<g id="edge8" class="edge">
<title>src/parse&#45;table.js&#45;&gt;src/notion&#45;utils.js</title>
<path fill="none" stroke="#000000" stroke-width="2" stroke-opacity="0.200000" d="M174.59,-43C180.16,-43 185.96,-43 191.7,-43"/>
<polygon fill="#000000" fill-opacity="0.200000" stroke="#000000" stroke-width="2" stroke-opacity="0.200000" points="191.92,-46.5 201.92,-43 191.92,-39.5 191.92,-46.5"/>
</g>
<!-- src/parse&#45;table.js&#45;&gt;src/utils.js -->
<g id="edge9" class="edge">
<title>src/parse&#45;table.js&#45;&gt;src/utils.js</title>
<path fill="none" stroke="#000000" stroke-width="2" stroke-opacity="0.200000" d="M163.5,-52.02C171.69,-54.85 180.73,-58.01 189,-61 194.64,-63.04 200.63,-65.25 206.42,-67.41"/>
<polygon fill="#000000" fill-opacity="0.200000" stroke="#000000" stroke-width="2" stroke-opacity="0.200000" points="205.32,-70.74 215.91,-70.98 207.78,-64.18 205.32,-70.74"/>
</g>
<!-- src/render&#45;index.js&#45;&gt;fs -->
<g id="edge11" class="edge">
<title>src/render&#45;index.js&#45;&gt;fs</title>
<path fill="none" stroke="grey" d="M178.01,-124.17C182.1,-126.19 185.88,-128.75 189,-132 205.8,-149.49 185.88,-166.88 202,-185 202.76,-185.86 203.58,-186.66 204.45,-187.42"/>
<polygon fill="grey" stroke="grey" points="202.91,-190.58 213.23,-192.97 206.65,-184.67 202.91,-190.58"/>
</g>
<!-- src/render&#45;index.js&#45;&gt;path -->
<g id="edge12" class="edge">
<title>src/render&#45;index.js&#45;&gt;path</title>
<path fill="none" stroke="grey" d="M178.02,-110.19C182.15,-108.11 185.94,-105.44 189,-102 212.64,-75.4 179.4,-50.48 202,-23 202.84,-21.97 203.77,-21.02 204.77,-20.14"/>
<polygon fill="grey" stroke="grey" points="206.83,-22.98 213.39,-14.66 203.07,-17.07 206.83,-22.98"/>
</g>
<!-- src/render&#45;index.js&#45;&gt;src/utils.js -->
<g id="edge10" class="edge">
<title>src/render&#45;index.js&#45;&gt;src/utils.js</title>
<path fill="none" stroke="#000000" stroke-width="2" stroke-opacity="0.200000" d="M170.77,-107.95C176.88,-106.12 183.17,-104.1 189,-102 196.18,-99.41 203.78,-96.31 210.85,-93.25"/>
<polygon fill="#000000" fill-opacity="0.200000" stroke="#000000" stroke-width="2" stroke-opacity="0.200000" points="212.34,-96.42 220.07,-89.17 209.51,-90.01 212.34,-96.42"/>
</g>
<!-- src/render&#45;post.js&#45;&gt;fs -->
<g id="edge14" class="edge">
<title>src/render&#45;post.js&#45;&gt;fs</title>
<path fill="none" stroke="grey" d="M175.73,-92.7C180.76,-94.91 185.4,-97.91 189,-102 213.7,-130.01 178.39,-156.07 202,-185 202.84,-186.03 203.76,-186.98 204.75,-187.87"/>
<polygon fill="grey" stroke="grey" points="203.05,-190.93 213.37,-193.36 206.82,-185.03 203.05,-190.93"/>
</g>
<!-- src/render&#45;post.js&#45;&gt;path -->
<g id="edge15" class="edge">
<title>src/render&#45;post.js&#45;&gt;path</title>
<path fill="none" stroke="grey" d="M161.23,-77.88C170.96,-73.2 181.6,-66.63 189,-58 199.8,-45.4 190.28,-34.74 202,-23 202.79,-22.21 203.62,-21.47 204.49,-20.77"/>
<polygon fill="grey" stroke="grey" points="206.43,-23.68 213.16,-15.5 202.8,-17.7 206.43,-23.68"/>
</g>
<!-- src/render&#45;post.js&#45;&gt;src/utils.js -->
<g id="edge13" class="edge">
<title>src/render&#45;post.js&#45;&gt;src/utils.js</title>
<path fill="none" stroke="#000000" stroke-width="2" stroke-opacity="0.200000" d="M175.75,-84.35C184.8,-83.74 194.4,-83.08 203.32,-82.47"/>
<polygon fill="#000000" fill-opacity="0.200000" stroke="#000000" stroke-width="2" stroke-opacity="0.200000" points="203.69,-85.95 213.43,-81.78 203.21,-78.97 203.69,-85.95"/>
</g>
<!-- src/template&#45;provider.js&#45;&gt;fs -->
<g id="edge16" class="edge">
<title>src/template&#45;provider.js&#45;&gt;fs</title>
<path fill="none" stroke="grey" d="M153,-156.07C163.32,-161.97 177,-169.85 189,-177 194.83,-180.47 195.9,-182.02 202,-185 202.68,-185.33 203.37,-185.66 204.06,-185.99"/>
<polygon fill="grey" stroke="grey" points="202.83,-189.27 213.4,-190.01 205.6,-182.84 202.83,-189.27"/>
</g>
<!-- src/template&#45;provider.js&#45;&gt;path -->
<g id="edge17" class="edge">
<title>src/template&#45;provider.js&#45;&gt;path</title>
<path fill="none" stroke="grey" d="M182.29,-137.91C184.78,-136.24 187.05,-134.29 189,-132 220.59,-94.82 171.85,-61.36 202,-23 202.82,-21.96 203.73,-20.99 204.71,-20.09"/>
<polygon fill="grey" stroke="grey" points="206.77,-22.93 213.26,-14.55 202.96,-17.05 206.77,-22.93"/>
</g>
</g>
</svg>
