<?xml version="1.0" encoding="UTF-8" standalone="no"?>
<!DOCTYPE svg PUBLIC "-//W3C//DTD SVG 1.1//EN"
 "http://www.w3.org/Graphics/SVG/1.1/DTD/svg11.dtd">
<!-- Generated by graphviz version 2.47.3 (0)
 -->
<!-- Title: dependency&#45;cruiser output Pages: 1 -->
<svg width="440pt" height="438pt"
 viewBox="0.00 0.00 440.00 437.94" xmlns="http://www.w3.org/2000/svg" xmlns:xlink="http://www.w3.org/1999/xlink">
<g id="graph0" class="graph" transform="scale(1 1) rotate(0) translate(4 433.94)">
<title>dependency&#45;cruiser output</title>
<polygon fill="white" stroke="transparent" points="-4,4 -4,-433.94 436,-433.94 436,4 -4,4"/>
<g id="clust1" class="cluster">
<title>cluster_src</title>
<path fill="#ffffff" stroke="black" stroke-width="2" d="M20,-63.48C20,-63.48 358,-63.48 358,-63.48 364,-63.48 370,-69.48 370,-75.48 370,-75.48 370,-295.48 370,-295.48 370,-301.48 364,-307.48 358,-307.48 358,-307.48 20,-307.48 20,-307.48 14,-307.48 8,-301.48 8,-295.48 8,-295.48 8,-75.48 8,-75.48 8,-69.48 14,-63.48 20,-63.48"/>
<text text-anchor="middle" x="189" y="-296.28" font-family="Helvetica,sans-Serif" font-weight="bold" font-size="9.00">src</text>
</g>
<!-- child_process -->
<g id="node1" class="node">
<title>child_process</title>
<path fill="#ffffcc" stroke="grey" d="M250,-55.48C250,-55.48 185,-55.48 185,-55.48 182,-55.48 179,-52.48 179,-49.48 179,-49.48 179,-43.48 179,-43.48 179,-40.48 182,-37.48 185,-37.48 185,-37.48 250,-37.48 250,-37.48 253,-37.48 256,-40.48 256,-43.48 256,-43.48 256,-49.48 256,-49.48 256,-52.48 253,-55.48 250,-55.48"/>
<text text-anchor="middle" x="217.5" y="-44.28" font-family="Helvetica,sans-Serif" font-size="9.00" fill="grey">child_process</text>
</g>
<!-- crypto -->
<g id="node2" class="node">
<title>crypto</title>
<path fill="#ffffcc" stroke="grey" d="M344,-333.48C344,-333.48 302,-333.48 302,-333.48 299,-333.48 296,-330.48 296,-327.48 296,-327.48 296,-321.48 296,-321.48 296,-318.48 299,-315.48 302,-315.48 302,-315.48 344,-315.48 344,-315.48 347,-315.48 350,-318.48 350,-321.48 350,-321.48 350,-327.48 350,-327.48 350,-330.48 347,-333.48 344,-333.48"/>
<text text-anchor="middle" x="323" y="-322.28" font-family="Helvetica,sans-Serif" font-size="9.00" fill="grey">crypto</text>
</g>
<!-- fs -->
<g id="node3" class="node">
<title>fs</title>
<path fill="#ffffcc" stroke="grey" d="M426,-105.48C426,-105.48 384,-105.48 384,-105.48 381,-105.48 378,-102.48 378,-99.48 378,-99.48 378,-93.48 378,-93.48 378,-90.48 381,-87.48 384,-87.48 384,-87.48 426,-87.48 426,-87.48 429,-87.48 432,-90.48 432,-93.48 432,-93.48 432,-99.48 432,-99.48 432,-102.48 429,-105.48 426,-105.48"/>
<text text-anchor="middle" x="405" y="-94.28" font-family="Helvetica,sans-Serif" font-size="9.00" fill="grey">fs</text>
</g>
<!-- path -->
<g id="node4" class="node">
<title>path</title>
<path fill="#ffffcc" stroke="grey" d="M426,-295.48C426,-295.48 384,-295.48 384,-295.48 381,-295.48 378,-292.48 378,-289.48 378,-289.48 378,-283.48 378,-283.48 378,-280.48 381,-277.48 384,-277.48 384,-277.48 426,-277.48 426,-277.48 429,-277.48 432,-280.48 432,-283.48 432,-283.48 432,-289.48 432,-289.48 432,-292.48 429,-295.48 426,-295.48"/>
<text text-anchor="middle" x="405" y="-284.28" font-family="Helvetica,sans-Serif" font-size="9.00" fill="grey">path</text>
</g>
<!-- src/cache.ts -->
<g id="node5" class="node">
<title>src/cache.ts</title>
<g id="a_node5"><a xlink:href="https://github.com/dragonman225/notablog/tree/master/src/cache.ts" xlink:title="cache.ts">
<path fill="#ddfeff" stroke="black" d="M239,-267.48C239,-267.48 196,-267.48 196,-267.48 193,-267.48 190,-264.48 190,-261.48 190,-261.48 190,-255.48 190,-255.48 190,-252.48 193,-249.48 196,-249.48 196,-249.48 239,-249.48 239,-249.48 242,-249.48 245,-252.48 245,-255.48 245,-255.48 245,-261.48 245,-261.48 245,-264.48 242,-267.48 239,-267.48"/>
<text text-anchor="middle" x="217.5" y="-256.28" font-family="Helvetica,sans-Serif" font-size="9.00">cache.ts</text>
</a>
</g>
</g>
<!-- src/cache.ts&#45;&gt;crypto -->
<g id="edge2" class="edge">
<title>src/cache.ts&#45;&gt;crypto</title>
<path fill="none" stroke="#000000" stroke-dasharray="5,2" stroke-opacity="0.200000" d="M228,-267.65C240.15,-278.98 262.23,-298.25 284,-310.48 285.95,-311.58 288.01,-312.62 290.11,-313.61"/>
<polygon fill="#000000" fill-opacity="0.200000" stroke="#000000" stroke-opacity="0.200000" points="289.41,-315.59 295.75,-316.07 291.09,-311.74 289.41,-315.59"/>
</g>
<!-- src/cache.ts&#45;&gt;fs -->
<g id="edge3" class="edge">
<title>src/cache.ts&#45;&gt;fs</title>
<path fill="none" stroke="#000000" stroke-dasharray="5,2" stroke-opacity="0.200000" d="M245.13,-256.71C254.57,-254.72 264.46,-250.86 271,-243.48 295.47,-215.86 259.89,-189.42 284,-161.48 310.17,-131.15 336.33,-156.19 370,-134.48 379.55,-128.33 388.07,-118.79 394.2,-110.81"/>
<polygon fill="#000000" fill-opacity="0.200000" stroke="#000000" stroke-opacity="0.200000" points="396.17,-111.67 398.04,-105.6 392.79,-109.18 396.17,-111.67"/>
</g>
<!-- src/cache.ts&#45;&gt;path -->
<g id="edge4" class="edge">
<title>src/cache.ts&#45;&gt;path</title>
<path fill="none" stroke="#000000" stroke-dasharray="5,2" stroke-opacity="0.200000" d="M222.46,-267.5C230.83,-285.25 252.17,-324.29 284,-339.48 318.49,-355.95 336.46,-357.82 370,-339.48 384.67,-331.46 393.95,-314.11 399.04,-301.43"/>
<polygon fill="#000000" fill-opacity="0.200000" stroke="#000000" stroke-opacity="0.200000" points="401.07,-302 401.21,-295.65 397.14,-300.53 401.07,-302"/>
</g>
<!-- src/utils.ts -->
<g id="node6" class="node">
<title>src/utils.ts</title>
<g id="a_node6"><a xlink:href="https://github.com/dragonman225/notablog/tree/master/src/utils.ts" xlink:title="utils.ts">
<path fill="#ddfeff" stroke="black" d="M344,-215.48C344,-215.48 302,-215.48 302,-215.48 299,-215.48 296,-212.48 296,-209.48 296,-209.48 296,-203.48 296,-203.48 296,-200.48 299,-197.48 302,-197.48 302,-197.48 344,-197.48 344,-197.48 347,-197.48 350,-200.48 350,-203.48 350,-203.48 350,-209.48 350,-209.48 350,-212.48 347,-215.48 344,-215.48"/>
<text text-anchor="middle" x="323" y="-204.28" font-family="Helvetica,sans-Serif" font-size="9.00">utils.ts</text>
</a>
</g>
</g>
<!-- src/cache.ts&#45;&gt;src/utils.ts -->
<g id="edge1" class="edge">
<title>src/cache.ts&#45;&gt;src/utils.ts</title>
<path fill="none" stroke="#000000" stroke-width="2" stroke-opacity="0.200000" d="M245.07,-252.83C253.59,-250.51 262.9,-247.43 271,-243.48 284.07,-237.13 297.3,-227.4 307.02,-219.52"/>
<polygon fill="#000000" fill-opacity="0.200000" stroke="#000000" stroke-width="2" stroke-opacity="0.200000" points="308.48,-221.04 311.76,-215.59 305.8,-217.8 308.48,-221.04"/>
</g>
<!-- src/utils.ts&#45;&gt;fs -->
<g id="edge35" class="edge">
<title>src/utils.ts&#45;&gt;fs</title>
<path fill="none" stroke="#000000" stroke-dasharray="5,2" stroke-opacity="0.200000" d="M350.1,-202.39C357.28,-200.17 364.58,-196.75 370,-191.48 392.22,-169.89 399.96,-132.79 402.63,-111.92"/>
<polygon fill="#000000" fill-opacity="0.200000" stroke="#000000" stroke-opacity="0.200000" points="404.74,-111.95 403.33,-105.75 400.57,-111.48 404.74,-111.95"/>
</g>
<!-- src/utils.ts&#45;&gt;path -->
<g id="edge36" class="edge">
<title>src/utils.ts&#45;&gt;path</title>
<path fill="none" stroke="#000000" stroke-dasharray="5,2" stroke-opacity="0.200000" d="M350.11,-213.13C357.12,-215.82 364.33,-219.5 370,-224.48 384.39,-237.14 393.87,-257.41 399.08,-271.31"/>
<polygon fill="#000000" fill-opacity="0.200000" stroke="#000000" stroke-opacity="0.200000" points="397.19,-272.24 401.18,-277.19 401.14,-270.84 397.19,-272.24"/>
</g>
<!-- src/config.ts -->
<g id="node7" class="node">
<title>src/config.ts</title>
<g id="a_node7"><a xlink:href="https://github.com/dragonman225/notablog/tree/master/src/config.ts" xlink:title="config.ts">
<path fill="#ddfeff" stroke="black" d="M239.5,-103.48C239.5,-103.48 195.5,-103.48 195.5,-103.48 192.5,-103.48 189.5,-100.48 189.5,-97.48 189.5,-97.48 189.5,-91.48 189.5,-91.48 189.5,-88.48 192.5,-85.48 195.5,-85.48 195.5,-85.48 239.5,-85.48 239.5,-85.48 242.5,-85.48 245.5,-88.48 245.5,-91.48 245.5,-91.48 245.5,-97.48 245.5,-97.48 245.5,-100.48 242.5,-103.48 239.5,-103.48"/>
<text text-anchor="middle" x="217.5" y="-92.28" font-family="Helvetica,sans-Serif" font-size="9.00">config.ts</text>
</a>
</g>
</g>
<!-- src/config.ts&#45;&gt;fs -->
<g id="edge6" class="edge">
<title>src/config.ts&#45;&gt;fs</title>
<path fill="none" stroke="#000000" stroke-dasharray="5,2" stroke-opacity="0.200000" d="M231.3,-85.46C243.99,-77.11 264.33,-65.29 284,-60.48 321.13,-51.42 334.9,-45.36 370,-60.48 380.26,-64.91 388.87,-74.12 394.86,-82.12"/>
<polygon fill="#000000" fill-opacity="0.200000" stroke="#000000" stroke-opacity="0.200000" points="393.4,-83.7 398.57,-87.39 396.83,-81.28 393.4,-83.7"/>
</g>
<!-- src/config.ts&#45;&gt;src/utils.ts -->
<g id="edge5" class="edge">
<title>src/config.ts&#45;&gt;src/utils.ts</title>
<path fill="none" stroke="#000000" stroke-width="2" stroke-opacity="0.200000" d="M245.68,-96.38C254.95,-98.4 264.59,-102.25 271,-109.48 295.47,-137.11 260.91,-162.7 284,-191.48 285.84,-193.78 288.09,-195.73 290.56,-197.38"/>
<polygon fill="#000000" fill-opacity="0.200000" stroke="#000000" stroke-width="2" stroke-opacity="0.200000" points="289.63,-199.27 295.89,-200.37 291.68,-195.6 289.63,-199.27"/>
</g>
<!-- src/generate.ts -->
<g id="node8" class="node">
<title>src/generate.ts</title>
<g id="a_node8"><a xlink:href="https://github.com/dragonman225/notablog/tree/master/src/generate.ts" xlink:title="generate.ts">
<path fill="#ddfeff" stroke="black" d="M145,-174.48C145,-174.48 89,-174.48 89,-174.48 86,-174.48 83,-171.48 83,-168.48 83,-168.48 83,-162.48 83,-162.48 83,-159.48 86,-156.48 89,-156.48 89,-156.48 145,-156.48 145,-156.48 148,-156.48 151,-159.48 151,-162.48 151,-162.48 151,-168.48 151,-168.48 151,-171.48 148,-174.48 145,-174.48"/>
<text text-anchor="middle" x="117" y="-163.28" font-family="Helvetica,sans-Serif" font-size="9.00">generate.ts</text>
</a>
</g>
</g>
<!-- src/generate.ts&#45;&gt;fs -->
<g id="edge15" class="edge">
<title>src/generate.ts&#45;&gt;fs</title>
<path fill="none" stroke="#000000" stroke-dasharray="5,2" stroke-opacity="0.200000" d="M117.85,-156.25C118.02,-131.09 122.36,-61.21 164,-31.48 238.77,21.9 292.28,0.49 370,-48.48 382.54,-56.39 391.79,-70.75 397.45,-81.72"/>
<polygon fill="#000000" fill-opacity="0.200000" stroke="#000000" stroke-opacity="0.200000" points="395.7,-82.93 400.22,-87.4 399.47,-81.08 395.7,-82.93"/>
</g>
<!-- src/generate.ts&#45;&gt;path -->
<g id="edge16" class="edge">
<title>src/generate.ts&#45;&gt;path</title>
<path fill="none" stroke="#000000" stroke-dasharray="5,2" stroke-opacity="0.200000" d="M144.69,-174.52C147.09,-176.2 149.27,-178.17 151,-180.48 175.98,-213.92 142,-238.02 164,-273.48 198.04,-328.38 222.28,-336.41 284,-355.48 320.52,-366.77 337.54,-375.67 370,-355.48 388.82,-343.78 397.53,-318.25 401.33,-301.74"/>
<polygon fill="#000000" fill-opacity="0.200000" stroke="#000000" stroke-opacity="0.200000" points="403.42,-302 402.59,-295.7 399.31,-301.14 403.42,-302"/>
</g>
<!-- src/generate.ts&#45;&gt;src/cache.ts -->
<g id="edge7" class="edge">
<title>src/generate.ts&#45;&gt;src/cache.ts</title>
<path fill="none" stroke="#000000" stroke-width="2" stroke-opacity="0.200000" d="M144.54,-174.64C146.97,-176.29 149.19,-178.22 151,-180.48 168.84,-202.83 144.55,-222.53 164,-243.48 169.19,-249.08 176.3,-252.64 183.62,-254.89"/>
<polygon fill="#000000" fill-opacity="0.200000" stroke="#000000" stroke-width="2" stroke-opacity="0.200000" points="183.44,-257.01 189.77,-256.49 184.49,-252.94 183.44,-257.01"/>
</g>
<!-- src/generate.ts&#45;&gt;src/utils.ts -->
<g id="edge14" class="edge">
<title>src/generate.ts&#45;&gt;src/utils.ts</title>
<path fill="none" stroke="#000000" stroke-width="2" stroke-opacity="0.200000" d="M151.3,-168.63C192.89,-172.68 259.98,-179.66 271,-183.48 277.41,-185.71 277.93,-188.45 284,-191.48 286.35,-192.66 288.83,-193.81 291.33,-194.92"/>
<polygon fill="#000000" fill-opacity="0.200000" stroke="#000000" stroke-width="2" stroke-opacity="0.200000" points="290.85,-197 297.19,-197.42 292.5,-193.14 290.85,-197"/>
</g>
<!-- src/generate.ts&#45;&gt;src/config.ts -->
<g id="edge8" class="edge">
<title>src/generate.ts&#45;&gt;src/config.ts</title>
<path fill="none" stroke="#000000" stroke-width="2" stroke-opacity="0.200000" d="M122.99,-156.48C130.35,-144.05 145.28,-121.77 164,-109.48 169.76,-105.7 176.49,-102.86 183.17,-100.72"/>
<polygon fill="#000000" fill-opacity="0.200000" stroke="#000000" stroke-width="2" stroke-opacity="0.200000" points="184.08,-102.65 189.26,-98.96 182.91,-98.61 184.08,-102.65"/>
</g>
<!-- src/notion&#45;utils.ts -->
<g id="node9" class="node">
<title>src/notion&#45;utils.ts</title>
<g id="a_node9"><a xlink:href="https://github.com/dragonman225/notablog/tree/master/src/notion-utils.ts" xlink:title="notion&#45;utils.ts">
<path fill="#ddfeff" stroke="black" d="M356,-185.48C356,-185.48 290,-185.48 290,-185.48 287,-185.48 284,-182.48 284,-179.48 284,-179.48 284,-173.48 284,-173.48 284,-170.48 287,-167.48 290,-167.48 290,-167.48 356,-167.48 356,-167.48 359,-167.48 362,-170.48 362,-173.48 362,-173.48 362,-179.48 362,-179.48 362,-182.48 359,-185.48 356,-185.48"/>
<text text-anchor="middle" x="323" y="-174.28" font-family="Helvetica,sans-Serif" font-size="9.00">notion&#45;utils.ts</text>
</a>
</g>
</g>
<!-- src/generate.ts&#45;&gt;src/notion&#45;utils.ts -->
<g id="edge9" class="edge">
<title>src/generate.ts&#45;&gt;src/notion&#45;utils.ts</title>
<path fill="none" stroke="#000000" stroke-width="2" stroke-opacity="0.200000" d="M119.7,-156.34C123.69,-137.89 135.53,-96.54 164,-79.48 184.4,-67.26 250.65,-67.19 271,-79.48 300.65,-97.39 313.92,-138.88 319.11,-161.35"/>
<polygon fill="#000000" fill-opacity="0.200000" stroke="#000000" stroke-width="2" stroke-opacity="0.200000" points="317.1,-161.99 320.42,-167.42 321.21,-161.11 317.1,-161.99"/>
</g>
<!-- src/parse&#45;table.ts -->
<g id="node10" class="node">
<title>src/parse&#45;table.ts</title>
<g id="a_node10"><a xlink:href="https://github.com/dragonman225/notablog/tree/master/src/parse-table.ts" xlink:title="parse&#45;table.ts">
<path fill="#ddfeff" stroke="black" d="M250.5,-163.48C250.5,-163.48 184.5,-163.48 184.5,-163.48 181.5,-163.48 178.5,-160.48 178.5,-157.48 178.5,-157.48 178.5,-151.48 178.5,-151.48 178.5,-148.48 181.5,-145.48 184.5,-145.48 184.5,-145.48 250.5,-145.48 250.5,-145.48 253.5,-145.48 256.5,-148.48 256.5,-151.48 256.5,-151.48 256.5,-157.48 256.5,-157.48 256.5,-160.48 253.5,-163.48 250.5,-163.48"/>
<text text-anchor="middle" x="217.5" y="-152.28" font-family="Helvetica,sans-Serif" font-size="9.00">parse&#45;table.ts</text>
</a>
</g>
</g>
<!-- src/generate.ts&#45;&gt;src/parse&#45;table.ts -->
<g id="edge10" class="edge">
<title>src/generate.ts&#45;&gt;src/parse&#45;table.ts</title>
<path fill="none" stroke="#000000" stroke-width="2" stroke-opacity="0.200000" d="M151.07,-161.79C157.75,-161.05 164.87,-160.25 171.87,-159.47"/>
<polygon fill="#000000" fill-opacity="0.200000" stroke="#000000" stroke-width="2" stroke-opacity="0.200000" points="172.51,-161.51 178.24,-158.76 172.04,-157.34 172.51,-161.51"/>
</g>
<!-- src/render&#45;index.ts -->
<g id="node11" class="node">
<title>src/render&#45;index.ts</title>
<g id="a_node11"><a xlink:href="https://github.com/dragonman225/notablog/tree/master/src/render-index.ts" xlink:title="render&#45;index.ts">
<path fill="#ddfeff" stroke="black" d="M254.5,-207.48C254.5,-207.48 180.5,-207.48 180.5,-207.48 177.5,-207.48 174.5,-204.48 174.5,-201.48 174.5,-201.48 174.5,-195.48 174.5,-195.48 174.5,-192.48 177.5,-189.48 180.5,-189.48 180.5,-189.48 254.5,-189.48 254.5,-189.48 257.5,-189.48 260.5,-192.48 260.5,-195.48 260.5,-195.48 260.5,-201.48 260.5,-201.48 260.5,-204.48 257.5,-207.48 254.5,-207.48"/>
<text text-anchor="middle" x="217.5" y="-196.28" font-family="Helvetica,sans-Serif" font-size="9.00">render&#45;index.ts</text>
</a>
</g>
</g>
<!-- src/generate.ts&#45;&gt;src/render&#45;index.ts -->
<g id="edge11" class="edge">
<title>src/generate.ts&#45;&gt;src/render&#45;index.ts</title>
<path fill="none" stroke="#000000" stroke-width="2" stroke-opacity="0.200000" d="M144.92,-174.5C156.86,-178.5 171.03,-183.25 183.59,-187.46"/>
<polygon fill="#000000" fill-opacity="0.200000" stroke="#000000" stroke-width="2" stroke-opacity="0.200000" points="183.26,-189.56 189.62,-189.48 184.59,-185.58 183.26,-189.56"/>
</g>
<!-- src/render&#45;post.ts -->
<g id="node12" class="node">
<title>src/render&#45;post.ts</title>
<g id="a_node12"><a xlink:href="https://github.com/dragonman225/notablog/tree/master/src/render-post.ts" xlink:title="render&#45;post.ts">
<path fill="#ddfeff" stroke="black" d="M251.5,-133.48C251.5,-133.48 183.5,-133.48 183.5,-133.48 180.5,-133.48 177.5,-130.48 177.5,-127.48 177.5,-127.48 177.5,-121.48 177.5,-121.48 177.5,-118.48 180.5,-115.48 183.5,-115.48 183.5,-115.48 251.5,-115.48 251.5,-115.48 254.5,-115.48 257.5,-118.48 257.5,-121.48 257.5,-121.48 257.5,-127.48 257.5,-127.48 257.5,-130.48 254.5,-133.48 251.5,-133.48"/>
<text text-anchor="middle" x="217.5" y="-122.28" font-family="Helvetica,sans-Serif" font-size="9.00">render&#45;post.ts</text>
</a>
</g>
</g>
<!-- src/generate.ts&#45;&gt;src/render&#45;post.ts -->
<g id="edge12" class="edge">
<title>src/generate.ts&#45;&gt;src/render&#45;post.ts</title>
<path fill="none" stroke="#000000" stroke-width="2" stroke-opacity="0.200000" d="M132.06,-156.38C140.95,-150.93 152.83,-144.16 164,-139.48 167.44,-138.04 171.07,-136.69 174.74,-135.43"/>
<polygon fill="#000000" fill-opacity="0.200000" stroke="#000000" stroke-width="2" stroke-opacity="0.200000" points="175.48,-137.4 180.53,-133.54 174.17,-133.41 175.48,-137.4"/>
</g>
<!-- src/template&#45;provider.ts -->
<g id="node13" class="node">
<title>src/template&#45;provider.ts</title>
<g id="a_node13"><a xlink:href="https://github.com/dragonman225/notablog/tree/master/src/template-provider.ts" xlink:title="template&#45;provider.ts">
<path fill="#ddfeff" stroke="black" d="M265,-237.48C265,-237.48 170,-237.48 170,-237.48 167,-237.48 164,-234.48 164,-231.48 164,-231.48 164,-225.48 164,-225.48 164,-222.48 167,-219.48 170,-219.48 170,-219.48 265,-219.48 265,-219.48 268,-219.48 271,-222.48 271,-225.48 271,-225.48 271,-231.48 271,-231.48 271,-234.48 268,-237.48 265,-237.48"/>
<text text-anchor="middle" x="217.5" y="-226.28" font-family="Helvetica,sans-Serif" font-size="9.00">template&#45;provider.ts</text>
</a>
</g>
</g>
<!-- src/generate.ts&#45;&gt;src/template&#45;provider.ts -->
<g id="edge13" class="edge">
<title>src/generate.ts&#45;&gt;src/template&#45;provider.ts</title>
<path fill="none" stroke="#000000" stroke-width="2" stroke-opacity="0.200000" d="M143.51,-174.56C146.25,-176.24 148.83,-178.2 151,-180.48 161.86,-191.91 152.33,-202.89 164,-213.48 165.03,-214.42 166.11,-215.29 167.23,-216.11"/>
<polygon fill="#000000" fill-opacity="0.200000" stroke="#000000" stroke-width="2" stroke-opacity="0.200000" points="166.22,-217.96 172.42,-219.37 168.46,-214.4 166.22,-217.96"/>
</g>
<!-- src/parse&#45;table.ts&#45;&gt;src/utils.ts -->
<g id="edge20" class="edge">
<title>src/parse&#45;table.ts&#45;&gt;src/utils.ts</title>
<path fill="none" stroke="#000000" stroke-width="2" stroke-opacity="0.200000" d="M255.06,-163.6C260.72,-165.95 266.25,-168.87 271,-172.48 279.14,-178.68 276,-185.1 284,-191.48 286,-193.08 288.18,-194.52 290.47,-195.82"/>
<polygon fill="#000000" fill-opacity="0.200000" stroke="#000000" stroke-width="2" stroke-opacity="0.200000" points="289.63,-197.75 295.93,-198.61 291.54,-194.01 289.63,-197.75"/>
</g>
<!-- src/parse&#45;table.ts&#45;&gt;src/notion&#45;utils.ts -->
<g id="edge19" class="edge">
<title>src/parse&#45;table.ts&#45;&gt;src/notion&#45;utils.ts</title>
<path fill="none" stroke="#000000" stroke-width="2" stroke-opacity="0.200000" d="M256.75,-162.61C263.67,-164.09 270.95,-165.63 278.03,-167.14"/>
<polygon fill="#000000" fill-opacity="0.200000" stroke="#000000" stroke-width="2" stroke-opacity="0.200000" points="277.61,-169.2 283.91,-168.39 278.48,-165.09 277.61,-169.2"/>
</g>
<!-- src/render&#45;index.ts&#45;&gt;fs -->
<g id="edge26" class="edge">
<title>src/render&#45;index.ts&#45;&gt;fs</title>
<path fill="none" stroke="#000000" stroke-dasharray="5,2" stroke-opacity="0.200000" d="M244.61,-189.37C254.22,-184.79 264.36,-178.3 271,-169.48 286.63,-148.72 264.8,-130 284,-112.48 307.29,-91.24 344.47,-89.4 371.28,-91.51"/>
<polygon fill="#000000" fill-opacity="0.200000" stroke="#000000" stroke-opacity="0.200000" points="371.35,-93.63 377.52,-92.09 371.74,-89.45 371.35,-93.63"/>
</g>
<!-- src/render&#45;index.ts&#45;&gt;path -->
<g id="edge27" class="edge">
<title>src/render&#45;index.ts&#45;&gt;path</title>
<path fill="none" stroke="#000000" stroke-dasharray="5,2" stroke-opacity="0.200000" d="M260.72,-206.74C264.45,-208.56 267.95,-210.78 271,-213.48 282.17,-223.4 272.96,-234.42 284,-244.48 313.61,-271.47 332.5,-257.38 370,-271.48 372.8,-272.54 375.69,-273.7 378.56,-274.9"/>
<polygon fill="#000000" fill-opacity="0.200000" stroke="#000000" stroke-opacity="0.200000" points="378.03,-276.96 384.38,-277.38 379.69,-273.09 378.03,-276.96"/>
</g>
<!-- src/render&#45;index.ts&#45;&gt;src/utils.ts -->
<g id="edge25" class="edge">
<title>src/render&#45;index.ts&#45;&gt;src/utils.ts</title>
<path fill="none" stroke="#000000" stroke-width="2" stroke-opacity="0.200000" d="M260.6,-201.74C270.33,-202.49 280.53,-203.28 289.76,-203.99"/>
<polygon fill="#000000" fill-opacity="0.200000" stroke="#000000" stroke-width="2" stroke-opacity="0.200000" points="289.84,-206.11 295.98,-204.47 290.16,-201.92 289.84,-206.11"/>
</g>
<!-- src/render&#45;post.ts&#45;&gt;fs -->
<g id="edge30" class="edge">
<title>src/render&#45;post.ts&#45;&gt;fs</title>
<path fill="none" stroke="#000000" stroke-dasharray="5,2" stroke-opacity="0.200000" d="M257.74,-117.01C262.49,-115.06 267.05,-112.59 271,-109.48 280.22,-102.22 273.86,-92.4 284,-86.48 312.08,-70.1 350.34,-77.31 376.04,-85.5"/>
<polygon fill="#000000" fill-opacity="0.200000" stroke="#000000" stroke-opacity="0.200000" points="375.61,-87.57 381.96,-87.48 376.94,-83.59 375.61,-87.57"/>
</g>
<!-- src/render&#45;post.ts&#45;&gt;path -->
<g id="edge31" class="edge">
<title>src/render&#45;post.ts&#45;&gt;path</title>
<path fill="none" stroke="#000000" stroke-dasharray="5,2" stroke-opacity="0.200000" d="M257.59,-130.14C262.67,-132.35 267.35,-135.37 271,-139.48 295.47,-167.11 259.45,-193.94 284,-221.48 310.4,-251.11 336.71,-223.89 370,-245.48 380.41,-252.23 389.25,-263.17 395.3,-272.05"/>
<polygon fill="#000000" fill-opacity="0.200000" stroke="#000000" stroke-opacity="0.200000" points="393.66,-273.38 398.7,-277.26 397.18,-271.09 393.66,-273.38"/>
</g>
<!-- src/render&#45;post.ts&#45;&gt;src/utils.ts -->
<g id="edge29" class="edge">
<title>src/render&#45;post.ts&#45;&gt;src/utils.ts</title>
<path fill="none" stroke="#000000" stroke-width="2" stroke-opacity="0.200000" d="M257.54,-130.54C262.56,-132.7 267.24,-135.6 271,-139.48 287.56,-156.61 268.29,-173.57 284,-191.48 285.79,-193.52 287.89,-195.29 290.17,-196.82"/>
<polygon fill="#000000" fill-opacity="0.200000" stroke="#000000" stroke-width="2" stroke-opacity="0.200000" points="289.51,-198.85 295.76,-199.96 291.57,-195.19 289.51,-198.85"/>
</g>
<!-- src/render&#45;post.ts&#45;&gt;src/notion&#45;utils.ts -->
<g id="edge28" class="edge">
<title>src/render&#45;post.ts&#45;&gt;src/notion&#45;utils.ts</title>
<path fill="none" stroke="#000000" stroke-width="2" stroke-opacity="0.200000" d="M256.1,-133.49C261.22,-135.21 266.31,-137.2 271,-139.48 284.07,-145.84 297.3,-155.57 307.02,-163.45"/>
<polygon fill="#000000" fill-opacity="0.200000" stroke="#000000" stroke-width="2" stroke-opacity="0.200000" points="305.8,-165.17 311.76,-167.38 308.48,-161.93 305.8,-165.17"/>
</g>
<!-- src/template&#45;provider.ts&#45;&gt;fs -->
<g id="edge33" class="edge">
<title>src/template&#45;provider.ts&#45;&gt;fs</title>
<path fill="none" stroke="#000000" stroke-dasharray="5,2" stroke-opacity="0.200000" d="M264.09,-219.31C266.63,-217.67 268.97,-215.74 271,-213.48 293.61,-188.32 261.72,-163.94 284,-138.48 310.39,-108.34 332.5,-125.59 370,-111.48 372.8,-110.43 375.69,-109.27 378.56,-108.07"/>
<polygon fill="#000000" fill-opacity="0.200000" stroke="#000000" stroke-opacity="0.200000" points="379.69,-109.88 384.38,-105.59 378.03,-106.01 379.69,-109.88"/>
</g>
<!-- src/template&#45;provider.ts&#45;&gt;path -->
<g id="edge34" class="edge">
<title>src/template&#45;provider.ts&#45;&gt;path</title>
<path fill="none" stroke="#000000" stroke-dasharray="5,2" stroke-opacity="0.200000" d="M261.88,-237.54C265.15,-239.2 268.25,-241.16 271,-243.48 281.18,-252.07 273.22,-262.67 284,-270.48 309.21,-288.76 345.42,-291.24 371.46,-290.09"/>
<polygon fill="#000000" fill-opacity="0.200000" stroke="#000000" stroke-opacity="0.200000" points="371.64,-292.18 377.52,-289.75 371.41,-287.99 371.64,-292.18"/>
</g>
<!-- src/template&#45;provider.ts&#45;&gt;src/utils.ts -->
<g id="edge32" class="edge">
<title>src/template&#45;provider.ts&#45;&gt;src/utils.ts</title>
<path fill="none" stroke="#000000" stroke-width="2" stroke-opacity="0.200000" d="M260.9,-219.47C270.6,-217.41 280.77,-215.25 289.96,-213.3"/>
<polygon fill="#000000" fill-opacity="0.200000" stroke="#000000" stroke-width="2" stroke-opacity="0.200000" points="290.41,-215.35 295.84,-212.05 289.53,-211.24 290.41,-215.35"/>
</g>
<!-- src/index.ts -->
<g id="node14" class="node">
<title>src/index.ts</title>
<g id="a_node14"><a xlink:href="https://github.com/dragonman225/notablog/tree/master/src/index.ts" xlink:title="index.ts">
<path fill="#ddfeff" stroke="black" d="M64,-189.48C64,-189.48 22,-189.48 22,-189.48 19,-189.48 16,-186.48 16,-183.48 16,-183.48 16,-177.48 16,-177.48 16,-174.48 19,-171.48 22,-171.48 22,-171.48 64,-171.48 64,-171.48 67,-171.48 70,-174.48 70,-177.48 70,-177.48 70,-183.48 70,-183.48 70,-186.48 67,-189.48 64,-189.48"/>
<text text-anchor="middle" x="43" y="-178.28" font-family="Helvetica,sans-Serif" font-size="9.00">index.ts</text>
</a>
</g>
</g>
<!-- src/index.ts&#45;&gt;src/generate.ts -->
<g id="edge17" class="edge">
<title>src/index.ts&#45;&gt;src/generate.ts</title>
<path fill="none" stroke="#000000" stroke-width="2" stroke-opacity="0.200000" d="M70.4,-174.98C72.41,-174.57 74.46,-174.14 76.52,-173.71"/>
<polygon fill="#000000" fill-opacity="0.200000" stroke="#000000" stroke-width="2" stroke-opacity="0.200000" points="77.29,-175.69 82.74,-172.41 76.43,-171.58 77.29,-175.69"/>
</g>
<!-- src/preview.ts -->
<g id="node15" class="node">
<title>src/preview.ts</title>
<g id="a_node15"><a xlink:href="https://github.com/dragonman225/notablog/tree/master/src/preview.ts" xlink:title="preview.ts">
<path fill="#ddfeff" stroke="black" d="M142,-204.48C142,-204.48 92,-204.48 92,-204.48 89,-204.48 86,-201.48 86,-198.48 86,-198.48 86,-192.48 86,-192.48 86,-189.48 89,-186.48 92,-186.48 92,-186.48 142,-186.48 142,-186.48 145,-186.48 148,-189.48 148,-192.48 148,-192.48 148,-198.48 148,-198.48 148,-201.48 145,-204.48 142,-204.48"/>
<text text-anchor="middle" x="117" y="-193.28" font-family="Helvetica,sans-Serif" font-size="9.00">preview.ts</text>
</a>
</g>
</g>
<!-- src/index.ts&#45;&gt;src/preview.ts -->
<g id="edge18" class="edge">
<title>src/index.ts&#45;&gt;src/preview.ts</title>
<path fill="none" stroke="#000000" stroke-width="2" stroke-opacity="0.200000" d="M70.4,-185.99C73.36,-186.6 76.4,-187.24 79.46,-187.87"/>
<polygon fill="#000000" fill-opacity="0.200000" stroke="#000000" stroke-width="2" stroke-opacity="0.200000" points="79.4,-190.01 85.7,-189.17 80.26,-185.89 79.4,-190.01"/>
</g>
<!-- src/preview.ts&#45;&gt;child_process -->
<g id="edge23" class="edge">
<title>src/preview.ts&#45;&gt;child_process</title>
<path fill="none" stroke="#000000" stroke-dasharray="5,2" stroke-opacity="0.200000" d="M145.07,-186.28C147.34,-184.64 149.38,-182.73 151,-180.48 182.43,-137.01 129.07,-101.2 164,-60.48 166.58,-57.48 169.73,-55.08 173.18,-53.17"/>
<polygon fill="#000000" fill-opacity="0.200000" stroke="#000000" stroke-opacity="0.200000" points="174.27,-54.99 178.84,-50.57 172.51,-51.17 174.27,-54.99"/>
</g>
<!-- src/preview.ts&#45;&gt;path -->
<g id="edge24" class="edge">
<title>src/preview.ts&#45;&gt;path</title>
<path fill="none" stroke="#000000" stroke-dasharray="5,2" stroke-opacity="0.200000" d="M118.75,-204.95C121.78,-240.49 134.4,-365.11 164,-388.48 235.85,-445.23 295.73,-442.02 370,-388.48 397.7,-368.52 403.17,-325 404.04,-301.79"/>
<polygon fill="#000000" fill-opacity="0.200000" stroke="#000000" stroke-opacity="0.200000" points="406.15,-301.59 404.18,-295.55 401.95,-301.5 406.15,-301.59"/>
</g>
<!-- src/preview.ts&#45;&gt;src/utils.ts -->
<g id="edge22" class="edge">
<title>src/preview.ts&#45;&gt;src/utils.ts</title>
<path fill="none" stroke="#000000" stroke-width="2" stroke-opacity="0.200000" d="M120.2,-204.6C124.89,-221.74 137.65,-258.44 164,-273.48 205.29,-297.07 228.39,-294.6 271,-273.48 292.93,-262.62 307.99,-237.3 315.79,-221.09"/>
<polygon fill="#000000" fill-opacity="0.200000" stroke="#000000" stroke-width="2" stroke-opacity="0.200000" points="317.73,-221.9 318.33,-215.57 313.91,-220.14 317.73,-221.9"/>
</g>
<!-- src/preview.ts&#45;&gt;src/config.ts -->
<g id="edge21" class="edge">
<title>src/preview.ts&#45;&gt;src/config.ts</title>
<path fill="none" stroke="#000000" stroke-width="2" stroke-opacity="0.200000" d="M144.59,-186.37C147.01,-184.71 149.22,-182.77 151,-180.48 170.74,-155.19 142.44,-133.24 164,-109.48 169.08,-103.89 176.08,-100.33 183.32,-98.07"/>
<polygon fill="#000000" fill-opacity="0.200000" stroke="#000000" stroke-width="2" stroke-opacity="0.200000" points="184.15,-100.02 189.41,-96.46 183.08,-95.96 184.15,-100.02"/>
</g>
</g>
</svg>
