<?xml version="1.0" encoding="UTF-8" standalone="no"?>
<!DOCTYPE svg PUBLIC "-//W3C//DTD SVG 1.1//EN"
 "http://www.w3.org/Graphics/SVG/1.1/DTD/svg11.dtd">
<!-- Generated by graphviz version 2.44.1 (0)
 -->
<!-- Title: dependency&#45;cruiser output Pages: 1 -->
<svg width="437pt" height="291pt"
 viewBox="0.00 0.00 437.00 290.55" xmlns="http://www.w3.org/2000/svg" xmlns:xlink="http://www.w3.org/1999/xlink">
<g id="graph0" class="graph" transform="scale(1 1) rotate(0) translate(4 286.55)">
<title>dependency&#45;cruiser output</title>
<polygon fill="white" stroke="transparent" points="-4,4 -4,-286.55 433,-286.55 433,4 -4,4"/>
<g id="clust1" class="cluster">
<title>cluster_src</title>
<path fill="#ffffff" stroke="black" stroke-width="2" d="M20,-66.73C20,-66.73 355,-66.73 355,-66.73 361,-66.73 367,-72.73 367,-78.73 367,-78.73 367,-224.73 367,-224.73 367,-230.73 361,-236.73 355,-236.73 355,-236.73 20,-236.73 20,-236.73 14,-236.73 8,-230.73 8,-224.73 8,-224.73 8,-78.73 8,-78.73 8,-72.73 14,-66.73 20,-66.73"/>
<text text-anchor="middle" x="187.5" y="-225.53" font-family="Helvetica,sans-Serif" font-weight="bold" font-size="9.00">src</text>
</g>
<!-- child_process -->
<g id="node1" class="node">
<title>child_process</title>
<path fill="#ffffcc" stroke="grey" d="M248.5,-58.73C248.5,-58.73 183.5,-58.73 183.5,-58.73 180.5,-58.73 177.5,-55.73 177.5,-52.73 177.5,-52.73 177.5,-46.73 177.5,-46.73 177.5,-43.73 180.5,-40.73 183.5,-40.73 183.5,-40.73 248.5,-40.73 248.5,-40.73 251.5,-40.73 254.5,-43.73 254.5,-46.73 254.5,-46.73 254.5,-52.73 254.5,-52.73 254.5,-55.73 251.5,-58.73 248.5,-58.73"/>
<text text-anchor="middle" x="216" y="-47.53" font-family="Helvetica,sans-Serif" font-size="9.00" fill="grey">child_process</text>
</g>
<!-- fs -->
<g id="node2" class="node">
<title>fs</title>
<path fill="#ffffcc" stroke="grey" d="M423,-60.73C423,-60.73 381,-60.73 381,-60.73 378,-60.73 375,-57.73 375,-54.73 375,-54.73 375,-48.73 375,-48.73 375,-45.73 378,-42.73 381,-42.73 381,-42.73 423,-42.73 423,-42.73 426,-42.73 429,-45.73 429,-48.73 429,-48.73 429,-54.73 429,-54.73 429,-57.73 426,-60.73 423,-60.73"/>
<text text-anchor="middle" x="402" y="-49.53" font-family="Helvetica,sans-Serif" font-size="9.00" fill="grey">fs</text>
</g>
<!-- path -->
<g id="node3" class="node">
<title>path</title>
<path fill="#ffffcc" stroke="grey" d="M423,-211.73C423,-211.73 381,-211.73 381,-211.73 378,-211.73 375,-208.73 375,-205.73 375,-205.73 375,-199.73 375,-199.73 375,-196.73 378,-193.73 381,-193.73 381,-193.73 423,-193.73 423,-193.73 426,-193.73 429,-196.73 429,-199.73 429,-199.73 429,-205.73 429,-205.73 429,-208.73 426,-211.73 423,-211.73"/>
<text text-anchor="middle" x="402" y="-200.53" font-family="Helvetica,sans-Serif" font-size="9.00" fill="grey">path</text>
</g>
<!-- src/generate.js -->
<g id="node4" class="node">
<title>src/generate.js</title>
<g id="a_node4"><a xlink:href="https://github.com/dragonman225/notablog/tree/master/src/generate.js" xlink:title="generate.js">
<path fill="#ffffcc" stroke="black" d="M144,-153.73C144,-153.73 89,-153.73 89,-153.73 86,-153.73 83,-150.73 83,-147.73 83,-147.73 83,-141.73 83,-141.73 83,-138.73 86,-135.73 89,-135.73 89,-135.73 144,-135.73 144,-135.73 147,-135.73 150,-138.73 150,-141.73 150,-141.73 150,-147.73 150,-147.73 150,-150.73 147,-153.73 144,-153.73"/>
<text text-anchor="middle" x="116.5" y="-142.53" font-family="Helvetica,sans-Serif" font-size="9.00">generate.js</text>
</a>
</g>
</g>
<!-- src/generate.js&#45;&gt;fs -->
<g id="edge6" class="edge">
<title>src/generate.js&#45;&gt;fs</title>
<path fill="none" stroke="#000000" stroke-dasharray="5,2" stroke-opacity="0.200000" d="M118.16,-135.68C120.28,-114.03 128.93,-59.2 163,-34.73 236.7,18.21 280.78,1.56 367,-26.73 374.51,-29.19 381.72,-34.01 387.56,-38.77"/>
<polygon fill="#000000" fill-opacity="0.200000" stroke="#000000" stroke-opacity="0.200000" points="386.2,-40.37 392.11,-42.7 388.94,-37.19 386.2,-40.37"/>
</g>
<!-- src/generate.js&#45;&gt;path -->
<g id="edge7" class="edge">
<title>src/generate.js&#45;&gt;path</title>
<path fill="none" stroke="#000000" stroke-dasharray="5,2" stroke-opacity="0.200000" d="M127.99,-153.85C134.8,-160.12 143.57,-168.88 150,-177.73 157.36,-187.86 152.52,-195.87 163,-202.73 226.01,-243.94 319.89,-226.48 368.78,-213"/>
<polygon fill="#000000" fill-opacity="0.200000" stroke="#000000" stroke-opacity="0.200000" points="369.6,-214.95 374.8,-211.3 368.46,-210.91 369.6,-214.95"/>
</g>
<!-- src/parse&#45;table.js -->
<g id="node5" class="node">
<title>src/parse&#45;table.js</title>
<g id="a_node5"><a xlink:href="https://github.com/dragonman225/notablog/tree/master/src/parse-table.js" xlink:title="parse&#45;table.js">
<path fill="#ffffcc" stroke="black" d="M248.5,-92.73C248.5,-92.73 183.5,-92.73 183.5,-92.73 180.5,-92.73 177.5,-89.73 177.5,-86.73 177.5,-86.73 177.5,-80.73 177.5,-80.73 177.5,-77.73 180.5,-74.73 183.5,-74.73 183.5,-74.73 248.5,-74.73 248.5,-74.73 251.5,-74.73 254.5,-77.73 254.5,-80.73 254.5,-80.73 254.5,-86.73 254.5,-86.73 254.5,-89.73 251.5,-92.73 248.5,-92.73"/>
<text text-anchor="middle" x="216" y="-81.53" font-family="Helvetica,sans-Serif" font-size="9.00">parse&#45;table.js</text>
</a>
</g>
</g>
<!-- src/generate.js&#45;&gt;src/parse&#45;table.js -->
<g id="edge1" class="edge">
<title>src/generate.js&#45;&gt;src/parse&#45;table.js</title>
<path fill="none" stroke="#000000" stroke-width="2" stroke-opacity="0.200000" d="M124.18,-135.57C132.25,-125.16 146.77,-108.36 163,-98.73 165.78,-97.08 168.75,-95.6 171.81,-94.28"/>
<polygon fill="#000000" fill-opacity="0.200000" stroke="#000000" stroke-width="2" stroke-opacity="0.200000" points="172.58,-96.23 177.39,-92.07 171.04,-92.33 172.58,-96.23"/>
</g>
<!-- src/render&#45;index.js -->
<g id="node6" class="node">
<title>src/render&#45;index.js</title>
<g id="a_node6"><a xlink:href="https://github.com/dragonman225/notablog/tree/master/src/render-index.js" xlink:title="render&#45;index.js">
<path fill="#ffffcc" stroke="black" d="M252,-166.73C252,-166.73 180,-166.73 180,-166.73 177,-166.73 174,-163.73 174,-160.73 174,-160.73 174,-154.73 174,-154.73 174,-151.73 177,-148.73 180,-148.73 180,-148.73 252,-148.73 252,-148.73 255,-148.73 258,-151.73 258,-154.73 258,-154.73 258,-160.73 258,-160.73 258,-163.73 255,-166.73 252,-166.73"/>
<text text-anchor="middle" x="216" y="-155.53" font-family="Helvetica,sans-Serif" font-size="9.00">render&#45;index.js</text>
</a>
</g>
</g>
<!-- src/generate.js&#45;&gt;src/render&#45;index.js -->
<g id="edge2" class="edge">
<title>src/generate.js&#45;&gt;src/render&#45;index.js</title>
<path fill="none" stroke="#000000" stroke-width="2" stroke-opacity="0.200000" d="M150.24,-149.09C155.76,-149.83 161.6,-150.61 167.41,-151.38"/>
<polygon fill="#000000" fill-opacity="0.200000" stroke="#000000" stroke-width="2" stroke-opacity="0.200000" points="167.47,-153.51 173.69,-152.22 168.02,-149.34 167.47,-153.51"/>
</g>
<!-- src/render&#45;post.js -->
<g id="node7" class="node">
<title>src/render&#45;post.js</title>
<g id="a_node7"><a xlink:href="https://github.com/dragonman225/notablog/tree/master/src/render-post.js" xlink:title="render&#45;post.js">
<path fill="#ffffcc" stroke="black" d="M249.5,-122.73C249.5,-122.73 182.5,-122.73 182.5,-122.73 179.5,-122.73 176.5,-119.73 176.5,-116.73 176.5,-116.73 176.5,-110.73 176.5,-110.73 176.5,-107.73 179.5,-104.73 182.5,-104.73 182.5,-104.73 249.5,-104.73 249.5,-104.73 252.5,-104.73 255.5,-107.73 255.5,-110.73 255.5,-110.73 255.5,-116.73 255.5,-116.73 255.5,-119.73 252.5,-122.73 249.5,-122.73"/>
<text text-anchor="middle" x="216" y="-111.53" font-family="Helvetica,sans-Serif" font-size="9.00">render&#45;post.js</text>
</a>
</g>
</g>
<!-- src/generate.js&#45;&gt;src/render&#45;post.js -->
<g id="edge3" class="edge">
<title>src/generate.js&#45;&gt;src/render&#45;post.js</title>
<path fill="none" stroke="#000000" stroke-width="2" stroke-opacity="0.200000" d="M145.96,-135.68C156.88,-132.21 169.44,-128.21 180.83,-124.59"/>
<polygon fill="#000000" fill-opacity="0.200000" stroke="#000000" stroke-width="2" stroke-opacity="0.200000" points="181.59,-126.55 186.67,-122.73 180.32,-122.55 181.59,-126.55"/>
</g>
<!-- src/template&#45;provider.js -->
<g id="node8" class="node">
<title>src/template&#45;provider.js</title>
<g id="a_node8"><a xlink:href="https://github.com/dragonman225/notablog/tree/master/src/template-provider.js" xlink:title="template&#45;provider.js">
<path fill="#ffffcc" stroke="black" d="M263,-196.73C263,-196.73 169,-196.73 169,-196.73 166,-196.73 163,-193.73 163,-190.73 163,-190.73 163,-184.73 163,-184.73 163,-181.73 166,-178.73 169,-178.73 169,-178.73 263,-178.73 263,-178.73 266,-178.73 269,-181.73 269,-184.73 269,-184.73 269,-190.73 269,-190.73 269,-193.73 266,-196.73 263,-196.73"/>
<text text-anchor="middle" x="216" y="-185.53" font-family="Helvetica,sans-Serif" font-size="9.00">template&#45;provider.js</text>
</a>
</g>
</g>
<!-- src/generate.js&#45;&gt;src/template&#45;provider.js -->
<g id="edge4" class="edge">
<title>src/generate.js&#45;&gt;src/template&#45;provider.js</title>
<path fill="none" stroke="#000000" stroke-width="2" stroke-opacity="0.200000" d="M130.13,-153.79C138.99,-159.82 151.29,-167.55 163,-172.73 166.19,-174.14 169.55,-175.46 172.97,-176.68"/>
<polygon fill="#000000" fill-opacity="0.200000" stroke="#000000" stroke-width="2" stroke-opacity="0.200000" points="172.39,-178.7 178.74,-178.64 173.74,-174.72 172.39,-178.7"/>
</g>
<!-- src/util.js -->
<g id="node9" class="node">
<title>src/util.js</title>
<g id="a_node9"><a xlink:href="https://github.com/dragonman225/notablog/tree/master/src/util.js" xlink:title="util.js">
<path fill="#ffffcc" stroke="black" d="M341.5,-144.73C341.5,-144.73 299.5,-144.73 299.5,-144.73 296.5,-144.73 293.5,-141.73 293.5,-138.73 293.5,-138.73 293.5,-132.73 293.5,-132.73 293.5,-129.73 296.5,-126.73 299.5,-126.73 299.5,-126.73 341.5,-126.73 341.5,-126.73 344.5,-126.73 347.5,-129.73 347.5,-132.73 347.5,-132.73 347.5,-138.73 347.5,-138.73 347.5,-141.73 344.5,-144.73 341.5,-144.73"/>
<text text-anchor="middle" x="320.5" y="-133.53" font-family="Helvetica,sans-Serif" font-size="9.00">util.js</text>
</a>
</g>
</g>
<!-- src/generate.js&#45;&gt;src/util.js -->
<g id="edge5" class="edge">
<title>src/generate.js&#45;&gt;src/util.js</title>
<path fill="none" stroke="#000000" stroke-width="2" stroke-opacity="0.200000" d="M150.4,-143.26C188.13,-141.58 249.59,-138.84 287.1,-137.17"/>
<polygon fill="#000000" fill-opacity="0.200000" stroke="#000000" stroke-width="2" stroke-opacity="0.200000" points="287.46,-139.26 293.36,-136.89 287.28,-135.06 287.46,-139.26"/>
</g>
<!-- src/parse&#45;table.js&#45;&gt;src/util.js -->
<g id="edge11" class="edge">
<title>src/parse&#45;table.js&#45;&gt;src/util.js</title>
<path fill="none" stroke="#000000" stroke-width="2" stroke-opacity="0.200000" d="M254.74,-90.88C259.84,-92.88 264.77,-95.45 269,-98.73 277.98,-105.68 273.38,-113.33 282,-120.73 283.75,-122.23 285.68,-123.59 287.7,-124.83"/>
<polygon fill="#000000" fill-opacity="0.200000" stroke="#000000" stroke-width="2" stroke-opacity="0.200000" points="286.94,-126.81 293.22,-127.82 288.94,-123.12 286.94,-126.81"/>
</g>
<!-- src/notion&#45;utils.js -->
<g id="node12" class="node">
<title>src/notion&#45;utils.js</title>
<g id="a_node12"><a xlink:href="https://github.com/dragonman225/notablog/tree/master/src/notion-utils.js" xlink:title="notion&#45;utils.js">
<path fill="#ffffcc" stroke="black" d="M353,-114.73C353,-114.73 288,-114.73 288,-114.73 285,-114.73 282,-111.73 282,-108.73 282,-108.73 282,-102.73 282,-102.73 282,-99.73 285,-96.73 288,-96.73 288,-96.73 353,-96.73 353,-96.73 356,-96.73 359,-99.73 359,-102.73 359,-102.73 359,-108.73 359,-108.73 359,-111.73 356,-114.73 353,-114.73"/>
<text text-anchor="middle" x="320.5" y="-103.53" font-family="Helvetica,sans-Serif" font-size="9.00">notion&#45;utils.js</text>
</a>
</g>
</g>
<!-- src/parse&#45;table.js&#45;&gt;src/notion&#45;utils.js -->
<g id="edge10" class="edge">
<title>src/parse&#45;table.js&#45;&gt;src/notion&#45;utils.js</title>
<path fill="none" stroke="#000000" stroke-width="2" stroke-opacity="0.200000" d="M254.59,-91.79C261.55,-93.29 268.88,-94.86 276,-96.39"/>
<polygon fill="#000000" fill-opacity="0.200000" stroke="#000000" stroke-width="2" stroke-opacity="0.200000" points="275.61,-98.45 281.92,-97.66 276.49,-94.35 275.61,-98.45"/>
</g>
<!-- src/render&#45;index.js&#45;&gt;fs -->
<g id="edge16" class="edge">
<title>src/render&#45;index.js&#45;&gt;fs</title>
<path fill="none" stroke="#000000" stroke-dasharray="5,2" stroke-opacity="0.200000" d="M242.93,-148.6C252.46,-144.03 262.49,-137.54 269,-128.73 285.47,-106.43 261.67,-86.57 282,-67.73 304.93,-46.48 341.84,-44.64 368.47,-46.75"/>
<polygon fill="#000000" fill-opacity="0.200000" stroke="#000000" stroke-opacity="0.200000" points="368.5,-48.86 374.67,-47.33 368.89,-44.68 368.5,-48.86"/>
</g>
<!-- src/render&#45;index.js&#45;&gt;path -->
<g id="edge17" class="edge">
<title>src/render&#45;index.js&#45;&gt;path</title>
<path fill="none" stroke="#000000" stroke-dasharray="5,2" stroke-opacity="0.200000" d="M253.78,-166.8C262.99,-169.06 272.86,-171.49 282,-173.73 311.51,-180.95 345.15,-189.15 369.12,-194.98"/>
<polygon fill="#000000" fill-opacity="0.200000" stroke="#000000" stroke-opacity="0.200000" points="368.67,-197.03 375,-196.41 369.66,-192.95 368.67,-197.03"/>
</g>
<!-- src/render&#45;index.js&#45;&gt;src/util.js -->
<g id="edge15" class="edge">
<title>src/render&#45;index.js&#45;&gt;src/util.js</title>
<path fill="none" stroke="#000000" stroke-width="2" stroke-opacity="0.200000" d="M258.1,-148.91C267.88,-146.81 278.17,-144.6 287.47,-142.6"/>
<polygon fill="#000000" fill-opacity="0.200000" stroke="#000000" stroke-width="2" stroke-opacity="0.200000" points="288,-144.64 293.43,-141.32 287.12,-140.53 288,-144.64"/>
</g>
<!-- src/render&#45;post.js&#45;&gt;fs -->
<g id="edge20" class="edge">
<title>src/render&#45;post.js&#45;&gt;fs</title>
<path fill="none" stroke="#000000" stroke-dasharray="5,2" stroke-opacity="0.200000" d="M255.75,-107.68C260.7,-105.52 265.32,-102.62 269,-98.73 286.85,-79.84 261.69,-57.93 282,-41.73 308.37,-20.69 349.29,-30.43 375.61,-40.33"/>
<polygon fill="#000000" fill-opacity="0.200000" stroke="#000000" stroke-opacity="0.200000" points="374.96,-42.33 381.32,-42.56 376.5,-38.42 374.96,-42.33"/>
</g>
<!-- src/render&#45;post.js&#45;&gt;path -->
<g id="edge21" class="edge">
<title>src/render&#45;post.js&#45;&gt;path</title>
<path fill="none" stroke="#000000" stroke-dasharray="5,2" stroke-opacity="0.200000" d="M233.97,-122.95C244.18,-128.56 257.41,-135.93 269,-142.73 274.85,-146.16 275.79,-148 282,-150.73 317.95,-166.5 332.22,-156.53 367,-174.73 374.3,-178.55 381.49,-184.12 387.35,-189.28"/>
<polygon fill="#000000" fill-opacity="0.200000" stroke="#000000" stroke-opacity="0.200000" points="386.1,-190.98 391.95,-193.48 388.94,-187.88 386.1,-190.98"/>
</g>
<!-- src/render&#45;post.js&#45;&gt;src/util.js -->
<g id="edge19" class="edge">
<title>src/render&#45;post.js&#45;&gt;src/util.js</title>
<path fill="none" stroke="#000000" stroke-width="2" stroke-opacity="0.200000" d="M255.75,-122.04C266.17,-124.28 277.33,-126.68 287.35,-128.83"/>
<polygon fill="#000000" fill-opacity="0.200000" stroke="#000000" stroke-width="2" stroke-opacity="0.200000" points="287.12,-130.92 293.43,-130.13 288,-126.82 287.12,-130.92"/>
</g>
<!-- src/render&#45;post.js&#45;&gt;src/notion&#45;utils.js -->
<g id="edge18" class="edge">
<title>src/render&#45;post.js&#45;&gt;src/notion&#45;utils.js</title>
<path fill="none" stroke="#000000" stroke-width="2" stroke-opacity="0.200000" d="M255.75,-110.7C262.26,-110.19 269.06,-109.66 275.69,-109.15"/>
<polygon fill="#000000" fill-opacity="0.200000" stroke="#000000" stroke-width="2" stroke-opacity="0.200000" points="275.89,-111.24 281.71,-108.68 275.57,-107.05 275.89,-111.24"/>
</g>
<!-- src/template&#45;provider.js&#45;&gt;fs -->
<g id="edge23" class="edge">
<title>src/template&#45;provider.js&#45;&gt;fs</title>
<path fill="none" stroke="#000000" stroke-dasharray="5,2" stroke-opacity="0.200000" d="M262.19,-178.55C264.7,-176.9 267.01,-174.98 269,-172.73 293.43,-145.07 257.49,-118.31 282,-90.73 308.07,-61.38 330.06,-80.01 367,-66.73 369.88,-65.69 372.87,-64.52 375.82,-63.3"/>
<polygon fill="#000000" fill-opacity="0.200000" stroke="#000000" stroke-opacity="0.200000" points="377.07,-65.05 381.77,-60.77 375.43,-61.19 377.07,-65.05"/>
</g>
<!-- src/template&#45;provider.js&#45;&gt;path -->
<g id="edge24" class="edge">
<title>src/template&#45;provider.js&#45;&gt;path</title>
<path fill="none" stroke="#000000" stroke-dasharray="5,2" stroke-opacity="0.200000" d="M260.57,-196.74C267.7,-197.94 275.04,-199 282,-199.73 311.25,-202.78 344.74,-203.36 368.73,-203.28"/>
<polygon fill="#000000" fill-opacity="0.200000" stroke="#000000" stroke-opacity="0.200000" points="368.94,-205.38 374.92,-203.25 368.91,-201.18 368.94,-205.38"/>
</g>
<!-- src/template&#45;provider.js&#45;&gt;src/util.js -->
<g id="edge22" class="edge">
<title>src/template&#45;provider.js&#45;&gt;src/util.js</title>
<path fill="none" stroke="#000000" stroke-width="2" stroke-opacity="0.200000" d="M254.25,-178.72C259.32,-177 264.36,-175 269,-172.73 281.96,-166.36 295.07,-156.64 304.68,-148.76"/>
<polygon fill="#000000" fill-opacity="0.200000" stroke="#000000" stroke-width="2" stroke-opacity="0.200000" points="306.12,-150.29 309.37,-144.83 303.42,-147.07 306.12,-150.29"/>
</g>
<!-- src/util.js&#45;&gt;fs -->
<g id="edge25" class="edge">
<title>src/util.js&#45;&gt;fs</title>
<path fill="none" stroke="#000000" stroke-dasharray="5,2" stroke-opacity="0.200000" d="M347.9,-130.88C354.7,-128.65 361.6,-125.42 367,-120.73 383.23,-106.62 392.49,-82.96 397.13,-67.35"/>
<polygon fill="#000000" fill-opacity="0.200000" stroke="#000000" stroke-opacity="0.200000" points="399.26,-67.55 398.84,-61.2 395.21,-66.42 399.26,-67.55"/>
</g>
<!-- src/util.js&#45;&gt;path -->
<g id="edge26" class="edge">
<title>src/util.js&#45;&gt;path</title>
<path fill="none" stroke="#000000" stroke-dasharray="5,2" stroke-opacity="0.200000" d="M347.95,-143.18C354.59,-145.83 361.41,-149.29 367,-153.73 378.64,-162.95 387.91,-177.22 393.81,-187.99"/>
<polygon fill="#000000" fill-opacity="0.200000" stroke="#000000" stroke-opacity="0.200000" points="392.09,-189.22 396.74,-193.56 395.8,-187.27 392.09,-189.22"/>
</g>
<!-- src/index.js -->
<g id="node10" class="node">
<title>src/index.js</title>
<g id="a_node10"><a xlink:href="https://github.com/dragonman225/notablog/tree/master/src/index.js" xlink:title="index.js">
<path fill="#ffffcc" stroke="black" d="M64,-177.73C64,-177.73 22,-177.73 22,-177.73 19,-177.73 16,-174.73 16,-171.73 16,-171.73 16,-165.73 16,-165.73 16,-162.73 19,-159.73 22,-159.73 22,-159.73 64,-159.73 64,-159.73 67,-159.73 70,-162.73 70,-165.73 70,-165.73 70,-171.73 70,-171.73 70,-174.73 67,-177.73 64,-177.73"/>
<text text-anchor="middle" x="43" y="-166.53" font-family="Helvetica,sans-Serif" font-size="9.00">index.js</text>
</a>
</g>
</g>
<!-- src/index.js&#45;&gt;src/generate.js -->
<g id="edge8" class="edge">
<title>src/index.js&#45;&gt;src/generate.js</title>
<path fill="none" stroke="#000000" stroke-width="2" stroke-opacity="0.200000" d="M70.22,-159.93C74.18,-158.6 78.31,-157.21 82.4,-155.84"/>
<polygon fill="#000000" fill-opacity="0.200000" stroke="#000000" stroke-width="2" stroke-opacity="0.200000" points="83.31,-157.75 88.33,-153.85 81.97,-153.77 83.31,-157.75"/>
</g>
<!-- src/preview.js -->
<g id="node11" class="node">
<title>src/preview.js</title>
<g id="a_node11"><a xlink:href="https://github.com/dragonman225/notablog/tree/master/src/preview.js" xlink:title="preview.js">
<path fill="#ffffcc" stroke="black" d="M140.5,-201.73C140.5,-201.73 92.5,-201.73 92.5,-201.73 89.5,-201.73 86.5,-198.73 86.5,-195.73 86.5,-195.73 86.5,-189.73 86.5,-189.73 86.5,-186.73 89.5,-183.73 92.5,-183.73 92.5,-183.73 140.5,-183.73 140.5,-183.73 143.5,-183.73 146.5,-186.73 146.5,-189.73 146.5,-189.73 146.5,-195.73 146.5,-195.73 146.5,-198.73 143.5,-201.73 140.5,-201.73"/>
<text text-anchor="middle" x="116.5" y="-190.53" font-family="Helvetica,sans-Serif" font-size="9.00">preview.js</text>
</a>
</g>
</g>
<!-- src/index.js&#45;&gt;src/preview.js -->
<g id="edge9" class="edge">
<title>src/index.js&#45;&gt;src/preview.js</title>
<path fill="none" stroke="#000000" stroke-width="2" stroke-opacity="0.200000" d="M70.22,-177.53C74.18,-178.86 78.31,-180.24 82.4,-181.62"/>
<polygon fill="#000000" fill-opacity="0.200000" stroke="#000000" stroke-width="2" stroke-opacity="0.200000" points="81.97,-183.69 88.33,-183.61 83.31,-179.7 81.97,-183.69"/>
</g>
<!-- src/preview.js&#45;&gt;child_process -->
<g id="edge13" class="edge">
<title>src/preview.js&#45;&gt;child_process</title>
<path fill="none" stroke="#000000" stroke-dasharray="5,2" stroke-opacity="0.200000" d="M129.7,-183.71C136.83,-177.73 145.32,-169.26 150,-159.73 168.97,-121.07 134.57,-96.06 163,-63.73 165.39,-61.01 168.25,-58.79 171.38,-56.98"/>
<polygon fill="#000000" fill-opacity="0.200000" stroke="#000000" stroke-opacity="0.200000" points="172.76,-58.65 177.27,-54.16 170.95,-54.86 172.76,-58.65"/>
</g>
<!-- src/preview.js&#45;&gt;path -->
<g id="edge14" class="edge">
<title>src/preview.js&#45;&gt;path</title>
<path fill="none" stroke="#000000" stroke-dasharray="5,2" stroke-opacity="0.200000" d="M121.41,-202.06C127.79,-215.9 141.87,-241.34 163,-251.73 244.37,-291.73 286.67,-293.76 367,-251.73 380.59,-244.61 389.84,-229.32 395.22,-217.7"/>
<polygon fill="#000000" fill-opacity="0.200000" stroke="#000000" stroke-opacity="0.200000" points="397.22,-218.36 397.68,-212.02 393.37,-216.69 397.22,-218.36"/>
</g>
<!-- src/preview.js&#45;&gt;src/util.js -->
<g id="edge12" class="edge">
<title>src/preview.js&#45;&gt;src/util.js</title>
<path fill="none" stroke="#000000" stroke-width="2" stroke-opacity="0.200000" d="M142.62,-201.78C173.98,-211.49 228.42,-222.95 269,-202.73 290.83,-191.85 305.71,-166.54 313.39,-150.33"/>
<polygon fill="#000000" fill-opacity="0.200000" stroke="#000000" stroke-width="2" stroke-opacity="0.200000" points="315.32,-151.14 315.89,-144.81 311.5,-149.41 315.32,-151.14"/>
</g>
</g>
</svg>
