<?xml version="1.0" encoding="UTF-8" standalone="no"?>
<!DOCTYPE svg PUBLIC "-//W3C//DTD SVG 1.1//EN"
 "http://www.w3.org/Graphics/SVG/1.1/DTD/svg11.dtd">
<!-- Generated by graphviz version 2.49.0 (0)
 -->
<!-- Title: dependency&#45;cruiser output Pages: 1 -->
<svg width="534pt" height="487pt"
 viewBox="0.00 0.00 534.00 486.63" xmlns="http://www.w3.org/2000/svg" xmlns:xlink="http://www.w3.org/1999/xlink">
<g id="graph0" class="graph" transform="scale(1 1) rotate(0) translate(4 482.63)">
<title>dependency&#45;cruiser output</title>
<polygon fill="white" stroke="transparent" points="-4,4 -4,-482.63 530,-482.63 530,4 -4,4"/>
<g id="clust1" class="cluster">
<title>cluster_src</title>
<path fill="#ffffff" stroke="black" stroke-width="2" d="M20,-134C20,-134 452,-134 452,-134 458,-134 464,-140 464,-146 464,-146 464,-348 464,-348 464,-354 458,-360 452,-360 452,-360 20,-360 20,-360 14,-360 8,-354 8,-348 8,-348 8,-146 8,-146 8,-140 14,-134 20,-134"/>
<text text-anchor="middle" x="236" y="-348.8" font-family="Helvetica,sans-Serif" font-weight="bold" font-size="9.00">src</text>
</g>
<g id="clust2" class="cluster">
<title>cluster_src/commands</title>
<path fill="#ffffff" stroke="black" stroke-width="2" d="M90,-177C90,-177 150,-177 150,-177 156,-177 162,-183 162,-189 162,-189 162,-247 162,-247 162,-253 156,-259 150,-259 150,-259 90,-259 90,-259 84,-259 78,-253 78,-247 78,-247 78,-189 78,-189 78,-183 84,-177 90,-177"/>
<text text-anchor="middle" x="120" y="-247.8" font-family="Helvetica,sans-Serif" font-weight="bold" font-size="9.00">commands</text>
</g>
<g id="clust3" class="cluster">
<title>cluster_src/utils</title>
<path fill="#ffffff" stroke="black" stroke-width="2" d="M396,-212C396,-212 444,-212 444,-212 450,-212 456,-218 456,-224 456,-224 456,-282 456,-282 456,-288 450,-294 444,-294 444,-294 396,-294 396,-294 390,-294 384,-288 384,-282 384,-282 384,-224 384,-224 384,-218 390,-212 396,-212"/>
<text text-anchor="middle" x="420" y="-282.8" font-family="Helvetica,sans-Serif" font-weight="bold" font-size="9.00">utils</text>
</g>
<!-- child_process -->
<g id="node1" class="node">
<title>child_process</title>
<path fill="#ffffcc" stroke="grey" d="M245.5,-18C245.5,-18 180.5,-18 180.5,-18 177.5,-18 174.5,-15 174.5,-12 174.5,-12 174.5,-6 174.5,-6 174.5,-3 177.5,0 180.5,0 180.5,0 245.5,0 245.5,0 248.5,0 251.5,-3 251.5,-6 251.5,-6 251.5,-12 251.5,-12 251.5,-15 248.5,-18 245.5,-18"/>
<text text-anchor="middle" x="213" y="-6.8" font-family="Helvetica,sans-Serif" font-size="9.00" fill="grey">child_process</text>
</g>
<!-- crypto -->
<g id="node2" class="node">
<title>crypto</title>
<path fill="#ffffcc" stroke="grey" d="M441,-126C441,-126 399,-126 399,-126 396,-126 393,-123 393,-120 393,-120 393,-114 393,-114 393,-111 396,-108 399,-108 399,-108 441,-108 441,-108 444,-108 447,-111 447,-114 447,-114 447,-120 447,-120 447,-123 444,-126 441,-126"/>
<text text-anchor="middle" x="420" y="-114.8" font-family="Helvetica,sans-Serif" font-size="9.00" fill="grey">crypto</text>
</g>
<!-- fs -->
<g id="node3" class="node">
<title>fs</title>
<path fill="#ffffcc" stroke="grey" d="M520,-154C520,-154 478,-154 478,-154 475,-154 472,-151 472,-148 472,-148 472,-142 472,-142 472,-139 475,-136 478,-136 478,-136 520,-136 520,-136 523,-136 526,-139 526,-142 526,-142 526,-148 526,-148 526,-151 523,-154 520,-154"/>
<text text-anchor="middle" x="499" y="-142.8" font-family="Helvetica,sans-Serif" font-size="9.00" fill="grey">fs</text>
</g>
<!-- path -->
<g id="node4" class="node">
<title>path</title>
<path fill="#ffffcc" stroke="grey" d="M520,-370C520,-370 478,-370 478,-370 475,-370 472,-367 472,-364 472,-364 472,-358 472,-358 472,-355 475,-352 478,-352 478,-352 520,-352 520,-352 523,-352 526,-355 526,-358 526,-358 526,-364 526,-364 526,-367 523,-370 520,-370"/>
<text text-anchor="middle" x="499" y="-358.8" font-family="Helvetica,sans-Serif" font-size="9.00" fill="grey">path</text>
</g>
<!-- src/cache.ts -->
<g id="node5" class="node">
<title>src/cache.ts</title>
<g id="a_node5"><a xlink:href="https://github.com/dragonman225/notablog/tree/master/src/cache.ts" xlink:title="cache.ts">
<path fill="#ddfeff" stroke="black" d="M344,-174C344,-174 301,-174 301,-174 298,-174 295,-171 295,-168 295,-168 295,-162 295,-162 295,-159 298,-156 301,-156 301,-156 344,-156 344,-156 347,-156 350,-159 350,-162 350,-162 350,-168 350,-168 350,-171 347,-174 344,-174"/>
<text text-anchor="middle" x="322.5" y="-162.8" font-family="Helvetica,sans-Serif" font-size="9.00">cache.ts</text>
</a>
</g>
</g>
<!-- src/cache.ts&#45;&gt;crypto -->
<g id="edge2" class="edge">
<title>src/cache.ts&#45;&gt;crypto</title>
<path fill="none" stroke="#000000" stroke-dasharray="5,2" stroke-opacity="0.200000" d="M338.62,-155.77C350.69,-148.58 368.13,-138.59 384,-131 385.77,-130.15 387.61,-129.31 389.47,-128.49"/>
<polygon fill="#000000" fill-opacity="0.200000" stroke="#000000" stroke-opacity="0.200000" points="390.41,-130.37 395.1,-126.07 388.75,-126.51 390.41,-130.37"/>
</g>
<!-- src/cache.ts&#45;&gt;fs -->
<g id="edge3" class="edge">
<title>src/cache.ts&#45;&gt;fs</title>
<path fill="none" stroke="#000000" stroke-dasharray="5,2" stroke-opacity="0.200000" d="M350,-161.96C381.06,-158.4 432.5,-152.51 465.82,-148.69"/>
<polygon fill="#000000" fill-opacity="0.200000" stroke="#000000" stroke-opacity="0.200000" points="466.1,-150.77 471.82,-148 465.62,-146.6 466.1,-150.77"/>
</g>
<!-- src/cache.ts&#45;&gt;path -->
<g id="edge4" class="edge">
<title>src/cache.ts&#45;&gt;path</title>
<path fill="none" stroke="#000000" stroke-dasharray="5,2" stroke-opacity="0.200000" d="M350.02,-173.51C359.81,-178.03 369.97,-184.63 376,-194 388.42,-213.31 369.49,-279.21 384,-297 407.38,-325.67 433.04,-299.75 464,-320 474.38,-326.79 483.22,-337.72 489.28,-346.59"/>
<polygon fill="#000000" fill-opacity="0.200000" stroke="#000000" stroke-opacity="0.200000" points="487.64,-347.92 492.69,-351.79 491.16,-345.62 487.64,-347.92"/>
</g>
<!-- src/utils/misc.ts -->
<g id="node6" class="node">
<title>src/utils/misc.ts</title>
<g id="a_node6"><a xlink:href="https://github.com/dragonman225/notablog/tree/master/src/utils/misc.ts" xlink:title="misc.ts">
<path fill="#ddfeff" stroke="black" d="M441,-238C441,-238 399,-238 399,-238 396,-238 393,-235 393,-232 393,-232 393,-226 393,-226 393,-223 396,-220 399,-220 399,-220 441,-220 441,-220 444,-220 447,-223 447,-226 447,-226 447,-232 447,-232 447,-235 444,-238 441,-238"/>
<text text-anchor="middle" x="420" y="-226.8" font-family="Helvetica,sans-Serif" font-size="9.00">misc.ts</text>
</a>
</g>
</g>
<!-- src/cache.ts&#45;&gt;src/utils/misc.ts -->
<g id="edge1" class="edge">
<title>src/cache.ts&#45;&gt;src/utils/misc.ts</title>
<path fill="none" stroke="#000000" stroke-width="2" stroke-opacity="0.200000" d="M350.18,-168.74C359.51,-171.32 369.31,-175.67 376,-183 386.17,-194.15 373.98,-204.72 384,-216 385.05,-217.19 386.23,-218.27 387.49,-219.25"/>
<polygon fill="#000000" fill-opacity="0.200000" stroke="#000000" stroke-width="2" stroke-opacity="0.200000" points="386.52,-221.12 392.71,-222.56 388.77,-217.57 386.52,-221.12"/>
</g>
<!-- src/utils/misc.ts&#45;&gt;fs -->
<g id="edge37" class="edge">
<title>src/utils/misc.ts&#45;&gt;fs</title>
<path fill="none" stroke="#000000" stroke-dasharray="5,2" stroke-opacity="0.200000" d="M447.31,-224.77C453.29,-222.85 459.26,-220.06 464,-216 481.03,-201.39 490.21,-176.31 494.59,-160.21"/>
<polygon fill="#000000" fill-opacity="0.200000" stroke="#000000" stroke-opacity="0.200000" points="496.65,-160.64 496.09,-154.31 492.58,-159.61 496.65,-160.64"/>
</g>
<!-- src/utils/misc.ts&#45;&gt;path -->
<g id="edge38" class="edge">
<title>src/utils/misc.ts&#45;&gt;path</title>
<path fill="none" stroke="#000000" stroke-dasharray="5,2" stroke-opacity="0.200000" d="M447.41,-233.85C453.52,-236.07 459.54,-239.3 464,-244 490.99,-272.46 496.72,-321.08 497.83,-345.72"/>
<polygon fill="#000000" fill-opacity="0.200000" stroke="#000000" stroke-opacity="0.200000" points="495.73,-345.79 498.02,-351.72 499.93,-345.65 495.73,-345.79"/>
</g>
<!-- src/commands/generate.ts -->
<g id="node7" class="node">
<title>src/commands/generate.ts</title>
<g id="a_node7"><a xlink:href="https://github.com/dragonman225/notablog/tree/master/src/commands/generate.ts" xlink:title="generate.ts">
<path fill="#ddfeff" stroke="black" d="M148,-233C148,-233 92,-233 92,-233 89,-233 86,-230 86,-227 86,-227 86,-221 86,-221 86,-218 89,-215 92,-215 92,-215 148,-215 148,-215 151,-215 154,-218 154,-221 154,-221 154,-227 154,-227 154,-230 151,-233 148,-233"/>
<text text-anchor="middle" x="120" y="-221.8" font-family="Helvetica,sans-Serif" font-size="9.00">generate.ts</text>
</a>
</g>
</g>
<!-- src/commands/generate.ts&#45;&gt;fs -->
<g id="edge13" class="edge">
<title>src/commands/generate.ts&#45;&gt;fs</title>
<path fill="none" stroke="#000000" stroke-dasharray="5,2" stroke-opacity="0.200000" d="M154.18,-215.83C157.16,-214 159.86,-211.75 162,-209 183.4,-181.49 152.52,-161.15 170,-131 197.16,-84.16 217.45,-76.57 269,-60 351.51,-33.47 392.41,-12.15 464,-61 486.77,-76.54 494.3,-110.15 496.78,-129.82"/>
<polygon fill="#000000" fill-opacity="0.200000" stroke="#000000" stroke-opacity="0.200000" points="494.71,-130.17 497.45,-135.91 498.88,-129.72 494.71,-130.17"/>
</g>
<!-- src/commands/generate.ts&#45;&gt;path -->
<g id="edge14" class="edge">
<title>src/commands/generate.ts&#45;&gt;path</title>
<path fill="none" stroke="#000000" stroke-dasharray="5,2" stroke-opacity="0.200000" d="M121.81,-233.27C125.15,-269.24 139.19,-398.86 170,-423 272.85,-503.6 351.56,-489.57 464,-423 481.01,-412.93 490.07,-391 494.45,-376.12"/>
<polygon fill="#000000" fill-opacity="0.200000" stroke="#000000" stroke-opacity="0.200000" points="496.51,-376.56 496.06,-370.22 492.46,-375.46 496.51,-376.56"/>
</g>
<!-- src/commands/generate.ts&#45;&gt;src/cache.ts -->
<g id="edge5" class="edge">
<title>src/commands/generate.ts&#45;&gt;src/cache.ts</title>
<path fill="none" stroke="#000000" stroke-width="2" stroke-opacity="0.200000" d="M153.19,-214.9C156.36,-213.24 159.37,-211.29 162,-209 167.7,-204.04 163.86,-198.4 170,-194 201.49,-171.46 218,-187.44 256,-180 266.72,-177.9 278.36,-175.33 288.81,-172.92"/>
<polygon fill="#000000" fill-opacity="0.200000" stroke="#000000" stroke-width="2" stroke-opacity="0.200000" points="289.45,-174.93 294.81,-171.52 288.49,-170.83 289.45,-174.93"/>
</g>
<!-- src/commands/generate.ts&#45;&gt;src/utils/misc.ts -->
<g id="edge11" class="edge">
<title>src/commands/generate.ts&#45;&gt;src/utils/misc.ts</title>
<path fill="none" stroke="#000000" stroke-width="2" stroke-opacity="0.200000" d="M131,-233.07C140.32,-240.86 155,-251.54 170,-256 206.63,-266.9 218.67,-264.2 256,-256 262.22,-254.63 262.86,-251.65 269,-250 315.12,-237.59 328.94,-248.17 376,-240 379.5,-239.39 383.14,-238.65 386.75,-237.83"/>
<polygon fill="#000000" fill-opacity="0.200000" stroke="#000000" stroke-width="2" stroke-opacity="0.200000" points="387.41,-239.83 392.76,-236.41 386.44,-235.75 387.41,-239.83"/>
</g>
<!-- src/config.ts -->
<g id="node8" class="node">
<title>src/config.ts</title>
<g id="a_node8"><a xlink:href="https://github.com/dragonman225/notablog/tree/master/src/config.ts" xlink:title="config.ts">
<path fill="#ddfeff" stroke="black" d="M235,-174C235,-174 191,-174 191,-174 188,-174 185,-171 185,-168 185,-168 185,-162 185,-162 185,-159 188,-156 191,-156 191,-156 235,-156 235,-156 238,-156 241,-159 241,-162 241,-162 241,-168 241,-168 241,-171 238,-174 235,-174"/>
<text text-anchor="middle" x="213" y="-162.8" font-family="Helvetica,sans-Serif" font-size="9.00">config.ts</text>
</a>
</g>
</g>
<!-- src/commands/generate.ts&#45;&gt;src/config.ts -->
<g id="edge6" class="edge">
<title>src/commands/generate.ts&#45;&gt;src/config.ts</title>
<path fill="none" stroke="#000000" stroke-width="2" stroke-opacity="0.200000" d="M154.06,-215.15C156.99,-213.45 159.7,-211.42 162,-209 170.32,-200.23 161.92,-191.99 170,-183 172.65,-180.06 175.85,-177.58 179.31,-175.49"/>
<polygon fill="#000000" fill-opacity="0.200000" stroke="#000000" stroke-width="2" stroke-opacity="0.200000" points="180.57,-177.2 184.89,-172.53 178.6,-173.49 180.57,-177.2"/>
</g>
<!-- src/parse&#45;table.ts -->
<g id="node9" class="node">
<title>src/parse&#45;table.ts</title>
<g id="a_node9"><a xlink:href="https://github.com/dragonman225/notablog/tree/master/src/parse-table.ts" xlink:title="parse&#45;table.ts">
<path fill="#ddfeff" stroke="black" d="M246,-320C246,-320 180,-320 180,-320 177,-320 174,-317 174,-314 174,-314 174,-308 174,-308 174,-305 177,-302 180,-302 180,-302 246,-302 246,-302 249,-302 252,-305 252,-308 252,-308 252,-314 252,-314 252,-317 249,-320 246,-320"/>
<text text-anchor="middle" x="213" y="-308.8" font-family="Helvetica,sans-Serif" font-size="9.00">parse&#45;table.ts</text>
</a>
</g>
</g>
<!-- src/commands/generate.ts&#45;&gt;src/parse&#45;table.ts -->
<g id="edge7" class="edge">
<title>src/commands/generate.ts&#45;&gt;src/parse&#45;table.ts</title>
<path fill="none" stroke="#000000" stroke-width="2" stroke-opacity="0.200000" d="M125.46,-233.27C132.85,-247.8 148.96,-276.02 170,-293 172.7,-295.18 175.71,-297.14 178.83,-298.89"/>
<polygon fill="#000000" fill-opacity="0.200000" stroke="#000000" stroke-width="2" stroke-opacity="0.200000" points="178.25,-300.96 184.55,-301.83 180.17,-297.22 178.25,-300.96"/>
</g>
<!-- src/render&#45;index.ts -->
<g id="node10" class="node">
<title>src/render&#45;index.ts</title>
<g id="a_node10"><a xlink:href="https://github.com/dragonman225/notablog/tree/master/src/render-index.ts" xlink:title="render&#45;index.ts">
<path fill="#ddfeff" stroke="black" d="M250,-248C250,-248 176,-248 176,-248 173,-248 170,-245 170,-242 170,-242 170,-236 170,-236 170,-233 173,-230 176,-230 176,-230 250,-230 250,-230 253,-230 256,-233 256,-236 256,-236 256,-242 256,-242 256,-245 253,-248 250,-248"/>
<text text-anchor="middle" x="213" y="-236.8" font-family="Helvetica,sans-Serif" font-size="9.00">render&#45;index.ts</text>
</a>
</g>
</g>
<!-- src/commands/generate.ts&#45;&gt;src/render&#45;index.ts -->
<g id="edge8" class="edge">
<title>src/commands/generate.ts&#45;&gt;src/render&#45;index.ts</title>
<path fill="none" stroke="#000000" stroke-width="2" stroke-opacity="0.200000" d="M154.11,-229.46C157.13,-229.96 160.22,-230.47 163.34,-230.98"/>
<polygon fill="#000000" fill-opacity="0.200000" stroke="#000000" stroke-width="2" stroke-opacity="0.200000" points="163.48,-233.13 169.74,-232.03 164.17,-228.99 163.48,-233.13"/>
</g>
<!-- src/render&#45;post.ts -->
<g id="node11" class="node">
<title>src/render&#45;post.ts</title>
<g id="a_node11"><a xlink:href="https://github.com/dragonman225/notablog/tree/master/src/render-post.ts" xlink:title="render&#45;post.ts">
<path fill="#ddfeff" stroke="black" d="M356.5,-276C356.5,-276 288.5,-276 288.5,-276 285.5,-276 282.5,-273 282.5,-270 282.5,-270 282.5,-264 282.5,-264 282.5,-261 285.5,-258 288.5,-258 288.5,-258 356.5,-258 356.5,-258 359.5,-258 362.5,-261 362.5,-264 362.5,-264 362.5,-270 362.5,-270 362.5,-273 359.5,-276 356.5,-276"/>
<text text-anchor="middle" x="322.5" y="-264.8" font-family="Helvetica,sans-Serif" font-size="9.00">render&#45;post.ts</text>
</a>
</g>
</g>
<!-- src/commands/generate.ts&#45;&gt;src/render&#45;post.ts -->
<g id="edge9" class="edge">
<title>src/commands/generate.ts&#45;&gt;src/render&#45;post.ts</title>
<path fill="none" stroke="#000000" stroke-width="2" stroke-opacity="0.200000" d="M128.51,-233.27C137.26,-243.26 152.74,-258.6 170,-265 203.99,-277.6 245.29,-277.21 276.18,-274.17"/>
<polygon fill="#000000" fill-opacity="0.200000" stroke="#000000" stroke-width="2" stroke-opacity="0.200000" points="276.47,-276.25 282.21,-273.53 276.02,-272.08 276.47,-276.25"/>
</g>
<!-- src/renderer.ts -->
<g id="node12" class="node">
<title>src/renderer.ts</title>
<g id="a_node12"><a xlink:href="https://github.com/dragonman225/notablog/tree/master/src/renderer.ts" xlink:title="renderer.ts">
<path fill="#ddfeff" stroke="black" d="M239.5,-218C239.5,-218 186.5,-218 186.5,-218 183.5,-218 180.5,-215 180.5,-212 180.5,-212 180.5,-206 180.5,-206 180.5,-203 183.5,-200 186.5,-200 186.5,-200 239.5,-200 239.5,-200 242.5,-200 245.5,-203 245.5,-206 245.5,-206 245.5,-212 245.5,-212 245.5,-215 242.5,-218 239.5,-218"/>
<text text-anchor="middle" x="213" y="-206.8" font-family="Helvetica,sans-Serif" font-size="9.00">renderer.ts</text>
</a>
</g>
</g>
<!-- src/commands/generate.ts&#45;&gt;src/renderer.ts -->
<g id="edge10" class="edge">
<title>src/commands/generate.ts&#45;&gt;src/renderer.ts</title>
<path fill="none" stroke="#000000" stroke-width="2" stroke-opacity="0.200000" d="M154.11,-218.54C160.65,-217.46 167.55,-216.33 174.23,-215.23"/>
<polygon fill="#000000" fill-opacity="0.200000" stroke="#000000" stroke-width="2" stroke-opacity="0.200000" points="174.7,-217.28 180.28,-214.23 174.02,-213.13 174.7,-217.28"/>
</g>
<!-- src/utils/notion.ts -->
<g id="node13" class="node">
<title>src/utils/notion.ts</title>
<g id="a_node13"><a xlink:href="https://github.com/dragonman225/notablog/tree/master/src/utils/notion.ts" xlink:title="notion.ts">
<path fill="#ddfeff" stroke="black" d="M442,-268C442,-268 398,-268 398,-268 395,-268 392,-265 392,-262 392,-262 392,-256 392,-256 392,-253 395,-250 398,-250 398,-250 442,-250 442,-250 445,-250 448,-253 448,-256 448,-256 448,-262 448,-262 448,-265 445,-268 442,-268"/>
<text text-anchor="middle" x="420" y="-256.8" font-family="Helvetica,sans-Serif" font-size="9.00">notion.ts</text>
</a>
</g>
</g>
<!-- src/commands/generate.ts&#45;&gt;src/utils/notion.ts -->
<g id="edge12" class="edge">
<title>src/commands/generate.ts&#45;&gt;src/utils/notion.ts</title>
<path fill="none" stroke="#000000" stroke-width="2" stroke-opacity="0.200000" d="M125.14,-233.05C132.11,-247.04 147.64,-273.39 170,-284 190.68,-293.81 353.9,-289.96 376,-284 385.35,-281.48 394.76,-276.37 402.38,-271.43"/>
<polygon fill="#000000" fill-opacity="0.200000" stroke="#000000" stroke-width="2" stroke-opacity="0.200000" points="403.56,-273.16 407.35,-268.06 401.2,-269.69 403.56,-273.16"/>
</g>
<!-- src/config.ts&#45;&gt;fs -->
<g id="edge20" class="edge">
<title>src/config.ts&#45;&gt;fs</title>
<path fill="none" stroke="#000000" stroke-dasharray="5,2" stroke-opacity="0.200000" d="M216.63,-155.79C222.48,-137.23 238.53,-95.68 269,-79 307.01,-58.19 427,-56.44 464,-79 481.91,-89.92 490.79,-113.63 494.88,-129.46"/>
<polygon fill="#000000" fill-opacity="0.200000" stroke="#000000" stroke-opacity="0.200000" points="492.93,-130.34 496.36,-135.69 497.02,-129.37 492.93,-130.34"/>
</g>
<!-- src/config.ts&#45;&gt;src/utils/misc.ts -->
<g id="edge19" class="edge">
<title>src/config.ts&#45;&gt;src/utils/misc.ts</title>
<path fill="none" stroke="#000000" stroke-width="2" stroke-opacity="0.200000" d="M241.24,-173.22C250.04,-175.66 259.88,-178.17 269,-180 292.51,-184.72 357.29,-178.99 376,-194 384.12,-200.51 376.67,-208.62 384,-216 385.12,-217.13 386.34,-218.16 387.65,-219.1"/>
<polygon fill="#000000" fill-opacity="0.200000" stroke="#000000" stroke-width="2" stroke-opacity="0.200000" points="386.75,-221.01 392.98,-222.31 388.92,-217.41 386.75,-221.01"/>
</g>
<!-- src/parse&#45;table.ts&#45;&gt;src/utils/notion.ts -->
<g id="edge25" class="edge">
<title>src/parse&#45;table.ts&#45;&gt;src/utils/notion.ts</title>
<path fill="none" stroke="#000000" stroke-width="2" stroke-opacity="0.200000" d="M234.94,-320.01C267.35,-332.47 330.64,-350.79 376,-326 396.13,-315 408.23,-290.1 414.25,-273.95"/>
<polygon fill="#000000" fill-opacity="0.200000" stroke="#000000" stroke-width="2" stroke-opacity="0.200000" points="416.33,-274.39 416.34,-268.03 412.36,-273 416.33,-274.39"/>
</g>
<!-- src/ntable.ts -->
<g id="node16" class="node">
<title>src/ntable.ts</title>
<g id="a_node16"><a xlink:href="https://github.com/dragonman225/notablog/tree/master/src/ntable.ts" xlink:title="ntable.ts">
<path fill="#ddfeff" stroke="black" d="M344.5,-320C344.5,-320 300.5,-320 300.5,-320 297.5,-320 294.5,-317 294.5,-314 294.5,-314 294.5,-308 294.5,-308 294.5,-305 297.5,-302 300.5,-302 300.5,-302 344.5,-302 344.5,-302 347.5,-302 350.5,-305 350.5,-308 350.5,-308 350.5,-314 350.5,-314 350.5,-317 347.5,-320 344.5,-320"/>
<text text-anchor="middle" x="322.5" y="-308.8" font-family="Helvetica,sans-Serif" font-size="9.00">ntable.ts</text>
</a>
</g>
</g>
<!-- src/parse&#45;table.ts&#45;&gt;src/ntable.ts -->
<g id="edge24" class="edge">
<title>src/parse&#45;table.ts&#45;&gt;src/ntable.ts</title>
<path fill="none" stroke="#000000" stroke-width="2" stroke-opacity="0.200000" d="M252.2,-311C263.91,-311 276.7,-311 288.07,-311"/>
<polygon fill="#000000" fill-opacity="0.200000" stroke="#000000" stroke-width="2" stroke-opacity="0.200000" points="288.22,-313.1 294.22,-311 288.22,-308.9 288.22,-313.1"/>
</g>
<!-- src/render&#45;index.ts&#45;&gt;fs -->
<g id="edge27" class="edge">
<title>src/render&#45;index.ts&#45;&gt;fs</title>
<path fill="none" stroke="#000000" stroke-dasharray="5,2" stroke-opacity="0.200000" d="M249.37,-229.79C251.84,-228.16 254.1,-226.25 256,-224 277.53,-198.48 248.14,-176.08 269,-150 303.59,-106.75 329.69,-112.88 384,-102 418.86,-95.02 432,-86.51 464,-102 476.03,-107.82 485.09,-120.2 490.82,-130.18"/>
<polygon fill="#000000" fill-opacity="0.200000" stroke="#000000" stroke-opacity="0.200000" points="489.11,-131.44 493.81,-135.72 492.81,-129.44 489.11,-131.44"/>
</g>
<!-- src/render&#45;index.ts&#45;&gt;path -->
<g id="edge28" class="edge">
<title>src/render&#45;index.ts&#45;&gt;path</title>
<path fill="none" stroke="#000000" stroke-dasharray="5,2" stroke-opacity="0.200000" d="M221.83,-248.23C230.83,-259.15 245.7,-278.1 256,-296 263.25,-308.6 258.31,-316.15 269,-326 323.04,-375.78 416.57,-372.34 465.71,-366.28"/>
<polygon fill="#000000" fill-opacity="0.200000" stroke="#000000" stroke-opacity="0.200000" points="466.09,-368.35 471.76,-365.49 465.54,-364.19 466.09,-368.35"/>
</g>
<!-- src/render&#45;index.ts&#45;&gt;src/utils/misc.ts -->
<g id="edge26" class="edge">
<title>src/render&#45;index.ts&#45;&gt;src/utils/misc.ts</title>
<path fill="none" stroke="#000000" stroke-width="2" stroke-opacity="0.200000" d="M256.48,-236.93C295.12,-235.04 351.33,-232.3 386.5,-230.59"/>
<polygon fill="#000000" fill-opacity="0.200000" stroke="#000000" stroke-width="2" stroke-opacity="0.200000" points="386.92,-232.67 392.81,-230.28 386.72,-228.47 386.92,-232.67"/>
</g>
<!-- src/render&#45;post.ts&#45;&gt;fs -->
<g id="edge31" class="edge">
<title>src/render&#45;post.ts&#45;&gt;fs</title>
<path fill="none" stroke="#000000" stroke-dasharray="5,2" stroke-opacity="0.200000" d="M337.74,-257.69C349.12,-249.74 364.94,-237.48 376,-224 380.79,-218.16 378.21,-213.85 384,-209 412.65,-184.99 432.68,-203.41 464,-183 473.52,-176.8 482.04,-167.26 488.17,-159.29"/>
<polygon fill="#000000" fill-opacity="0.200000" stroke="#000000" stroke-opacity="0.200000" points="490.14,-160.16 492.02,-154.09 486.76,-157.66 490.14,-160.16"/>
</g>
<!-- src/render&#45;post.ts&#45;&gt;path -->
<g id="edge32" class="edge">
<title>src/render&#45;post.ts&#45;&gt;path</title>
<path fill="none" stroke="#000000" stroke-dasharray="5,2" stroke-opacity="0.200000" d="M350.17,-276.04C359.74,-280.58 369.7,-287.06 376,-296 388.71,-314.04 368.22,-329.57 384,-345 405.08,-365.61 439.71,-367.78 465.28,-365.92"/>
<polygon fill="#000000" fill-opacity="0.200000" stroke="#000000" stroke-opacity="0.200000" points="465.78,-367.98 471.58,-365.37 465.41,-363.8 465.78,-367.98"/>
</g>
<!-- src/render&#45;post.ts&#45;&gt;src/utils/misc.ts -->
<g id="edge29" class="edge">
<title>src/render&#45;post.ts&#45;&gt;src/utils/misc.ts</title>
<path fill="none" stroke="#000000" stroke-width="2" stroke-opacity="0.200000" d="M353.68,-257.97C361.11,-255.39 368.95,-252.36 376,-249 379.79,-247.2 380.28,-245.94 384,-244 386.24,-242.83 388.59,-241.67 390.97,-240.55"/>
<polygon fill="#000000" fill-opacity="0.200000" stroke="#000000" stroke-width="2" stroke-opacity="0.200000" points="391.95,-242.42 396.54,-238.02 390.21,-238.59 391.95,-242.42"/>
</g>
<!-- src/render&#45;post.ts&#45;&gt;src/utils/notion.ts -->
<g id="edge30" class="edge">
<title>src/render&#45;post.ts&#45;&gt;src/utils/notion.ts</title>
<path fill="none" stroke="#000000" stroke-width="2" stroke-opacity="0.200000" d="M362.62,-263.72C370.27,-263.08 378.22,-262.42 385.65,-261.79"/>
<polygon fill="#000000" fill-opacity="0.200000" stroke="#000000" stroke-width="2" stroke-opacity="0.200000" points="385.96,-263.88 391.76,-261.28 385.61,-259.69 385.96,-263.88"/>
</g>
<!-- src/template&#45;provider.ts -->
<g id="node17" class="node">
<title>src/template&#45;provider.ts</title>
<g id="a_node17"><a xlink:href="https://github.com/dragonman225/notablog/tree/master/src/template-provider.ts" xlink:title="template&#45;provider.ts">
<path fill="#ddfeff" stroke="black" d="M370,-218C370,-218 275,-218 275,-218 272,-218 269,-215 269,-212 269,-212 269,-206 269,-206 269,-203 272,-200 275,-200 275,-200 370,-200 370,-200 373,-200 376,-203 376,-206 376,-206 376,-212 376,-212 376,-215 373,-218 370,-218"/>
<text text-anchor="middle" x="322.5" y="-206.8" font-family="Helvetica,sans-Serif" font-size="9.00">template&#45;provider.ts</text>
</a>
</g>
</g>
<!-- src/renderer.ts&#45;&gt;src/template&#45;provider.ts -->
<g id="edge33" class="edge">
<title>src/renderer.ts&#45;&gt;src/template&#45;provider.ts</title>
<path fill="none" stroke="#000000" stroke-width="2" stroke-opacity="0.200000" d="M245.67,-209C251.04,-209 256.76,-209 262.57,-209"/>
<polygon fill="#000000" fill-opacity="0.200000" stroke="#000000" stroke-width="2" stroke-opacity="0.200000" points="262.88,-211.1 268.88,-209 262.88,-206.9 262.88,-211.1"/>
</g>
<!-- src/commands/preview.ts -->
<g id="node14" class="node">
<title>src/commands/preview.ts</title>
<g id="a_node14"><a xlink:href="https://github.com/dragonman225/notablog/tree/master/src/commands/preview.ts" xlink:title="preview.ts">
<path fill="#ddfeff" stroke="black" d="M145,-203C145,-203 95,-203 95,-203 92,-203 89,-200 89,-197 89,-197 89,-191 89,-191 89,-188 92,-185 95,-185 95,-185 145,-185 145,-185 148,-185 151,-188 151,-191 151,-191 151,-197 151,-197 151,-200 148,-203 145,-203"/>
<text text-anchor="middle" x="120" y="-191.8" font-family="Helvetica,sans-Serif" font-size="9.00">preview.ts</text>
</a>
</g>
</g>
<!-- src/commands/preview.ts&#45;&gt;child_process -->
<g id="edge17" class="edge">
<title>src/commands/preview.ts&#45;&gt;child_process</title>
<path fill="none" stroke="#000000" stroke-dasharray="5,2" stroke-opacity="0.200000" d="M121.09,-184.75C121.84,-157.22 127.69,-74.69 170,-27 171.94,-24.82 174.19,-22.89 176.62,-21.19"/>
<polygon fill="#000000" fill-opacity="0.200000" stroke="#000000" stroke-opacity="0.200000" points="177.8,-22.93 181.82,-18.01 175.61,-19.34 177.8,-22.93"/>
</g>
<!-- src/commands/preview.ts&#45;&gt;path -->
<g id="edge18" class="edge">
<title>src/commands/preview.ts&#45;&gt;path</title>
<path fill="none" stroke="#000000" stroke-dasharray="5,2" stroke-opacity="0.200000" d="M151.14,-200.27C155.36,-202.39 159.21,-205.22 162,-209 172.18,-222.78 157.99,-350.78 170,-363 261.68,-456.35 336.66,-408.06 464,-378 468.79,-376.87 473.67,-374.96 478.18,-372.81"/>
<polygon fill="#000000" fill-opacity="0.200000" stroke="#000000" stroke-opacity="0.200000" points="479.28,-374.61 483.67,-370.01 477.37,-370.87 479.28,-374.61"/>
</g>
<!-- src/commands/preview.ts&#45;&gt;src/utils/misc.ts -->
<g id="edge16" class="edge">
<title>src/commands/preview.ts&#45;&gt;src/utils/misc.ts</title>
<path fill="none" stroke="#000000" stroke-width="2" stroke-opacity="0.200000" d="M127.34,-184.78C135.63,-173.61 151.34,-155.39 170,-148 255.13,-114.3 297.54,-100.82 376,-148 399.78,-162.3 411.11,-194.68 415.92,-213.88"/>
<polygon fill="#000000" fill-opacity="0.200000" stroke="#000000" stroke-width="2" stroke-opacity="0.200000" points="413.91,-214.48 417.31,-219.85 418,-213.53 413.91,-214.48"/>
</g>
<!-- src/commands/preview.ts&#45;&gt;src/config.ts -->
<g id="edge15" class="edge">
<title>src/commands/preview.ts&#45;&gt;src/config.ts</title>
<path fill="none" stroke="#000000" stroke-width="2" stroke-opacity="0.200000" d="M149.29,-184.98C158.71,-181.98 169.29,-178.61 179.03,-175.51"/>
<polygon fill="#000000" fill-opacity="0.200000" stroke="#000000" stroke-width="2" stroke-opacity="0.200000" points="179.89,-177.44 184.97,-173.61 178.61,-173.44 179.89,-177.44"/>
</g>
<!-- src/index.ts -->
<g id="node15" class="node">
<title>src/index.ts</title>
<g id="a_node15"><a xlink:href="https://github.com/dragonman225/notablog/tree/master/src/index.ts" xlink:title="index.ts">
<path fill="#ddfeff" stroke="black" d="M64,-218C64,-218 22,-218 22,-218 19,-218 16,-215 16,-212 16,-212 16,-206 16,-206 16,-203 19,-200 22,-200 22,-200 64,-200 64,-200 67,-200 70,-203 70,-206 70,-206 70,-212 70,-212 70,-215 67,-218 64,-218"/>
<text text-anchor="middle" x="43" y="-206.8" font-family="Helvetica,sans-Serif" font-size="9.00">index.ts</text>
</a>
</g>
</g>
<!-- src/index.ts&#45;&gt;src/commands/generate.ts -->
<g id="edge21" class="edge">
<title>src/index.ts&#45;&gt;src/commands/generate.ts</title>
<path fill="none" stroke="#000000" stroke-width="2" stroke-opacity="0.200000" d="M70.23,-214.25C73.4,-214.88 76.69,-215.54 79.99,-216.2"/>
<polygon fill="#000000" fill-opacity="0.200000" stroke="#000000" stroke-width="2" stroke-opacity="0.200000" points="79.63,-218.27 85.93,-217.39 80.45,-214.15 79.63,-218.27"/>
</g>
<!-- src/index.ts&#45;&gt;src/commands/preview.ts -->
<g id="edge22" class="edge">
<title>src/index.ts&#45;&gt;src/commands/preview.ts</title>
<path fill="none" stroke="#000000" stroke-width="2" stroke-opacity="0.200000" d="M70.23,-203.75C74.26,-202.95 78.48,-202.1 82.68,-201.26"/>
<polygon fill="#000000" fill-opacity="0.200000" stroke="#000000" stroke-width="2" stroke-opacity="0.200000" points="83.33,-203.28 88.8,-200.04 82.51,-199.16 83.33,-203.28"/>
</g>
<!-- src/ntable.ts&#45;&gt;src/utils/notion.ts -->
<g id="edge23" class="edge">
<title>src/ntable.ts&#45;&gt;src/utils/notion.ts</title>
<path fill="none" stroke="#000000" stroke-width="2" stroke-opacity="0.200000" d="M350.68,-303.62C359.06,-300.84 368.13,-297.29 376,-293 386.38,-287.34 396.81,-279.16 404.8,-272.25"/>
<polygon fill="#000000" fill-opacity="0.200000" stroke="#000000" stroke-width="2" stroke-opacity="0.200000" points="406.33,-273.69 409.43,-268.14 403.55,-270.55 406.33,-273.69"/>
</g>
<!-- src/template&#45;provider.ts&#45;&gt;fs -->
<g id="edge35" class="edge">
<title>src/template&#45;provider.ts&#45;&gt;fs</title>
<path fill="none" stroke="#000000" stroke-dasharray="5,2" stroke-opacity="0.200000" d="M347.89,-199.99C358.9,-195.95 372.08,-191.18 384,-187 419.41,-174.59 429.02,-173.59 464,-160 466.79,-158.92 469.68,-157.74 472.54,-156.53"/>
<polygon fill="#000000" fill-opacity="0.200000" stroke="#000000" stroke-opacity="0.200000" points="473.67,-158.33 478.35,-154.03 472.01,-154.47 473.67,-158.33"/>
</g>
<!-- src/template&#45;provider.ts&#45;&gt;path -->
<g id="edge36" class="edge">
<title>src/template&#45;provider.ts&#45;&gt;path</title>
<path fill="none" stroke="#000000" stroke-dasharray="5,2" stroke-opacity="0.200000" d="M340.42,-218.1C352.47,-225.54 367.9,-237.23 376,-252 390.42,-278.29 365.09,-295.72 384,-319 407.66,-348.13 429.02,-332.41 464,-346 466.79,-347.08 469.68,-348.26 472.54,-349.47"/>
<polygon fill="#000000" fill-opacity="0.200000" stroke="#000000" stroke-opacity="0.200000" points="472.01,-351.53 478.35,-351.97 473.67,-347.67 472.01,-351.53"/>
</g>
<!-- src/template&#45;provider.ts&#45;&gt;src/utils/misc.ts -->
<g id="edge34" class="edge">
<title>src/template&#45;provider.ts&#45;&gt;src/utils/misc.ts</title>
<path fill="none" stroke="#000000" stroke-width="2" stroke-opacity="0.200000" d="M366.5,-218.01C373.4,-219.45 380.43,-220.92 387.01,-222.3"/>
<polygon fill="#000000" fill-opacity="0.200000" stroke="#000000" stroke-width="2" stroke-opacity="0.200000" points="386.61,-224.36 392.92,-223.54 387.47,-220.25 386.61,-224.36"/>
</g>
</g>
</svg>
