<?xml version="1.0" encoding="UTF-8" standalone="no"?>
<!DOCTYPE svg PUBLIC "-//W3C//DTD SVG 1.1//EN"
 "http://www.w3.org/Graphics/SVG/1.1/DTD/svg11.dtd">
<!-- Generated by graphviz version 2.49.0 (0)
 -->
<!-- Title: dependency&#45;cruiser output Pages: 1 -->
<svg width="509pt" height="434pt"
 viewBox="0.00 0.00 509.00 434.48" xmlns="http://www.w3.org/2000/svg" xmlns:xlink="http://www.w3.org/1999/xlink">
<g id="graph0" class="graph" transform="scale(1 1) rotate(0) translate(4 430.48)">
<title>dependency&#45;cruiser output</title>
<polygon fill="white" stroke="transparent" points="-4,4 -4,-430.48 505,-430.48 505,4 -4,4"/>
<g id="clust1" class="cluster">
<title>cluster_src</title>
<path fill="#ffffff" stroke="black" stroke-width="2" d="M20,-123.16C20,-123.16 427,-123.16 427,-123.16 433,-123.16 439,-129.16 439,-135.16 439,-135.16 439,-337.16 439,-337.16 439,-343.16 433,-349.16 427,-349.16 427,-349.16 20,-349.16 20,-349.16 14,-349.16 8,-343.16 8,-337.16 8,-337.16 8,-135.16 8,-135.16 8,-129.16 14,-123.16 20,-123.16"/>
<text text-anchor="middle" x="223.5" y="-337.96" font-family="Helvetica,sans-Serif" font-weight="bold" font-size="9.00">src</text>
</g>
<!-- child_process -->
<g id="node1" class="node">
<title>child_process</title>
<path fill="#ffffcc" stroke="grey" d="M236.5,-115.16C236.5,-115.16 171.5,-115.16 171.5,-115.16 168.5,-115.16 165.5,-112.16 165.5,-109.16 165.5,-109.16 165.5,-103.16 165.5,-103.16 165.5,-100.16 168.5,-97.16 171.5,-97.16 171.5,-97.16 236.5,-97.16 236.5,-97.16 239.5,-97.16 242.5,-100.16 242.5,-103.16 242.5,-103.16 242.5,-109.16 242.5,-109.16 242.5,-112.16 239.5,-115.16 236.5,-115.16"/>
<text text-anchor="middle" x="204" y="-103.96" font-family="Helvetica,sans-Serif" font-size="9.00" fill="grey">child_process</text>
</g>
<!-- crypto -->
<g id="node2" class="node">
<title>crypto</title>
<path fill="#ffffcc" stroke="grey" d="M425,-115.16C425,-115.16 383,-115.16 383,-115.16 380,-115.16 377,-112.16 377,-109.16 377,-109.16 377,-103.16 377,-103.16 377,-100.16 380,-97.16 383,-97.16 383,-97.16 425,-97.16 425,-97.16 428,-97.16 431,-100.16 431,-103.16 431,-103.16 431,-109.16 431,-109.16 431,-112.16 428,-115.16 425,-115.16"/>
<text text-anchor="middle" x="404" y="-103.96" font-family="Helvetica,sans-Serif" font-size="9.00" fill="grey">crypto</text>
</g>
<!-- fs -->
<g id="node3" class="node">
<title>fs</title>
<path fill="#ffffcc" stroke="grey" d="M495,-87.16C495,-87.16 453,-87.16 453,-87.16 450,-87.16 447,-84.16 447,-81.16 447,-81.16 447,-75.16 447,-75.16 447,-72.16 450,-69.16 453,-69.16 453,-69.16 495,-69.16 495,-69.16 498,-69.16 501,-72.16 501,-75.16 501,-75.16 501,-81.16 501,-81.16 501,-84.16 498,-87.16 495,-87.16"/>
<text text-anchor="middle" x="474" y="-75.96" font-family="Helvetica,sans-Serif" font-size="9.00" fill="grey">fs</text>
</g>
<!-- path -->
<g id="node4" class="node">
<title>path</title>
<path fill="#ffffcc" stroke="grey" d="M495,-306.16C495,-306.16 453,-306.16 453,-306.16 450,-306.16 447,-303.16 447,-300.16 447,-300.16 447,-294.16 447,-294.16 447,-291.16 450,-288.16 453,-288.16 453,-288.16 495,-288.16 495,-288.16 498,-288.16 501,-291.16 501,-294.16 501,-294.16 501,-300.16 501,-300.16 501,-303.16 498,-306.16 495,-306.16"/>
<text text-anchor="middle" x="474" y="-294.96" font-family="Helvetica,sans-Serif" font-size="9.00" fill="grey">path</text>
</g>
<!-- src/cache.ts -->
<g id="node5" class="node">
<title>src/cache.ts</title>
<g id="a_node5"><a xlink:href="https://github.com/dragonman225/notablog/tree/master/src/cache.ts" xlink:title="cache.ts">
<path fill="#ddfeff" stroke="black" d="M332,-149.16C332,-149.16 289,-149.16 289,-149.16 286,-149.16 283,-146.16 283,-143.16 283,-143.16 283,-137.16 283,-137.16 283,-134.16 286,-131.16 289,-131.16 289,-131.16 332,-131.16 332,-131.16 335,-131.16 338,-134.16 338,-137.16 338,-137.16 338,-143.16 338,-143.16 338,-146.16 335,-149.16 332,-149.16"/>
<text text-anchor="middle" x="310.5" y="-137.96" font-family="Helvetica,sans-Serif" font-size="9.00">cache.ts</text>
</a>
</g>
</g>
<!-- src/cache.ts&#45;&gt;crypto -->
<g id="edge2" class="edge">
<title>src/cache.ts&#45;&gt;crypto</title>
<path fill="none" stroke="#000000" stroke-dasharray="5,2" stroke-opacity="0.200000" d="M336.02,-131.05C347.39,-126.82 361.02,-121.76 373,-117.31"/>
<polygon fill="#000000" fill-opacity="0.200000" stroke="#000000" stroke-opacity="0.200000" points="373.84,-119.23 378.73,-115.18 372.37,-115.3 373.84,-119.23"/>
</g>
<!-- src/cache.ts&#45;&gt;fs -->
<g id="edge3" class="edge">
<title>src/cache.ts&#45;&gt;fs</title>
<path fill="none" stroke="#000000" stroke-dasharray="5,2" stroke-opacity="0.200000" d="M320.73,-130.78C332.6,-119.35 354.39,-100.41 377,-91.16 397.14,-82.92 421.44,-79.69 440.55,-78.5"/>
<polygon fill="#000000" fill-opacity="0.200000" stroke="#000000" stroke-opacity="0.200000" points="440.94,-80.59 446.82,-78.18 440.72,-76.39 440.94,-80.59"/>
</g>
<!-- src/cache.ts&#45;&gt;path -->
<g id="edge4" class="edge">
<title>src/cache.ts&#45;&gt;path</title>
<path fill="none" stroke="#000000" stroke-dasharray="5,2" stroke-opacity="0.200000" d="M337.71,-149.21C347.33,-153.77 357.45,-160.27 364,-169.16 380.95,-192.18 358.53,-210.34 377,-232.16 396.09,-254.71 415.02,-238.9 439,-256.16 448.94,-263.32 457.7,-274.05 463.84,-282.74"/>
<polygon fill="#000000" fill-opacity="0.200000" stroke="#000000" stroke-opacity="0.200000" points="462.2,-284.05 467.31,-287.83 465.67,-281.69 462.2,-284.05"/>
</g>
<!-- src/utils.ts -->
<g id="node6" class="node">
<title>src/utils.ts</title>
<g id="a_node6"><a xlink:href="https://github.com/dragonman225/notablog/tree/master/src/utils.ts" xlink:title="utils.ts">
<path fill="#ddfeff" stroke="black" d="M425,-226.16C425,-226.16 383,-226.16 383,-226.16 380,-226.16 377,-223.16 377,-220.16 377,-220.16 377,-214.16 377,-214.16 377,-211.16 380,-208.16 383,-208.16 383,-208.16 425,-208.16 425,-208.16 428,-208.16 431,-211.16 431,-214.16 431,-214.16 431,-220.16 431,-220.16 431,-223.16 428,-226.16 425,-226.16"/>
<text text-anchor="middle" x="404" y="-214.96" font-family="Helvetica,sans-Serif" font-size="9.00">utils.ts</text>
</a>
</g>
</g>
<!-- src/cache.ts&#45;&gt;src/utils.ts -->
<g id="edge1" class="edge">
<title>src/cache.ts&#45;&gt;src/utils.ts</title>
<path fill="none" stroke="#000000" stroke-width="2" stroke-opacity="0.200000" d="M338.01,-145.58C346.89,-148.31 356.46,-152.32 364,-158.16 378.99,-169.76 390.08,-188.82 396.53,-202.13"/>
<polygon fill="#000000" fill-opacity="0.200000" stroke="#000000" stroke-width="2" stroke-opacity="0.200000" points="394.73,-203.23 399.16,-207.79 398.53,-201.46 394.73,-203.23"/>
</g>
<!-- src/utils.ts&#45;&gt;fs -->
<g id="edge37" class="edge">
<title>src/utils.ts&#45;&gt;fs</title>
<path fill="none" stroke="#000000" stroke-dasharray="5,2" stroke-opacity="0.200000" d="M424.23,-208.03C429.66,-204.65 435.14,-200.35 439,-195.16 462.2,-163.98 469.61,-117.29 471.95,-93.41"/>
<polygon fill="#000000" fill-opacity="0.200000" stroke="#000000" stroke-opacity="0.200000" points="474.05,-93.48 472.48,-87.32 469.87,-93.11 474.05,-93.48"/>
</g>
<!-- src/utils.ts&#45;&gt;path -->
<g id="edge38" class="edge">
<title>src/utils.ts&#45;&gt;path</title>
<path fill="none" stroke="#000000" stroke-dasharray="5,2" stroke-opacity="0.200000" d="M426.78,-226.26C431.15,-228.72 435.48,-231.69 439,-235.16 452.65,-248.61 462.29,-268.71 467.74,-282.35"/>
<polygon fill="#000000" fill-opacity="0.200000" stroke="#000000" stroke-opacity="0.200000" points="465.84,-283.26 469.95,-288.11 469.77,-281.76 465.84,-283.26"/>
</g>
<!-- src/config.ts -->
<g id="node7" class="node">
<title>src/config.ts</title>
<g id="a_node7"><a xlink:href="https://github.com/dragonman225/notablog/tree/master/src/config.ts" xlink:title="config.ts">
<path fill="#ddfeff" stroke="black" d="M226,-309.16C226,-309.16 182,-309.16 182,-309.16 179,-309.16 176,-306.16 176,-303.16 176,-303.16 176,-297.16 176,-297.16 176,-294.16 179,-291.16 182,-291.16 182,-291.16 226,-291.16 226,-291.16 229,-291.16 232,-294.16 232,-297.16 232,-297.16 232,-303.16 232,-303.16 232,-306.16 229,-309.16 226,-309.16"/>
<text text-anchor="middle" x="204" y="-297.96" font-family="Helvetica,sans-Serif" font-size="9.00">config.ts</text>
</a>
</g>
</g>
<!-- src/config.ts&#45;&gt;fs -->
<g id="edge6" class="edge">
<title>src/config.ts&#45;&gt;fs</title>
<path fill="none" stroke="#000000" stroke-dasharray="5,2" stroke-opacity="0.200000" d="M232.03,-294.35C236.66,-292.19 240.96,-289.22 244,-285.16 265.37,-256.6 235.92,-153.94 257,-125.16 298.53,-68.45 391.21,-68.83 440.58,-73.63"/>
<polygon fill="#000000" fill-opacity="0.200000" stroke="#000000" stroke-opacity="0.200000" points="440.49,-75.74 446.67,-74.27 440.92,-71.56 440.49,-75.74"/>
</g>
<!-- src/config.ts&#45;&gt;src/utils.ts -->
<g id="edge5" class="edge">
<title>src/config.ts&#45;&gt;src/utils.ts</title>
<path fill="none" stroke="#000000" stroke-width="2" stroke-opacity="0.200000" d="M232.19,-307.65C265.96,-315.28 323.97,-322.7 364,-297.16 386.39,-282.87 396.29,-251.7 400.39,-232.76"/>
<polygon fill="#000000" fill-opacity="0.200000" stroke="#000000" stroke-width="2" stroke-opacity="0.200000" points="402.54,-232.69 401.64,-226.39 398.42,-231.87 402.54,-232.69"/>
</g>
<!-- src/generate.ts -->
<g id="node8" class="node">
<title>src/generate.ts</title>
<g id="a_node8"><a xlink:href="https://github.com/dragonman225/notablog/tree/master/src/generate.ts" xlink:title="generate.ts">
<path fill="#ddfeff" stroke="black" d="M145,-235.16C145,-235.16 89,-235.16 89,-235.16 86,-235.16 83,-232.16 83,-229.16 83,-229.16 83,-223.16 83,-223.16 83,-220.16 86,-217.16 89,-217.16 89,-217.16 145,-217.16 145,-217.16 148,-217.16 151,-220.16 151,-223.16 151,-223.16 151,-229.16 151,-229.16 151,-232.16 148,-235.16 145,-235.16"/>
<text text-anchor="middle" x="117" y="-223.96" font-family="Helvetica,sans-Serif" font-size="9.00">generate.ts</text>
</a>
</g>
</g>
<!-- src/generate.ts&#45;&gt;fs -->
<g id="edge15" class="edge">
<title>src/generate.ts&#45;&gt;fs</title>
<path fill="none" stroke="#000000" stroke-dasharray="5,2" stroke-opacity="0.200000" d="M119.17,-217.09C122.52,-194.02 133.93,-132.06 164,-91.16 194.33,-49.9 208.33,-39.05 257,-23.16 333.9,1.96 368.63,13.75 439,-26.16 453.19,-34.21 462.48,-50.9 467.71,-63.21"/>
<polygon fill="#000000" fill-opacity="0.200000" stroke="#000000" stroke-opacity="0.200000" points="465.78,-64.04 469.95,-68.84 469.68,-62.49 465.78,-64.04"/>
</g>
<!-- src/generate.ts&#45;&gt;path -->
<g id="edge16" class="edge">
<title>src/generate.ts&#45;&gt;path</title>
<path fill="none" stroke="#000000" stroke-dasharray="5,2" stroke-opacity="0.200000" d="M123.44,-235.2C130.23,-246.65 142.05,-267.06 151,-285.16 157.44,-298.18 151.95,-307.04 164,-315.16 265.39,-383.44 322.12,-355.98 439,-320.16 445.89,-318.05 452.63,-314.02 458.28,-309.92"/>
<polygon fill="#000000" fill-opacity="0.200000" stroke="#000000" stroke-opacity="0.200000" points="459.66,-311.51 463.13,-306.18 457.09,-308.18 459.66,-311.51"/>
</g>
<!-- src/generate.ts&#45;&gt;src/cache.ts -->
<g id="edge7" class="edge">
<title>src/generate.ts&#45;&gt;src/cache.ts</title>
<path fill="none" stroke="#000000" stroke-width="2" stroke-opacity="0.200000" d="M121.08,-216.99C126.81,-201.49 140.69,-170.44 164,-156.16 198.23,-135.19 245.62,-134.01 276.89,-136.18"/>
<polygon fill="#000000" fill-opacity="0.200000" stroke="#000000" stroke-width="2" stroke-opacity="0.200000" points="276.78,-138.27 282.92,-136.65 277.11,-134.09 276.78,-138.27"/>
</g>
<!-- src/generate.ts&#45;&gt;src/utils.ts -->
<g id="edge14" class="edge">
<title>src/generate.ts&#45;&gt;src/utils.ts</title>
<path fill="none" stroke="#000000" stroke-width="2" stroke-opacity="0.200000" d="M121.98,-216.82C128.47,-202.98 142.76,-177.53 164,-167.16 181.03,-158.84 345.05,-159.94 364,-169.16 378.31,-176.11 389.12,-191.1 395.69,-202.49"/>
<polygon fill="#000000" fill-opacity="0.200000" stroke="#000000" stroke-width="2" stroke-opacity="0.200000" points="394.01,-203.8 398.73,-208.05 397.69,-201.78 394.01,-203.8"/>
</g>
<!-- src/generate.ts&#45;&gt;src/config.ts -->
<g id="edge8" class="edge">
<title>src/generate.ts&#45;&gt;src/config.ts</title>
<path fill="none" stroke="#000000" stroke-width="2" stroke-opacity="0.200000" d="M123.04,-235.42C130.44,-248.24 145.43,-271.39 164,-285.16 166.03,-286.66 168.23,-288.04 170.52,-289.29"/>
<polygon fill="#000000" fill-opacity="0.200000" stroke="#000000" stroke-width="2" stroke-opacity="0.200000" points="169.67,-291.21 175.98,-291.99 171.53,-287.44 169.67,-291.21"/>
</g>
<!-- src/notion&#45;utils.ts -->
<g id="node9" class="node">
<title>src/notion&#45;utils.ts</title>
<g id="a_node9"><a xlink:href="https://github.com/dragonman225/notablog/tree/master/src/notion-utils.ts" xlink:title="notion&#45;utils.ts">
<path fill="#ddfeff" stroke="black" d="M343.5,-281.16C343.5,-281.16 277.5,-281.16 277.5,-281.16 274.5,-281.16 271.5,-278.16 271.5,-275.16 271.5,-275.16 271.5,-269.16 271.5,-269.16 271.5,-266.16 274.5,-263.16 277.5,-263.16 277.5,-263.16 343.5,-263.16 343.5,-263.16 346.5,-263.16 349.5,-266.16 349.5,-269.16 349.5,-269.16 349.5,-275.16 349.5,-275.16 349.5,-278.16 346.5,-281.16 343.5,-281.16"/>
<text text-anchor="middle" x="310.5" y="-269.96" font-family="Helvetica,sans-Serif" font-size="9.00">notion&#45;utils.ts</text>
</a>
</g>
</g>
<!-- src/generate.ts&#45;&gt;src/notion&#45;utils.ts -->
<g id="edge9" class="edge">
<title>src/generate.ts&#45;&gt;src/notion&#45;utils.ts</title>
<path fill="none" stroke="#000000" stroke-width="2" stroke-opacity="0.200000" d="M143.6,-235.22C150.19,-237.35 157.32,-239.49 164,-241.16 199.02,-249.89 208.72,-247.51 244,-255.16 252.68,-257.04 261.94,-259.29 270.68,-261.53"/>
<polygon fill="#000000" fill-opacity="0.200000" stroke="#000000" stroke-width="2" stroke-opacity="0.200000" points="270.3,-263.6 276.64,-263.08 271.36,-259.54 270.3,-263.6"/>
</g>
<!-- src/parse&#45;table.ts -->
<g id="node10" class="node">
<title>src/parse&#45;table.ts</title>
<g id="a_node10"><a xlink:href="https://github.com/dragonman225/notablog/tree/master/src/parse-table.ts" xlink:title="parse&#45;table.ts">
<path fill="#ddfeff" stroke="black" d="M237,-279.16C237,-279.16 171,-279.16 171,-279.16 168,-279.16 165,-276.16 165,-273.16 165,-273.16 165,-267.16 165,-267.16 165,-264.16 168,-261.16 171,-261.16 171,-261.16 237,-261.16 237,-261.16 240,-261.16 243,-264.16 243,-267.16 243,-267.16 243,-273.16 243,-273.16 243,-276.16 240,-279.16 237,-279.16"/>
<text text-anchor="middle" x="204" y="-267.96" font-family="Helvetica,sans-Serif" font-size="9.00">parse&#45;table.ts</text>
</a>
</g>
</g>
<!-- src/generate.ts&#45;&gt;src/parse&#45;table.ts -->
<g id="edge10" class="edge">
<title>src/generate.ts&#45;&gt;src/parse&#45;table.ts</title>
<path fill="none" stroke="#000000" stroke-width="2" stroke-opacity="0.200000" d="M133.58,-235.39C142.41,-240.51 153.71,-246.89 164,-252.16 168.2,-254.31 172.71,-256.5 177.11,-258.57"/>
<polygon fill="#000000" fill-opacity="0.200000" stroke="#000000" stroke-width="2" stroke-opacity="0.200000" points="176.28,-260.5 182.61,-261.13 178.05,-256.69 176.28,-260.5"/>
</g>
<!-- src/render&#45;index.ts -->
<g id="node11" class="node">
<title>src/render&#45;index.ts</title>
<g id="a_node11"><a xlink:href="https://github.com/dragonman225/notablog/tree/master/src/render-index.ts" xlink:title="render&#45;index.ts">
<path fill="#ddfeff" stroke="black" d="M347.5,-193.16C347.5,-193.16 273.5,-193.16 273.5,-193.16 270.5,-193.16 267.5,-190.16 267.5,-187.16 267.5,-187.16 267.5,-181.16 267.5,-181.16 267.5,-178.16 270.5,-175.16 273.5,-175.16 273.5,-175.16 347.5,-175.16 347.5,-175.16 350.5,-175.16 353.5,-178.16 353.5,-181.16 353.5,-181.16 353.5,-187.16 353.5,-187.16 353.5,-190.16 350.5,-193.16 347.5,-193.16"/>
<text text-anchor="middle" x="310.5" y="-181.96" font-family="Helvetica,sans-Serif" font-size="9.00">render&#45;index.ts</text>
</a>
</g>
</g>
<!-- src/generate.ts&#45;&gt;src/render&#45;index.ts -->
<g id="edge11" class="edge">
<title>src/generate.ts&#45;&gt;src/render&#45;index.ts</title>
<path fill="none" stroke="#000000" stroke-width="2" stroke-opacity="0.200000" d="M123.86,-217.15C131.56,-206.23 146.21,-188.41 164,-181.16 195.67,-168.24 234.53,-169.83 264.12,-174.18"/>
<polygon fill="#000000" fill-opacity="0.200000" stroke="#000000" stroke-width="2" stroke-opacity="0.200000" points="264.04,-176.3 270.29,-175.15 264.69,-172.15 264.04,-176.3"/>
</g>
<!-- src/render&#45;post.ts -->
<g id="node12" class="node">
<title>src/render&#45;post.ts</title>
<g id="a_node12"><a xlink:href="https://github.com/dragonman225/notablog/tree/master/src/render-post.ts" xlink:title="render&#45;post.ts">
<path fill="#ddfeff" stroke="black" d="M238,-235.16C238,-235.16 170,-235.16 170,-235.16 167,-235.16 164,-232.16 164,-229.16 164,-229.16 164,-223.16 164,-223.16 164,-220.16 167,-217.16 170,-217.16 170,-217.16 238,-217.16 238,-217.16 241,-217.16 244,-220.16 244,-223.16 244,-223.16 244,-229.16 244,-229.16 244,-232.16 241,-235.16 238,-235.16"/>
<text text-anchor="middle" x="204" y="-223.96" font-family="Helvetica,sans-Serif" font-size="9.00">render&#45;post.ts</text>
</a>
</g>
</g>
<!-- src/generate.ts&#45;&gt;src/render&#45;post.ts -->
<g id="edge12" class="edge">
<title>src/generate.ts&#45;&gt;src/render&#45;post.ts</title>
<path fill="none" stroke="#000000" stroke-width="2" stroke-opacity="0.200000" d="M151.11,-226.16C153.34,-226.16 155.6,-226.16 157.88,-226.16"/>
<polygon fill="#000000" fill-opacity="0.200000" stroke="#000000" stroke-width="2" stroke-opacity="0.200000" points="157.9,-228.26 163.9,-226.16 157.9,-224.06 157.9,-228.26"/>
</g>
<!-- src/renderer.ts -->
<g id="node13" class="node">
<title>src/renderer.ts</title>
<g id="a_node13"><a xlink:href="https://github.com/dragonman225/notablog/tree/master/src/renderer.ts" xlink:title="renderer.ts">
<path fill="#ddfeff" stroke="black" d="M230.5,-205.16C230.5,-205.16 177.5,-205.16 177.5,-205.16 174.5,-205.16 171.5,-202.16 171.5,-199.16 171.5,-199.16 171.5,-193.16 171.5,-193.16 171.5,-190.16 174.5,-187.16 177.5,-187.16 177.5,-187.16 230.5,-187.16 230.5,-187.16 233.5,-187.16 236.5,-190.16 236.5,-193.16 236.5,-193.16 236.5,-199.16 236.5,-199.16 236.5,-202.16 233.5,-205.16 230.5,-205.16"/>
<text text-anchor="middle" x="204" y="-193.96" font-family="Helvetica,sans-Serif" font-size="9.00">renderer.ts</text>
</a>
</g>
</g>
<!-- src/generate.ts&#45;&gt;src/renderer.ts -->
<g id="edge13" class="edge">
<title>src/generate.ts&#45;&gt;src/renderer.ts</title>
<path fill="none" stroke="#000000" stroke-width="2" stroke-opacity="0.200000" d="M143.5,-217.16C152.25,-214.07 162.14,-210.58 171.32,-207.34"/>
<polygon fill="#000000" fill-opacity="0.200000" stroke="#000000" stroke-width="2" stroke-opacity="0.200000" points="172.26,-209.23 177.22,-205.26 170.86,-205.27 172.26,-209.23"/>
</g>
<!-- src/parse&#45;table.ts&#45;&gt;src/utils.ts -->
<g id="edge20" class="edge">
<title>src/parse&#45;table.ts&#45;&gt;src/utils.ts</title>
<path fill="none" stroke="#000000" stroke-width="2" stroke-opacity="0.200000" d="M227.4,-279.2C236.43,-282.39 247.06,-285.57 257,-287.16 303.96,-294.64 323,-311.25 364,-287.16 383.91,-275.46 394.39,-249.51 399.31,-232.7"/>
<polygon fill="#000000" fill-opacity="0.200000" stroke="#000000" stroke-width="2" stroke-opacity="0.200000" points="401.43,-232.89 400.98,-226.55 397.38,-231.79 401.43,-232.89"/>
</g>
<!-- src/parse&#45;table.ts&#45;&gt;src/notion&#45;utils.ts -->
<g id="edge19" class="edge">
<title>src/parse&#45;table.ts&#45;&gt;src/notion&#45;utils.ts</title>
<path fill="none" stroke="#000000" stroke-width="2" stroke-opacity="0.200000" d="M243.02,-270.89C250.23,-271.02 257.82,-271.17 265.2,-271.31"/>
<polygon fill="#000000" fill-opacity="0.200000" stroke="#000000" stroke-width="2" stroke-opacity="0.200000" points="265.29,-273.41 271.33,-271.43 265.37,-269.21 265.29,-273.41"/>
</g>
<!-- src/render&#45;index.ts&#45;&gt;fs -->
<g id="edge26" class="edge">
<title>src/render&#45;index.ts&#45;&gt;fs</title>
<path fill="none" stroke="#000000" stroke-dasharray="5,2" stroke-opacity="0.200000" d="M337.87,-175.09C365.11,-164.86 407.91,-146.32 439,-121.16 449.02,-113.05 457.95,-101.49 464.14,-92.39"/>
<polygon fill="#000000" fill-opacity="0.200000" stroke="#000000" stroke-opacity="0.200000" points="465.91,-93.53 467.46,-87.37 462.4,-91.22 465.91,-93.53"/>
</g>
<!-- src/render&#45;index.ts&#45;&gt;path -->
<g id="edge27" class="edge">
<title>src/render&#45;index.ts&#45;&gt;path</title>
<path fill="none" stroke="#000000" stroke-dasharray="5,2" stroke-opacity="0.200000" d="M336.73,-193.28C346.45,-197.91 356.9,-204.44 364,-213.16 376.33,-228.31 363.97,-240.6 377,-255.16 397.05,-277.55 411.47,-270.09 439,-282.16 441.6,-283.3 444.3,-284.49 447.01,-285.67"/>
<polygon fill="#000000" fill-opacity="0.200000" stroke="#000000" stroke-opacity="0.200000" points="446.17,-287.6 452.51,-288.1 447.87,-283.76 446.17,-287.6"/>
</g>
<!-- src/render&#45;index.ts&#45;&gt;src/utils.ts -->
<g id="edge25" class="edge">
<title>src/render&#45;index.ts&#45;&gt;src/utils.ts</title>
<path fill="none" stroke="#000000" stroke-width="2" stroke-opacity="0.200000" d="M338.55,-193.22C346.74,-196.02 355.76,-199.16 364,-202.16 367.32,-203.36 370.79,-204.66 374.23,-205.95"/>
<polygon fill="#000000" fill-opacity="0.200000" stroke="#000000" stroke-width="2" stroke-opacity="0.200000" points="373.6,-207.96 379.96,-208.13 375.09,-204.04 373.6,-207.96"/>
</g>
<!-- src/render&#45;post.ts&#45;&gt;fs -->
<g id="edge30" class="edge">
<title>src/render&#45;post.ts&#45;&gt;fs</title>
<path fill="none" stroke="#000000" stroke-dasharray="5,2" stroke-opacity="0.200000" d="M237.74,-217.11C240.12,-215.45 242.27,-213.49 244,-211.16 266.5,-180.95 229.36,-67.75 257,-42.16 286.67,-14.68 401.86,-26.15 439,-42.16 449.26,-46.58 457.87,-55.8 463.86,-63.79"/>
<polygon fill="#000000" fill-opacity="0.200000" stroke="#000000" stroke-opacity="0.200000" points="462.4,-65.37 467.57,-69.06 465.83,-62.95 462.4,-65.37"/>
</g>
<!-- src/render&#45;post.ts&#45;&gt;path -->
<g id="edge31" class="edge">
<title>src/render&#45;post.ts&#45;&gt;path</title>
<path fill="none" stroke="#000000" stroke-dasharray="5,2" stroke-opacity="0.200000" d="M221.08,-235.24C228.85,-240.28 237.8,-247.15 244,-255.16 253.4,-267.3 244.71,-277.96 257,-287.16 310.94,-327.51 395.39,-316.21 441.07,-305.84"/>
<polygon fill="#000000" fill-opacity="0.200000" stroke="#000000" stroke-opacity="0.200000" points="441.62,-307.86 446.99,-304.45 440.67,-303.77 441.62,-307.86"/>
</g>
<!-- src/render&#45;post.ts&#45;&gt;src/utils.ts -->
<g id="edge29" class="edge">
<title>src/render&#45;post.ts&#45;&gt;src/utils.ts</title>
<path fill="none" stroke="#000000" stroke-width="2" stroke-opacity="0.200000" d="M227.4,-235.2C236.43,-238.39 247.06,-241.57 257,-243.16 303.96,-250.64 318.48,-256.94 364,-243.16 372.69,-240.53 381.21,-235.25 388.06,-230.14"/>
<polygon fill="#000000" fill-opacity="0.200000" stroke="#000000" stroke-width="2" stroke-opacity="0.200000" points="389.53,-231.66 392.95,-226.3 386.93,-228.35 389.53,-231.66"/>
</g>
<!-- src/render&#45;post.ts&#45;&gt;src/notion&#45;utils.ts -->
<g id="edge28" class="edge">
<title>src/render&#45;post.ts&#45;&gt;src/notion&#45;utils.ts</title>
<path fill="none" stroke="#000000" stroke-width="2" stroke-opacity="0.200000" d="M226.9,-235.22C232.6,-237.86 238.64,-240.92 244,-244.16 250.24,-247.93 250.58,-250.71 257,-254.16 261.64,-256.65 266.68,-258.9 271.76,-260.89"/>
<polygon fill="#000000" fill-opacity="0.200000" stroke="#000000" stroke-width="2" stroke-opacity="0.200000" points="271.35,-262.98 277.7,-263.12 272.82,-259.05 271.35,-262.98"/>
</g>
<!-- src/renderer.ts&#45;&gt;src/utils.ts -->
<g id="edge33" class="edge">
<title>src/renderer.ts&#45;&gt;src/utils.ts</title>
<path fill="none" stroke="#000000" stroke-width="2" stroke-opacity="0.200000" d="M236.81,-199.53C273.6,-203.43 333.83,-209.82 370.78,-213.74"/>
<polygon fill="#000000" fill-opacity="0.200000" stroke="#000000" stroke-width="2" stroke-opacity="0.200000" points="370.77,-215.85 376.96,-214.4 371.21,-211.67 370.77,-215.85"/>
</g>
<!-- src/template&#45;provider.ts -->
<g id="node16" class="node">
<title>src/template&#45;provider.ts</title>
<g id="a_node16"><a xlink:href="https://github.com/dragonman225/notablog/tree/master/src/template-provider.ts" xlink:title="template&#45;provider.ts">
<path fill="#ddfeff" stroke="black" d="M358,-237.16C358,-237.16 263,-237.16 263,-237.16 260,-237.16 257,-234.16 257,-231.16 257,-231.16 257,-225.16 257,-225.16 257,-222.16 260,-219.16 263,-219.16 263,-219.16 358,-219.16 358,-219.16 361,-219.16 364,-222.16 364,-225.16 364,-225.16 364,-231.16 364,-231.16 364,-234.16 361,-237.16 358,-237.16"/>
<text text-anchor="middle" x="310.5" y="-225.96" font-family="Helvetica,sans-Serif" font-size="9.00">template&#45;provider.ts</text>
</a>
</g>
</g>
<!-- src/renderer.ts&#45;&gt;src/template&#45;provider.ts -->
<g id="edge32" class="edge">
<title>src/renderer.ts&#45;&gt;src/template&#45;provider.ts</title>
<path fill="none" stroke="#000000" stroke-width="2" stroke-opacity="0.200000" d="M234.67,-205.24C246.91,-208.99 261.2,-213.37 274,-217.29"/>
<polygon fill="#000000" fill-opacity="0.200000" stroke="#000000" stroke-width="2" stroke-opacity="0.200000" points="273.41,-219.3 279.76,-219.05 274.64,-215.29 273.41,-219.3"/>
</g>
<!-- src/index.ts -->
<g id="node14" class="node">
<title>src/index.ts</title>
<g id="a_node14"><a xlink:href="https://github.com/dragonman225/notablog/tree/master/src/index.ts" xlink:title="index.ts">
<path fill="#ddfeff" stroke="black" d="M64,-272.16C64,-272.16 22,-272.16 22,-272.16 19,-272.16 16,-269.16 16,-266.16 16,-266.16 16,-260.16 16,-260.16 16,-257.16 19,-254.16 22,-254.16 22,-254.16 64,-254.16 64,-254.16 67,-254.16 70,-257.16 70,-260.16 70,-260.16 70,-266.16 70,-266.16 70,-269.16 67,-272.16 64,-272.16"/>
<text text-anchor="middle" x="43" y="-260.96" font-family="Helvetica,sans-Serif" font-size="9.00">index.ts</text>
</a>
</g>
</g>
<!-- src/index.ts&#45;&gt;src/generate.ts -->
<g id="edge17" class="edge">
<title>src/index.ts&#45;&gt;src/generate.ts</title>
<path fill="none" stroke="#000000" stroke-width="2" stroke-opacity="0.200000" d="M61.8,-254.01C71.21,-249.17 82.89,-243.17 92.98,-237.99"/>
<polygon fill="#000000" fill-opacity="0.200000" stroke="#000000" stroke-width="2" stroke-opacity="0.200000" points="94.03,-239.81 98.41,-235.2 92.11,-236.07 94.03,-239.81"/>
</g>
<!-- src/preview.ts -->
<g id="node15" class="node">
<title>src/preview.ts</title>
<g id="a_node15"><a xlink:href="https://github.com/dragonman225/notablog/tree/master/src/preview.ts" xlink:title="preview.ts">
<path fill="#ddfeff" stroke="black" d="M142,-309.16C142,-309.16 92,-309.16 92,-309.16 89,-309.16 86,-306.16 86,-303.16 86,-303.16 86,-297.16 86,-297.16 86,-294.16 89,-291.16 92,-291.16 92,-291.16 142,-291.16 142,-291.16 145,-291.16 148,-294.16 148,-297.16 148,-297.16 148,-303.16 148,-303.16 148,-306.16 145,-309.16 142,-309.16"/>
<text text-anchor="middle" x="117" y="-297.96" font-family="Helvetica,sans-Serif" font-size="9.00">preview.ts</text>
</a>
</g>
</g>
<!-- src/index.ts&#45;&gt;src/preview.ts -->
<g id="edge18" class="edge">
<title>src/index.ts&#45;&gt;src/preview.ts</title>
<path fill="none" stroke="#000000" stroke-width="2" stroke-opacity="0.200000" d="M61.8,-272.3C71.21,-277.14 82.89,-283.14 92.98,-288.33"/>
<polygon fill="#000000" fill-opacity="0.200000" stroke="#000000" stroke-width="2" stroke-opacity="0.200000" points="92.11,-290.24 98.41,-291.12 94.03,-286.51 92.11,-290.24"/>
</g>
<!-- src/preview.ts&#45;&gt;child_process -->
<g id="edge23" class="edge">
<title>src/preview.ts&#45;&gt;child_process</title>
<path fill="none" stroke="#000000" stroke-dasharray="5,2" stroke-opacity="0.200000" d="M124.62,-291.09C132.38,-279.95 144.94,-260.17 151,-241.16 159.21,-215.39 147.28,-141.41 164,-120.16 164.18,-119.93 164.36,-119.71 164.55,-119.49"/>
<polygon fill="#000000" fill-opacity="0.200000" stroke="#000000" stroke-opacity="0.200000" points="165.98,-121.02 168.95,-115.4 163.12,-117.95 165.98,-121.02"/>
</g>
<!-- src/preview.ts&#45;&gt;path -->
<g id="edge24" class="edge">
<title>src/preview.ts&#45;&gt;path</title>
<path fill="none" stroke="#000000" stroke-dasharray="5,2" stroke-opacity="0.200000" d="M120.2,-309.27C124.89,-326.42 137.65,-363.11 164,-378.16 270.13,-438.78 337.22,-445.82 439,-378.16 461.04,-363.51 468.82,-331.5 471.55,-312.4"/>
<polygon fill="#000000" fill-opacity="0.200000" stroke="#000000" stroke-opacity="0.200000" points="473.66,-312.44 472.32,-306.23 469.49,-311.92 473.66,-312.44"/>
</g>
<!-- src/preview.ts&#45;&gt;src/utils.ts -->
<g id="edge22" class="edge">
<title>src/preview.ts&#45;&gt;src/utils.ts</title>
<path fill="none" stroke="#000000" stroke-width="2" stroke-opacity="0.200000" d="M140.53,-309.19C187.06,-326.22 295.16,-357.26 364,-309.16 389.39,-291.42 398.33,-253.68 401.42,-232.46"/>
<polygon fill="#000000" fill-opacity="0.200000" stroke="#000000" stroke-width="2" stroke-opacity="0.200000" points="403.51,-232.67 402.2,-226.45 399.35,-232.13 403.51,-232.67"/>
</g>
<!-- src/preview.ts&#45;&gt;src/config.ts -->
<g id="edge21" class="edge">
<title>src/preview.ts&#45;&gt;src/config.ts</title>
<path fill="none" stroke="#000000" stroke-width="2" stroke-opacity="0.200000" d="M148.21,-300.16C155.08,-300.16 162.41,-300.16 169.41,-300.16"/>
<polygon fill="#000000" fill-opacity="0.200000" stroke="#000000" stroke-width="2" stroke-opacity="0.200000" points="169.72,-302.26 175.72,-300.16 169.72,-298.06 169.72,-302.26"/>
</g>
<!-- src/template&#45;provider.ts&#45;&gt;fs -->
<g id="edge35" class="edge">
<title>src/template&#45;provider.ts&#45;&gt;fs</title>
<path fill="none" stroke="#000000" stroke-dasharray="5,2" stroke-opacity="0.200000" d="M334.19,-219.15C362.18,-207.02 409.65,-182.99 439,-149.16 453.42,-132.54 463.15,-108.74 468.39,-93.37"/>
<polygon fill="#000000" fill-opacity="0.200000" stroke="#000000" stroke-opacity="0.200000" points="470.49,-93.7 470.36,-87.34 466.5,-92.39 470.49,-93.7"/>
</g>
<!-- src/template&#45;provider.ts&#45;&gt;path -->
<g id="edge36" class="edge">
<title>src/template&#45;provider.ts&#45;&gt;path</title>
<path fill="none" stroke="#000000" stroke-dasharray="5,2" stroke-opacity="0.200000" d="M334.32,-237.25C344.32,-242.06 355.64,-248.73 364,-257.16 372.54,-265.77 367.13,-274.11 377,-281.16 395.32,-294.23 420.57,-298.03 440.58,-298.67"/>
<polygon fill="#000000" fill-opacity="0.200000" stroke="#000000" stroke-opacity="0.200000" points="440.57,-300.77 446.61,-298.77 440.64,-296.57 440.57,-300.77"/>
</g>
<!-- src/template&#45;provider.ts&#45;&gt;src/utils.ts -->
<g id="edge34" class="edge">
<title>src/template&#45;provider.ts&#45;&gt;src/utils.ts</title>
<path fill="none" stroke="#000000" stroke-width="2" stroke-opacity="0.200000" d="M364.2,-221.82C366.34,-221.56 368.47,-221.31 370.55,-221.06"/>
<polygon fill="#000000" fill-opacity="0.200000" stroke="#000000" stroke-width="2" stroke-opacity="0.200000" points="370.95,-223.13 376.66,-220.32 370.45,-218.96 370.95,-223.13"/>
</g>
</g>
</svg>
