<?xml version="1.0" encoding="UTF-8" standalone="no"?>
<!DOCTYPE svg PUBLIC "-//W3C//DTD SVG 1.1//EN"
 "http://www.w3.org/Graphics/SVG/1.1/DTD/svg11.dtd">
<!-- Generated by graphviz version 2.42.3 (0)
 -->
<!-- Title: dependency&#45;cruiser output Pages: 1 -->
<svg width="303pt" height="216pt"
 viewBox="0.00 0.00 303.00 216.00" xmlns="http://www.w3.org/2000/svg" xmlns:xlink="http://www.w3.org/1999/xlink">
<g id="graph0" class="graph" transform="scale(1 1) rotate(0) translate(4 212)">
<title>dependency&#45;cruiser output</title>
<polygon fill="white" stroke="transparent" points="-4,4 -4,-212 299,-212 299,4 -4,4"/>
<g id="clust1" class="cluster">
<title>cluster_src</title>
<path fill="#ffffff" stroke="black" stroke-width="2" d="M20,-26C20,-26 275,-26 275,-26 281,-26 287,-32 287,-38 287,-38 287,-170 287,-170 287,-176 281,-182 275,-182 275,-182 20,-182 20,-182 14,-182 8,-176 8,-170 8,-170 8,-38 8,-38 8,-32 14,-26 20,-26"/>
<text text-anchor="middle" x="147.5" y="-170.8" font-family="Helvetica,sans-Serif" font-weight="bold" font-size="9.00">src</text>
</g>
<!-- fs -->
<g id="node1" class="node">
<title>fs</title>
<path fill="#ffffcc" stroke="grey" d="M261.5,-208C261.5,-208 219.5,-208 219.5,-208 216.5,-208 213.5,-205 213.5,-202 213.5,-202 213.5,-196 213.5,-196 213.5,-193 216.5,-190 219.5,-190 219.5,-190 261.5,-190 261.5,-190 264.5,-190 267.5,-193 267.5,-196 267.5,-196 267.5,-202 267.5,-202 267.5,-205 264.5,-208 261.5,-208"/>
<text text-anchor="middle" x="240.5" y="-196.8" font-family="Helvetica,sans-Serif" font-size="9.00" fill="grey">fs</text>
</g>
<!-- path -->
<g id="node2" class="node">
<title>path</title>
<path fill="#ffffcc" stroke="grey" d="M261.5,-18C261.5,-18 219.5,-18 219.5,-18 216.5,-18 213.5,-15 213.5,-12 213.5,-12 213.5,-6 213.5,-6 213.5,-3 216.5,0 219.5,0 219.5,0 261.5,0 261.5,0 264.5,0 267.5,-3 267.5,-6 267.5,-6 267.5,-12 267.5,-12 267.5,-15 264.5,-18 261.5,-18"/>
<text text-anchor="middle" x="240.5" y="-6.8" font-family="Helvetica,sans-Serif" font-size="9.00" fill="grey">path</text>
</g>
<!-- src/index.js -->
<g id="node3" class="node">
<title>src/index.js</title>
<g id="a_node3"><a xlink:href="https://github.com/dragonman225/notablog/tree/master/src/index.js" xlink:title="index.js">
<path fill="#ffffcc" stroke="black" d="M64,-112C64,-112 22,-112 22,-112 19,-112 16,-109 16,-106 16,-106 16,-100 16,-100 16,-97 19,-94 22,-94 22,-94 64,-94 64,-94 67,-94 70,-97 70,-100 70,-100 70,-106 70,-106 70,-109 67,-112 64,-112"/>
<text text-anchor="middle" x="43" y="-100.8" font-family="Helvetica,sans-Serif" font-size="9.00">index.js</text>
</a>
</g>
</g>
<!-- src/index.js&#45;&gt;fs -->
<g id="edge6" class="edge">
<title>src/index.js&#45;&gt;fs</title>
<path fill="none" stroke="grey" d="M48.08,-112.32C53.98,-124.68 66.06,-146.28 83,-158 119.06,-182.94 169.34,-192.71 203.08,-196.54"/>
<polygon fill="grey" stroke="grey" points="203.12,-200.06 213.42,-197.58 203.82,-193.09 203.12,-200.06"/>
</g>
<!-- src/index.js&#45;&gt;path -->
<g id="edge7" class="edge">
<title>src/index.js&#45;&gt;path</title>
<path fill="none" stroke="grey" d="M45.87,-93.78C49.7,-77.5 60.08,-43.88 83,-28 118.37,-3.49 169.33,-1.92 203.39,-4.36"/>
<polygon fill="grey" stroke="grey" points="203.11,-7.85 213.38,-5.22 203.71,-0.87 203.11,-7.85"/>
</g>
<!-- src/parse&#45;table.js -->
<g id="node5" class="node">
<title>src/parse&#45;table.js</title>
<g id="a_node5"><a xlink:href="https://github.com/dragonman225/notablog/tree/master/src/parse-table.js" xlink:title="parse&#45;table.js">
<path fill="#ffffcc" stroke="black" d="M168.5,-82C168.5,-82 103.5,-82 103.5,-82 100.5,-82 97.5,-79 97.5,-76 97.5,-76 97.5,-70 97.5,-70 97.5,-67 100.5,-64 103.5,-64 103.5,-64 168.5,-64 168.5,-64 171.5,-64 174.5,-67 174.5,-70 174.5,-70 174.5,-76 174.5,-76 174.5,-79 171.5,-82 168.5,-82"/>
<text text-anchor="middle" x="136" y="-70.8" font-family="Helvetica,sans-Serif" font-size="9.00">parse&#45;table.js</text>
</a>
</g>
</g>
<!-- src/index.js&#45;&gt;src/parse&#45;table.js -->
<g id="edge1" class="edge">
<title>src/index.js&#45;&gt;src/parse&#45;table.js</title>
<path fill="none" stroke="#000000" stroke-width="2" stroke-opacity="0.200000" d="M66.56,-93.94C71.92,-91.9 77.64,-89.8 83,-88 86.07,-86.97 89.26,-85.94 92.48,-84.94"/>
<polygon fill="#000000" fill-opacity="0.200000" stroke="#000000" stroke-width="2" stroke-opacity="0.200000" points="93.58,-88.26 102.13,-82.01 91.55,-81.56 93.58,-88.26"/>
</g>
<!-- src/render&#45;index.js -->
<g id="node6" class="node">
<title>src/render&#45;index.js</title>
<g id="a_node6"><a xlink:href="https://github.com/dragonman225/notablog/tree/master/src/render-index.js" xlink:title="render&#45;index.js">
<path fill="#ffffcc" stroke="black" d="M172,-112C172,-112 100,-112 100,-112 97,-112 94,-109 94,-106 94,-106 94,-100 94,-100 94,-97 97,-94 100,-94 100,-94 172,-94 172,-94 175,-94 178,-97 178,-100 178,-100 178,-106 178,-106 178,-109 175,-112 172,-112"/>
<text text-anchor="middle" x="136" y="-100.8" font-family="Helvetica,sans-Serif" font-size="9.00">render&#45;index.js</text>
</a>
</g>
</g>
<!-- src/index.js&#45;&gt;src/render&#45;index.js -->
<g id="edge2" class="edge">
<title>src/index.js&#45;&gt;src/render&#45;index.js</title>
<path fill="none" stroke="#000000" stroke-width="2" stroke-opacity="0.200000" d="M70.32,-103C74.57,-103 79.09,-103 83.69,-103"/>
<polygon fill="#000000" fill-opacity="0.200000" stroke="#000000" stroke-width="2" stroke-opacity="0.200000" points="83.82,-106.5 93.82,-103 83.82,-99.5 83.82,-106.5"/>
</g>
<!-- src/render&#45;post.js -->
<g id="node7" class="node">
<title>src/render&#45;post.js</title>
<g id="a_node7"><a xlink:href="https://github.com/dragonman225/notablog/tree/master/src/render-post.js" xlink:title="render&#45;post.js">
<path fill="#ffffcc" stroke="black" d="M169.5,-52C169.5,-52 102.5,-52 102.5,-52 99.5,-52 96.5,-49 96.5,-46 96.5,-46 96.5,-40 96.5,-40 96.5,-37 99.5,-34 102.5,-34 102.5,-34 169.5,-34 169.5,-34 172.5,-34 175.5,-37 175.5,-40 175.5,-40 175.5,-46 175.5,-46 175.5,-49 172.5,-52 169.5,-52"/>
<text text-anchor="middle" x="136" y="-40.8" font-family="Helvetica,sans-Serif" font-size="9.00">render&#45;post.js</text>
</a>
</g>
</g>
<!-- src/index.js&#45;&gt;src/render&#45;post.js -->
<g id="edge3" class="edge">
<title>src/index.js&#45;&gt;src/render&#45;post.js</title>
<path fill="none" stroke="#000000" stroke-width="2" stroke-opacity="0.200000" d="M49.71,-93.65C56.43,-83.42 68.54,-67.24 83,-58 84.29,-57.18 85.62,-56.4 86.99,-55.66"/>
<polygon fill="#000000" fill-opacity="0.200000" stroke="#000000" stroke-width="2" stroke-opacity="0.200000" points="88.75,-58.71 96.41,-51.38 85.86,-52.33 88.75,-58.71"/>
</g>
<!-- src/template&#45;provider.js -->
<g id="node8" class="node">
<title>src/template&#45;provider.js</title>
<g id="a_node8"><a xlink:href="https://github.com/dragonman225/notablog/tree/master/src/template-provider.js" xlink:title="template&#45;provider.js">
<path fill="#ffffcc" stroke="black" d="M183,-142C183,-142 89,-142 89,-142 86,-142 83,-139 83,-136 83,-136 83,-130 83,-130 83,-127 86,-124 89,-124 89,-124 183,-124 183,-124 186,-124 189,-127 189,-130 189,-130 189,-136 189,-136 189,-139 186,-142 183,-142"/>
<text text-anchor="middle" x="136" y="-130.8" font-family="Helvetica,sans-Serif" font-size="9.00">template&#45;provider.js</text>
</a>
</g>
</g>
<!-- src/index.js&#45;&gt;src/template&#45;provider.js -->
<g id="edge4" class="edge">
<title>src/index.js&#45;&gt;src/template&#45;provider.js</title>
<path fill="none" stroke="#000000" stroke-width="2" stroke-opacity="0.200000" d="M66.56,-112.06C71.92,-114.1 77.64,-116.2 83,-118 86.07,-119.03 89.26,-120.06 92.48,-121.06"/>
<polygon fill="#000000" fill-opacity="0.200000" stroke="#000000" stroke-width="2" stroke-opacity="0.200000" points="91.55,-124.44 102.13,-123.99 93.58,-117.74 91.55,-124.44"/>
</g>
<!-- src/utils.js -->
<g id="node9" class="node">
<title>src/utils.js</title>
<g id="a_node9"><a xlink:href="https://github.com/dragonman225/notablog/tree/master/src/utils.js" xlink:title="utils.js">
<path fill="#ffffcc" stroke="black" d="M261.5,-112C261.5,-112 219.5,-112 219.5,-112 216.5,-112 213.5,-109 213.5,-106 213.5,-106 213.5,-100 213.5,-100 213.5,-97 216.5,-94 219.5,-94 219.5,-94 261.5,-94 261.5,-94 264.5,-94 267.5,-97 267.5,-100 267.5,-100 267.5,-106 267.5,-106 267.5,-109 264.5,-112 261.5,-112"/>
<text text-anchor="middle" x="240.5" y="-100.8" font-family="Helvetica,sans-Serif" font-size="9.00">utils.js</text>
</a>
</g>
</g>
<!-- src/index.js&#45;&gt;src/utils.js -->
<g id="edge5" class="edge">
<title>src/index.js&#45;&gt;src/utils.js</title>
<path fill="none" stroke="#000000" stroke-width="2" stroke-opacity="0.200000" d="M48.83,-112.35C55.06,-123.25 67.01,-140.7 83,-148 125.85,-167.57 144.97,-164.77 189,-148 203.89,-142.33 217.19,-130.02 226.39,-119.71"/>
<polygon fill="#000000" fill-opacity="0.200000" stroke="#000000" stroke-width="2" stroke-opacity="0.200000" points="229.09,-121.94 232.85,-112.03 223.74,-117.43 229.09,-121.94"/>
</g>
<!-- src/notion&#45;utils.js -->
<g id="node4" class="node">
<title>src/notion&#45;utils.js</title>
<g id="a_node4"><a xlink:href="https://github.com/dragonman225/notablog/tree/master/src/notion-utils.js" xlink:title="notion&#45;utils.js">
<path fill="#ffffcc" stroke="black" d="M273,-67C273,-67 208,-67 208,-67 205,-67 202,-64 202,-61 202,-61 202,-55 202,-55 202,-52 205,-49 208,-49 208,-49 273,-49 273,-49 276,-49 279,-52 279,-55 279,-55 279,-61 279,-61 279,-64 276,-67 273,-67"/>
<text text-anchor="middle" x="240.5" y="-55.8" font-family="Helvetica,sans-Serif" font-size="9.00">notion&#45;utils.js</text>
</a>
</g>
</g>
<!-- src/parse&#45;table.js&#45;&gt;src/notion&#45;utils.js -->
<g id="edge8" class="edge">
<title>src/parse&#45;table.js&#45;&gt;src/notion&#45;utils.js</title>
<path fill="none" stroke="#000000" stroke-width="2" stroke-opacity="0.200000" d="M174.59,-67.5C180.16,-66.68 185.96,-65.84 191.7,-64.99"/>
<polygon fill="#000000" fill-opacity="0.200000" stroke="#000000" stroke-width="2" stroke-opacity="0.200000" points="192.53,-68.41 201.92,-63.5 191.52,-61.48 192.53,-68.41"/>
</g>
<!-- src/parse&#45;table.js&#45;&gt;src/utils.js -->
<g id="edge9" class="edge">
<title>src/parse&#45;table.js&#45;&gt;src/utils.js</title>
<path fill="none" stroke="#000000" stroke-width="2" stroke-opacity="0.200000" d="M168.36,-82C175.17,-83.97 182.33,-86.05 189,-88 193.69,-89.37 198.62,-90.83 203.49,-92.27"/>
<polygon fill="#000000" fill-opacity="0.200000" stroke="#000000" stroke-width="2" stroke-opacity="0.200000" points="202.72,-95.69 213.3,-95.18 204.71,-88.98 202.72,-95.69"/>
</g>
<!-- src/render&#45;index.js&#45;&gt;fs -->
<g id="edge11" class="edge">
<title>src/render&#45;index.js&#45;&gt;fs</title>
<path fill="none" stroke="grey" d="M178.17,-110.02C182.23,-112.06 185.96,-114.67 189,-118 209.47,-140.38 182.4,-161.85 202,-185 202.86,-186.01 203.8,-186.96 204.8,-187.83"/>
<polygon fill="grey" stroke="grey" points="203.14,-190.92 213.47,-193.27 206.87,-184.99 203.14,-190.92"/>
</g>
<!-- src/render&#45;index.js&#45;&gt;path -->
<g id="edge12" class="edge">
<title>src/render&#45;index.js&#45;&gt;path</title>
<path fill="none" stroke="grey" d="M178.15,-95.96C182.21,-93.92 185.95,-91.32 189,-88 208.95,-66.32 182.9,-45.43 202,-23 202.86,-21.99 203.8,-21.05 204.81,-20.18"/>
<polygon fill="grey" stroke="grey" points="206.87,-23.02 213.49,-14.74 203.16,-17.08 206.87,-23.02"/>
</g>
<!-- src/render&#45;index.js&#45;&gt;src/utils.js -->
<g id="edge10" class="edge">
<title>src/render&#45;index.js&#45;&gt;src/utils.js</title>
<path fill="none" stroke="#000000" stroke-width="2" stroke-opacity="0.200000" d="M178.1,-103C186.39,-103 195.04,-103 203.15,-103"/>
<polygon fill="#000000" fill-opacity="0.200000" stroke="#000000" stroke-width="2" stroke-opacity="0.200000" points="203.43,-106.5 213.43,-103 203.43,-99.5 203.43,-106.5"/>
</g>
<!-- src/render&#45;post.js&#45;&gt;fs -->
<g id="edge15" class="edge">
<title>src/render&#45;post.js&#45;&gt;fs</title>
<path fill="none" stroke="grey" d="M175.67,-48.42C180.77,-50.66 185.45,-53.75 189,-58 225.38,-101.54 167.31,-140.1 202,-185 202.81,-186.05 203.71,-187.02 204.68,-187.92"/>
<polygon fill="grey" stroke="grey" points="202.92,-190.95 213.21,-193.49 206.75,-185.09 202.92,-190.95"/>
</g>
<!-- src/render&#45;post.js&#45;&gt;path -->
<g id="edge16" class="edge">
<title>src/render&#45;post.js&#45;&gt;path</title>
<path fill="none" stroke="grey" d="M164.2,-33.98C176.3,-29.96 190.71,-25.18 203.67,-20.88"/>
<polygon fill="grey" stroke="grey" points="204.85,-24.18 213.24,-17.71 202.64,-17.54 204.85,-24.18"/>
</g>
<!-- src/render&#45;post.js&#45;&gt;src/notion&#45;utils.js -->
<g id="edge13" class="edge">
<title>src/render&#45;post.js&#45;&gt;src/notion&#45;utils.js</title>
<path fill="none" stroke="#000000" stroke-width="2" stroke-opacity="0.200000" d="M175.75,-48.67C180.93,-49.43 186.3,-50.21 191.61,-50.99"/>
<polygon fill="#000000" fill-opacity="0.200000" stroke="#000000" stroke-width="2" stroke-opacity="0.200000" points="191.31,-54.49 201.71,-52.47 192.32,-47.56 191.31,-54.49"/>
</g>
<!-- src/render&#45;post.js&#45;&gt;src/utils.js -->
<g id="edge14" class="edge">
<title>src/render&#45;post.js&#45;&gt;src/utils.js</title>
<path fill="none" stroke="#000000" stroke-width="2" stroke-opacity="0.200000" d="M175.59,-51.38C180.29,-53.19 184.88,-55.37 189,-58 196.43,-62.75 195.64,-66.89 202,-73 207.25,-78.05 213.28,-83.14 218.95,-87.67"/>
<polygon fill="#000000" fill-opacity="0.200000" stroke="#000000" stroke-width="2" stroke-opacity="0.200000" points="216.82,-90.44 226.87,-93.81 221.12,-84.91 216.82,-90.44"/>
</g>
<!-- src/template&#45;provider.js&#45;&gt;fs -->
<g id="edge18" class="edge">
<title>src/template&#45;provider.js&#45;&gt;fs</title>
<path fill="none" stroke="grey" d="M146.42,-142.16C158.47,-153.48 180.38,-172.74 202,-185 202.66,-185.37 203.33,-185.74 204.01,-186.1"/>
<polygon fill="grey" stroke="grey" points="202.65,-189.33 213.19,-190.4 205.62,-182.99 202.65,-189.33"/>
</g>
<!-- src/template&#45;provider.js&#45;&gt;path -->
<g id="edge19" class="edge">
<title>src/template&#45;provider.js&#45;&gt;path</title>
<path fill="none" stroke="grey" d="M182.25,-123.87C184.75,-122.21 187.03,-120.27 189,-118 216.87,-85.76 175.38,-56.28 202,-23 202.83,-21.96 203.75,-21 204.73,-20.11"/>
<polygon fill="grey" stroke="grey" points="206.79,-22.95 213.31,-14.59 203,-17.06 206.79,-22.95"/>
</g>
<!-- src/template&#45;provider.js&#45;&gt;src/utils.js -->
<g id="edge17" class="edge">
<title>src/template&#45;provider.js&#45;&gt;src/utils.js</title>
<path fill="none" stroke="#000000" stroke-width="2" stroke-opacity="0.200000" d="M168.36,-124C175.17,-122.03 182.33,-119.95 189,-118 193.69,-116.63 198.62,-115.17 203.49,-113.73"/>
<polygon fill="#000000" fill-opacity="0.200000" stroke="#000000" stroke-width="2" stroke-opacity="0.200000" points="204.71,-117.02 213.3,-110.82 202.72,-110.31 204.71,-117.02"/>
</g>
</g>
</svg>
