<?xml version="1.0" encoding="UTF-8" standalone="no"?>
<!DOCTYPE svg PUBLIC "-//W3C//DTD SVG 1.1//EN"
 "http://www.w3.org/Graphics/SVG/1.1/DTD/svg11.dtd">
<!-- Generated by graphviz version 2.42.3 (0)
 -->
<!-- Title: dependency&#45;cruiser output Pages: 1 -->
<svg width="440pt" height="291pt"
 viewBox="0.00 0.00 440.00 291.02" xmlns="http://www.w3.org/2000/svg" xmlns:xlink="http://www.w3.org/1999/xlink">
<g id="graph0" class="graph" transform="scale(1 1) rotate(0) translate(4 287.02)">
<title>dependency&#45;cruiser output</title>
<polygon fill="white" stroke="transparent" points="-4,4 -4,-287.02 436,-287.02 436,4 -4,4"/>
<g id="clust1" class="cluster">
<title>cluster_src</title>
<path fill="#ffffff" stroke="black" stroke-width="2" d="M20,-66.97C20,-66.97 358,-66.97 358,-66.97 364,-66.97 370,-72.97 370,-78.97 370,-78.97 370,-224.97 370,-224.97 370,-230.97 364,-236.97 358,-236.97 358,-236.97 20,-236.97 20,-236.97 14,-236.97 8,-230.97 8,-224.97 8,-224.97 8,-78.97 8,-78.97 8,-72.97 14,-66.97 20,-66.97"/>
<text text-anchor="middle" x="189" y="-225.77" font-family="Helvetica,sans-Serif" font-weight="bold" font-size="9.00">src</text>
</g>
<!-- child_process -->
<g id="node1" class="node">
<title>child_process</title>
<path fill="#ffffcc" stroke="grey" d="M250,-58.97C250,-58.97 185,-58.97 185,-58.97 182,-58.97 179,-55.97 179,-52.97 179,-52.97 179,-46.97 179,-46.97 179,-43.97 182,-40.97 185,-40.97 185,-40.97 250,-40.97 250,-40.97 253,-40.97 256,-43.97 256,-46.97 256,-46.97 256,-52.97 256,-52.97 256,-55.97 253,-58.97 250,-58.97"/>
<text text-anchor="middle" x="217.5" y="-47.77" font-family="Helvetica,sans-Serif" font-size="9.00" fill="grey">child_process</text>
</g>
<!-- fs -->
<g id="node2" class="node">
<title>fs</title>
<path fill="#ffffcc" stroke="grey" d="M426,-60.97C426,-60.97 384,-60.97 384,-60.97 381,-60.97 378,-57.97 378,-54.97 378,-54.97 378,-48.97 378,-48.97 378,-45.97 381,-42.97 384,-42.97 384,-42.97 426,-42.97 426,-42.97 429,-42.97 432,-45.97 432,-48.97 432,-48.97 432,-54.97 432,-54.97 432,-57.97 429,-60.97 426,-60.97"/>
<text text-anchor="middle" x="405" y="-49.77" font-family="Helvetica,sans-Serif" font-size="9.00" fill="grey">fs</text>
</g>
<!-- path -->
<g id="node3" class="node">
<title>path</title>
<path fill="#ffffcc" stroke="grey" d="M426,-211.97C426,-211.97 384,-211.97 384,-211.97 381,-211.97 378,-208.97 378,-205.97 378,-205.97 378,-199.97 378,-199.97 378,-196.97 381,-193.97 384,-193.97 384,-193.97 426,-193.97 426,-193.97 429,-193.97 432,-196.97 432,-199.97 432,-199.97 432,-205.97 432,-205.97 432,-208.97 429,-211.97 426,-211.97"/>
<text text-anchor="middle" x="405" y="-200.77" font-family="Helvetica,sans-Serif" font-size="9.00" fill="grey">path</text>
</g>
<!-- src/generate.ts -->
<g id="node4" class="node">
<title>src/generate.ts</title>
<g id="a_node4"><a xlink:href="https://github.com/dragonman225/notablog/tree/master/src/generate.ts" xlink:title="generate.ts">
<path fill="#ddfeff" stroke="black" d="M145,-153.97C145,-153.97 89,-153.97 89,-153.97 86,-153.97 83,-150.97 83,-147.97 83,-147.97 83,-141.97 83,-141.97 83,-138.97 86,-135.97 89,-135.97 89,-135.97 145,-135.97 145,-135.97 148,-135.97 151,-138.97 151,-141.97 151,-141.97 151,-147.97 151,-147.97 151,-150.97 148,-153.97 145,-153.97"/>
<text text-anchor="middle" x="117" y="-142.77" font-family="Helvetica,sans-Serif" font-size="9.00">generate.ts</text>
</a>
</g>
</g>
<!-- src/generate.ts&#45;&gt;fs -->
<g id="edge6" class="edge">
<title>src/generate.ts&#45;&gt;fs</title>
<path fill="none" stroke="#000000" stroke-dasharray="5,2" stroke-opacity="0.200000" d="M118.7,-135.92C120.92,-114.25 129.82,-59.4 164,-34.97 238.54,18.32 282.94,1.6 370,-26.97 377.51,-29.43 384.72,-34.25 390.56,-39.01"/>
<polygon fill="#000000" fill-opacity="0.200000" stroke="#000000" stroke-opacity="0.200000" points="389.2,-40.61 395.11,-42.94 391.94,-37.43 389.2,-40.61"/>
</g>
<!-- src/generate.ts&#45;&gt;path -->
<g id="edge7" class="edge">
<title>src/generate.ts&#45;&gt;path</title>
<path fill="none" stroke="#000000" stroke-dasharray="5,2" stroke-opacity="0.200000" d="M128.66,-154.06C135.58,-160.32 144.49,-169.08 151,-177.97 158.4,-188.07 153.52,-196.11 164,-202.97 227.72,-244.61 322.71,-226.82 371.9,-213.21"/>
<polygon fill="#000000" fill-opacity="0.200000" stroke="#000000" stroke-opacity="0.200000" points="372.76,-215.15 377.95,-211.49 371.61,-211.11 372.76,-215.15"/>
</g>
<!-- src/parse&#45;table.ts -->
<g id="node5" class="node">
<title>src/parse&#45;table.ts</title>
<g id="a_node5"><a xlink:href="https://github.com/dragonman225/notablog/tree/master/src/parse-table.ts" xlink:title="parse&#45;table.ts">
<path fill="#ddfeff" stroke="black" d="M250.5,-92.97C250.5,-92.97 184.5,-92.97 184.5,-92.97 181.5,-92.97 178.5,-89.97 178.5,-86.97 178.5,-86.97 178.5,-80.97 178.5,-80.97 178.5,-77.97 181.5,-74.97 184.5,-74.97 184.5,-74.97 250.5,-74.97 250.5,-74.97 253.5,-74.97 256.5,-77.97 256.5,-80.97 256.5,-80.97 256.5,-86.97 256.5,-86.97 256.5,-89.97 253.5,-92.97 250.5,-92.97"/>
<text text-anchor="middle" x="217.5" y="-81.77" font-family="Helvetica,sans-Serif" font-size="9.00">parse&#45;table.ts</text>
</a>
</g>
</g>
<!-- src/generate.ts&#45;&gt;src/parse&#45;table.ts -->
<g id="edge1" class="edge">
<title>src/generate.ts&#45;&gt;src/parse&#45;table.ts</title>
<path fill="none" stroke="#000000" stroke-width="2" stroke-opacity="0.200000" d="M124.77,-135.81C132.95,-125.39 147.65,-108.59 164,-98.97 166.62,-97.42 169.41,-96.03 172.28,-94.78"/>
<polygon fill="#000000" fill-opacity="0.200000" stroke="#000000" stroke-width="2" stroke-opacity="0.200000" points="173.47,-96.57 178.26,-92.4 171.91,-92.67 173.47,-96.57"/>
</g>
<!-- src/render&#45;index.ts -->
<g id="node6" class="node">
<title>src/render&#45;index.ts</title>
<g id="a_node6"><a xlink:href="https://github.com/dragonman225/notablog/tree/master/src/render-index.ts" xlink:title="render&#45;index.ts">
<path fill="#ddfeff" stroke="black" d="M254.5,-166.97C254.5,-166.97 180.5,-166.97 180.5,-166.97 177.5,-166.97 174.5,-163.97 174.5,-160.97 174.5,-160.97 174.5,-154.97 174.5,-154.97 174.5,-151.97 177.5,-148.97 180.5,-148.97 180.5,-148.97 254.5,-148.97 254.5,-148.97 257.5,-148.97 260.5,-151.97 260.5,-154.97 260.5,-154.97 260.5,-160.97 260.5,-160.97 260.5,-163.97 257.5,-166.97 254.5,-166.97"/>
<text text-anchor="middle" x="217.5" y="-155.77" font-family="Helvetica,sans-Serif" font-size="9.00">render&#45;index.ts</text>
</a>
</g>
</g>
<!-- src/generate.ts&#45;&gt;src/render&#45;index.ts -->
<g id="edge2" class="edge">
<title>src/generate.ts&#45;&gt;src/render&#45;index.ts</title>
<path fill="none" stroke="#000000" stroke-width="2" stroke-opacity="0.200000" d="M151.07,-149.33C156.57,-150.06 162.38,-150.82 168.16,-151.59"/>
<polygon fill="#000000" fill-opacity="0.200000" stroke="#000000" stroke-width="2" stroke-opacity="0.200000" points="168.19,-153.71 174.42,-152.41 168.74,-149.54 168.19,-153.71"/>
</g>
<!-- src/render&#45;post.ts -->
<g id="node7" class="node">
<title>src/render&#45;post.ts</title>
<g id="a_node7"><a xlink:href="https://github.com/dragonman225/notablog/tree/master/src/render-post.ts" xlink:title="render&#45;post.ts">
<path fill="#ddfeff" stroke="black" d="M251.5,-122.97C251.5,-122.97 183.5,-122.97 183.5,-122.97 180.5,-122.97 177.5,-119.97 177.5,-116.97 177.5,-116.97 177.5,-110.97 177.5,-110.97 177.5,-107.97 180.5,-104.97 183.5,-104.97 183.5,-104.97 251.5,-104.97 251.5,-104.97 254.5,-104.97 257.5,-107.97 257.5,-110.97 257.5,-110.97 257.5,-116.97 257.5,-116.97 257.5,-119.97 254.5,-122.97 251.5,-122.97"/>
<text text-anchor="middle" x="217.5" y="-111.77" font-family="Helvetica,sans-Serif" font-size="9.00">render&#45;post.ts</text>
</a>
</g>
</g>
<!-- src/generate.ts&#45;&gt;src/render&#45;post.ts -->
<g id="edge3" class="edge">
<title>src/generate.ts&#45;&gt;src/render&#45;post.ts</title>
<path fill="none" stroke="#000000" stroke-width="2" stroke-opacity="0.200000" d="M146.76,-135.92C157.78,-132.45 170.47,-128.45 181.98,-124.83"/>
<polygon fill="#000000" fill-opacity="0.200000" stroke="#000000" stroke-width="2" stroke-opacity="0.200000" points="182.79,-126.78 187.88,-122.97 181.53,-122.77 182.79,-126.78"/>
</g>
<!-- src/template&#45;provider.ts -->
<g id="node8" class="node">
<title>src/template&#45;provider.ts</title>
<g id="a_node8"><a xlink:href="https://github.com/dragonman225/notablog/tree/master/src/template-provider.ts" xlink:title="template&#45;provider.ts">
<path fill="#ddfeff" stroke="black" d="M265,-196.97C265,-196.97 170,-196.97 170,-196.97 167,-196.97 164,-193.97 164,-190.97 164,-190.97 164,-184.97 164,-184.97 164,-181.97 167,-178.97 170,-178.97 170,-178.97 265,-178.97 265,-178.97 268,-178.97 271,-181.97 271,-184.97 271,-184.97 271,-190.97 271,-190.97 271,-193.97 268,-196.97 265,-196.97"/>
<text text-anchor="middle" x="217.5" y="-185.77" font-family="Helvetica,sans-Serif" font-size="9.00">template&#45;provider.ts</text>
</a>
</g>
</g>
<!-- src/generate.ts&#45;&gt;src/template&#45;provider.ts -->
<g id="edge4" class="edge">
<title>src/generate.ts&#45;&gt;src/template&#45;provider.ts</title>
<path fill="none" stroke="#000000" stroke-width="2" stroke-opacity="0.200000" d="M130.78,-154.03C139.74,-160.06 152.18,-167.79 164,-172.97 167.23,-174.38 170.62,-175.7 174.07,-176.92"/>
<polygon fill="#000000" fill-opacity="0.200000" stroke="#000000" stroke-width="2" stroke-opacity="0.200000" points="173.55,-178.96 179.9,-178.88 174.89,-174.98 173.55,-178.96"/>
</g>
<!-- src/util.ts -->
<g id="node9" class="node">
<title>src/util.ts</title>
<g id="a_node9"><a xlink:href="https://github.com/dragonman225/notablog/tree/master/src/util.ts" xlink:title="util.ts">
<path fill="#ddfeff" stroke="black" d="M344,-144.97C344,-144.97 302,-144.97 302,-144.97 299,-144.97 296,-141.97 296,-138.97 296,-138.97 296,-132.97 296,-132.97 296,-129.97 299,-126.97 302,-126.97 302,-126.97 344,-126.97 344,-126.97 347,-126.97 350,-129.97 350,-132.97 350,-132.97 350,-138.97 350,-138.97 350,-141.97 347,-144.97 344,-144.97"/>
<text text-anchor="middle" x="323" y="-133.77" font-family="Helvetica,sans-Serif" font-size="9.00">util.ts</text>
</a>
</g>
</g>
<!-- src/generate.ts&#45;&gt;src/util.ts -->
<g id="edge5" class="edge">
<title>src/generate.ts&#45;&gt;src/util.ts</title>
<path fill="none" stroke="#000000" stroke-width="2" stroke-opacity="0.200000" d="M151.23,-143.5C189.44,-141.81 251.75,-139.06 289.6,-137.39"/>
<polygon fill="#000000" fill-opacity="0.200000" stroke="#000000" stroke-width="2" stroke-opacity="0.200000" points="290.01,-139.48 295.92,-137.12 289.83,-135.28 290.01,-139.48"/>
</g>
<!-- src/parse&#45;table.ts&#45;&gt;src/util.ts -->
<g id="edge11" class="edge">
<title>src/parse&#45;table.ts&#45;&gt;src/util.ts</title>
<path fill="none" stroke="#000000" stroke-width="2" stroke-opacity="0.200000" d="M256.6,-91.08C261.75,-93.09 266.72,-95.66 271,-98.97 279.99,-105.91 275.36,-113.59 284,-120.97 285.94,-122.62 288.09,-124.11 290.35,-125.44"/>
<polygon fill="#000000" fill-opacity="0.200000" stroke="#000000" stroke-width="2" stroke-opacity="0.200000" points="289.47,-127.36 295.76,-128.28 291.42,-123.64 289.47,-127.36"/>
</g>
<!-- src/notion&#45;utils.ts -->
<g id="node12" class="node">
<title>src/notion&#45;utils.ts</title>
<g id="a_node12"><a xlink:href="https://github.com/dragonman225/notablog/tree/master/src/notion-utils.ts" xlink:title="notion&#45;utils.ts">
<path fill="#ddfeff" stroke="black" d="M356,-114.97C356,-114.97 290,-114.97 290,-114.97 287,-114.97 284,-111.97 284,-108.97 284,-108.97 284,-102.97 284,-102.97 284,-99.97 287,-96.97 290,-96.97 290,-96.97 356,-96.97 356,-96.97 359,-96.97 362,-99.97 362,-102.97 362,-102.97 362,-108.97 362,-108.97 362,-111.97 359,-114.97 356,-114.97"/>
<text text-anchor="middle" x="323" y="-103.77" font-family="Helvetica,sans-Serif" font-size="9.00">notion&#45;utils.ts</text>
</a>
</g>
</g>
<!-- src/parse&#45;table.ts&#45;&gt;src/notion&#45;utils.ts -->
<g id="edge10" class="edge">
<title>src/parse&#45;table.ts&#45;&gt;src/notion&#45;utils.ts</title>
<path fill="none" stroke="#000000" stroke-width="2" stroke-opacity="0.200000" d="M256.75,-92.09C263.67,-93.57 270.95,-95.11 278.03,-96.62"/>
<polygon fill="#000000" fill-opacity="0.200000" stroke="#000000" stroke-width="2" stroke-opacity="0.200000" points="277.61,-98.68 283.91,-97.87 278.48,-94.57 277.61,-98.68"/>
</g>
<!-- src/render&#45;index.ts&#45;&gt;fs -->
<g id="edge16" class="edge">
<title>src/render&#45;index.ts&#45;&gt;fs</title>
<path fill="none" stroke="#000000" stroke-dasharray="5,2" stroke-opacity="0.200000" d="M244.68,-148.9C254.29,-144.33 264.43,-137.83 271,-128.97 287.51,-106.7 263.66,-86.79 284,-67.97 307.28,-46.42 344.81,-44.72 371.7,-46.95"/>
<polygon fill="#000000" fill-opacity="0.200000" stroke="#000000" stroke-opacity="0.200000" points="371.78,-49.07 377.95,-47.55 372.18,-44.89 371.78,-49.07"/>
</g>
<!-- src/render&#45;index.ts&#45;&gt;path -->
<g id="edge17" class="edge">
<title>src/render&#45;index.ts&#45;&gt;path</title>
<path fill="none" stroke="#000000" stroke-dasharray="5,2" stroke-opacity="0.200000" d="M255.56,-167.04C264.85,-169.3 274.79,-171.73 284,-173.97 313.76,-181.2 347.68,-189.39 371.85,-195.22"/>
<polygon fill="#000000" fill-opacity="0.200000" stroke="#000000" stroke-opacity="0.200000" points="371.45,-197.28 377.78,-196.65 372.44,-193.2 371.45,-197.28"/>
</g>
<!-- src/render&#45;index.ts&#45;&gt;src/util.ts -->
<g id="edge15" class="edge">
<title>src/render&#45;index.ts&#45;&gt;src/util.ts</title>
<path fill="none" stroke="#000000" stroke-width="2" stroke-opacity="0.200000" d="M260.6,-149.02C270.42,-146.93 280.73,-144.74 290.03,-142.76"/>
<polygon fill="#000000" fill-opacity="0.200000" stroke="#000000" stroke-width="2" stroke-opacity="0.200000" points="290.55,-144.8 295.98,-141.5 289.68,-140.69 290.55,-144.8"/>
</g>
<!-- src/render&#45;post.ts&#45;&gt;fs -->
<g id="edge20" class="edge">
<title>src/render&#45;post.ts&#45;&gt;fs</title>
<path fill="none" stroke="#000000" stroke-dasharray="5,2" stroke-opacity="0.200000" d="M257.61,-107.98C262.62,-105.81 267.28,-102.89 271,-98.97 288.87,-80.1 263.69,-58.17 284,-41.97 310.74,-20.64 352.32,-30.66 378.85,-40.67"/>
<polygon fill="#000000" fill-opacity="0.200000" stroke="#000000" stroke-opacity="0.200000" points="378.24,-42.69 384.6,-42.92 379.78,-38.78 378.24,-42.69"/>
</g>
<!-- src/render&#45;post.ts&#45;&gt;path -->
<g id="edge21" class="edge">
<title>src/render&#45;post.ts&#45;&gt;path</title>
<path fill="none" stroke="#000000" stroke-dasharray="5,2" stroke-opacity="0.200000" d="M235.64,-123.17C245.95,-128.77 259.31,-136.14 271,-142.97 276.86,-146.38 277.78,-148.25 284,-150.97 320.36,-166.85 334.81,-156.62 370,-174.97 377.31,-178.78 384.49,-184.34 390.36,-189.51"/>
<polygon fill="#000000" fill-opacity="0.200000" stroke="#000000" stroke-opacity="0.200000" points="389.11,-191.21 394.95,-193.71 391.94,-188.11 389.11,-191.21"/>
</g>
<!-- src/render&#45;post.ts&#45;&gt;src/util.ts -->
<g id="edge19" class="edge">
<title>src/render&#45;post.ts&#45;&gt;src/util.ts</title>
<path fill="none" stroke="#000000" stroke-width="2" stroke-opacity="0.200000" d="M257.63,-122.28C268.35,-124.56 279.84,-127 290.1,-129.18"/>
<polygon fill="#000000" fill-opacity="0.200000" stroke="#000000" stroke-width="2" stroke-opacity="0.200000" points="289.68,-131.24 295.98,-130.43 290.55,-127.13 289.68,-131.24"/>
</g>
<!-- src/render&#45;post.ts&#45;&gt;src/notion&#45;utils.ts -->
<g id="edge18" class="edge">
<title>src/render&#45;post.ts&#45;&gt;src/notion&#45;utils.ts</title>
<path fill="none" stroke="#000000" stroke-width="2" stroke-opacity="0.200000" d="M257.63,-110.94C264.2,-110.43 271.07,-109.9 277.76,-109.38"/>
<polygon fill="#000000" fill-opacity="0.200000" stroke="#000000" stroke-width="2" stroke-opacity="0.200000" points="278.02,-111.47 283.84,-108.91 277.7,-107.28 278.02,-111.47"/>
</g>
<!-- src/template&#45;provider.ts&#45;&gt;fs -->
<g id="edge23" class="edge">
<title>src/template&#45;provider.ts&#45;&gt;fs</title>
<path fill="none" stroke="#000000" stroke-dasharray="5,2" stroke-opacity="0.200000" d="M264.12,-178.83C266.66,-177.17 268.99,-175.24 271,-172.97 295.47,-145.34 259.45,-118.51 284,-90.97 310.4,-61.34 332.64,-80.34 370,-66.97 372.89,-65.93 375.87,-64.77 378.82,-63.55"/>
<polygon fill="#000000" fill-opacity="0.200000" stroke="#000000" stroke-opacity="0.200000" points="380.08,-65.3 384.78,-61.02 378.43,-61.43 380.08,-65.3"/>
</g>
<!-- src/template&#45;provider.ts&#45;&gt;path -->
<g id="edge24" class="edge">
<title>src/template&#45;provider.ts&#45;&gt;path</title>
<path fill="none" stroke="#000000" stroke-dasharray="5,2" stroke-opacity="0.200000" d="M262.41,-196.98C269.59,-198.18 276.99,-199.24 284,-199.97 313.49,-203.02 347.27,-203.6 371.46,-203.52"/>
<polygon fill="#000000" fill-opacity="0.200000" stroke="#000000" stroke-opacity="0.200000" points="371.72,-205.62 377.71,-203.49 371.69,-201.42 371.72,-205.62"/>
</g>
<!-- src/template&#45;provider.ts&#45;&gt;src/util.ts -->
<g id="edge22" class="edge">
<title>src/template&#45;provider.ts&#45;&gt;src/util.ts</title>
<path fill="none" stroke="#000000" stroke-width="2" stroke-opacity="0.200000" d="M256.1,-178.96C261.22,-177.24 266.31,-175.25 271,-172.97 284.07,-166.61 297.3,-156.88 307.02,-149"/>
<polygon fill="#000000" fill-opacity="0.200000" stroke="#000000" stroke-width="2" stroke-opacity="0.200000" points="308.48,-150.52 311.76,-145.07 305.8,-147.28 308.48,-150.52"/>
</g>
<!-- src/util.ts&#45;&gt;fs -->
<g id="edge25" class="edge">
<title>src/util.ts&#45;&gt;fs</title>
<path fill="none" stroke="#000000" stroke-dasharray="5,2" stroke-opacity="0.200000" d="M350.21,-131.32C357.23,-129.09 364.41,-125.81 370,-120.97 386.42,-106.73 395.71,-82.71 400.29,-67.09"/>
<polygon fill="#000000" fill-opacity="0.200000" stroke="#000000" stroke-opacity="0.200000" points="402.41,-67.31 401.97,-60.97 398.36,-66.2 402.41,-67.31"/>
</g>
<!-- src/util.ts&#45;&gt;path -->
<g id="edge26" class="edge">
<title>src/util.ts&#45;&gt;path</title>
<path fill="none" stroke="#000000" stroke-dasharray="5,2" stroke-opacity="0.200000" d="M350.26,-143.19C357.12,-145.86 364.21,-149.39 370,-153.97 381.65,-163.17 390.92,-177.44 396.82,-188.22"/>
<polygon fill="#000000" fill-opacity="0.200000" stroke="#000000" stroke-opacity="0.200000" points="395.1,-189.45 399.74,-193.79 398.81,-187.5 395.1,-189.45"/>
</g>
<!-- src/index.ts -->
<g id="node10" class="node">
<title>src/index.ts</title>
<g id="a_node10"><a xlink:href="https://github.com/dragonman225/notablog/tree/master/src/index.ts" xlink:title="index.ts">
<path fill="#ddfeff" stroke="black" d="M64,-177.97C64,-177.97 22,-177.97 22,-177.97 19,-177.97 16,-174.97 16,-171.97 16,-171.97 16,-165.97 16,-165.97 16,-162.97 19,-159.97 22,-159.97 22,-159.97 64,-159.97 64,-159.97 67,-159.97 70,-162.97 70,-165.97 70,-165.97 70,-171.97 70,-171.97 70,-174.97 67,-177.97 64,-177.97"/>
<text text-anchor="middle" x="43" y="-166.77" font-family="Helvetica,sans-Serif" font-size="9.00">index.ts</text>
</a>
</g>
</g>
<!-- src/index.ts&#45;&gt;src/generate.ts -->
<g id="edge8" class="edge">
<title>src/index.ts&#45;&gt;src/generate.ts</title>
<path fill="none" stroke="#000000" stroke-width="2" stroke-opacity="0.200000" d="M70.4,-160.16C74.39,-158.83 78.55,-157.45 82.67,-156.08"/>
<polygon fill="#000000" fill-opacity="0.200000" stroke="#000000" stroke-width="2" stroke-opacity="0.200000" points="83.61,-157.98 88.64,-154.09 82.28,-153.99 83.61,-157.98"/>
</g>
<!-- src/preview.ts -->
<g id="node11" class="node">
<title>src/preview.ts</title>
<g id="a_node11"><a xlink:href="https://github.com/dragonman225/notablog/tree/master/src/preview.ts" xlink:title="preview.ts">
<path fill="#ddfeff" stroke="black" d="M142,-201.97C142,-201.97 92,-201.97 92,-201.97 89,-201.97 86,-198.97 86,-195.97 86,-195.97 86,-189.97 86,-189.97 86,-186.97 89,-183.97 92,-183.97 92,-183.97 142,-183.97 142,-183.97 145,-183.97 148,-186.97 148,-189.97 148,-189.97 148,-195.97 148,-195.97 148,-198.97 145,-201.97 142,-201.97"/>
<text text-anchor="middle" x="117" y="-190.77" font-family="Helvetica,sans-Serif" font-size="9.00">preview.ts</text>
</a>
</g>
</g>
<!-- src/index.ts&#45;&gt;src/preview.ts -->
<g id="edge9" class="edge">
<title>src/index.ts&#45;&gt;src/preview.ts</title>
<path fill="none" stroke="#000000" stroke-width="2" stroke-opacity="0.200000" d="M70.4,-177.77C74.39,-179.1 78.55,-180.48 82.67,-181.85"/>
<polygon fill="#000000" fill-opacity="0.200000" stroke="#000000" stroke-width="2" stroke-opacity="0.200000" points="82.28,-183.94 88.64,-183.84 83.61,-179.95 82.28,-183.94"/>
</g>
<!-- src/preview.ts&#45;&gt;child_process -->
<g id="edge13" class="edge">
<title>src/preview.ts&#45;&gt;child_process</title>
<path fill="none" stroke="#000000" stroke-dasharray="5,2" stroke-opacity="0.200000" d="M130.72,-183.71C137.89,-177.77 146.32,-169.4 151,-159.97 170.11,-121.38 135.53,-96.27 164,-63.97 166.62,-60.99 169.79,-58.62 173.27,-56.73"/>
<polygon fill="#000000" fill-opacity="0.200000" stroke="#000000" stroke-opacity="0.200000" points="174.36,-58.54 178.94,-54.13 172.61,-54.72 174.36,-58.54"/>
</g>
<!-- src/preview.ts&#45;&gt;path -->
<g id="edge14" class="edge">
<title>src/preview.ts&#45;&gt;path</title>
<path fill="none" stroke="#000000" stroke-dasharray="5,2" stroke-opacity="0.200000" d="M121.98,-202.3C128.47,-216.15 142.76,-241.59 164,-251.97 246.27,-292.14 288.88,-294.41 370,-251.97 383.59,-244.85 392.84,-229.56 398.22,-217.94"/>
<polygon fill="#000000" fill-opacity="0.200000" stroke="#000000" stroke-opacity="0.200000" points="400.22,-218.6 400.68,-212.26 396.37,-216.93 400.22,-218.6"/>
</g>
<!-- src/preview.ts&#45;&gt;src/util.ts -->
<g id="edge12" class="edge">
<title>src/preview.ts&#45;&gt;src/util.ts</title>
<path fill="none" stroke="#000000" stroke-width="2" stroke-opacity="0.200000" d="M143.08,-201.97C174.69,-211.73 229.86,-223.35 271,-202.97 292.93,-192.1 307.99,-166.78 315.79,-150.57"/>
<polygon fill="#000000" fill-opacity="0.200000" stroke="#000000" stroke-width="2" stroke-opacity="0.200000" points="317.73,-151.38 318.33,-145.05 313.91,-149.62 317.73,-151.38"/>
</g>
</g>
</svg>
