<?xml version="1.0" encoding="UTF-8" standalone="no"?>
<!DOCTYPE svg PUBLIC "-//W3C//DTD SVG 1.1//EN"
 "http://www.w3.org/Graphics/SVG/1.1/DTD/svg11.dtd">
<!-- Generated by graphviz version 2.40.1 (0)
 -->
<!-- Title: dependency&#45;cruiser output Pages: 1 -->
<svg width="305pt" height="290pt"
 viewBox="0.00 0.00 305.00 290.36" xmlns="http://www.w3.org/2000/svg" xmlns:xlink="http://www.w3.org/1999/xlink">
<g id="graph0" class="graph" transform="scale(1 1) rotate(0) translate(4 286.361)">
<title>dependency&#45;cruiser output</title>
<polygon fill="#ffffff" stroke="transparent" points="-4,4 -4,-286.361 301,-286.361 301,4 -4,4"/>
<g id="clust1" class="cluster">
<title>cluster_src</title>
<path fill="#ffffff" stroke="#000000" stroke-width="2" d="M74,-24.361C74,-24.361 277,-24.361 277,-24.361 283,-24.361 289,-30.361 289,-36.361 289,-36.361 289,-214.361 289,-214.361 289,-220.361 283,-226.361 277,-226.361 277,-226.361 74,-226.361 74,-226.361 68,-226.361 62,-220.361 62,-214.361 62,-214.361 62,-36.361 62,-36.361 62,-30.361 68,-24.361 74,-24.361"/>
<text text-anchor="middle" x="175.5" y="-215.161" font-family="Helvetica,sans-Serif" font-weight="bold" font-size="9.00" fill="#000000">src</text>
</g>
<g id="clust2" class="cluster">
<title>cluster_src/plugins</title>
<path fill="#ffffff" stroke="#000000" stroke-width="2" d="M82,-118.361C82,-118.361 184,-118.361 184,-118.361 190,-118.361 196,-124.361 196,-130.361 196,-130.361 196,-188.361 196,-188.361 196,-194.361 190,-200.361 184,-200.361 184,-200.361 82,-200.361 82,-200.361 76,-200.361 70,-194.361 70,-188.361 70,-188.361 70,-130.361 70,-130.361 70,-124.361 76,-118.361 82,-118.361"/>
<text text-anchor="middle" x="133" y="-189.161" font-family="Helvetica,sans-Serif" font-weight="bold" font-size="9.00" fill="#000000">plugins</text>
</g>
<!-- fs -->
<g id="node1" class="node">
<title>fs</title>
<path fill="#ffffcc" stroke="#c0c0c0" d="M263.5,-282.361C263.5,-282.361 221.5,-282.361 221.5,-282.361 218.5,-282.361 215.5,-279.361 215.5,-276.361 215.5,-276.361 215.5,-270.361 215.5,-270.361 215.5,-267.361 218.5,-264.361 221.5,-264.361 221.5,-264.361 263.5,-264.361 263.5,-264.361 266.5,-264.361 269.5,-267.361 269.5,-270.361 269.5,-270.361 269.5,-276.361 269.5,-276.361 269.5,-279.361 266.5,-282.361 263.5,-282.361"/>
<text text-anchor="middle" x="242.5" y="-271.161" font-family="Helvetica,sans-Serif" font-size="9.00" fill="#c0c0c0">fs</text>
</g>
<!-- index.js -->
<g id="node2" class="node">
<title>index.js</title>
<g id="a_node2"><a xlink:href="https://github.com/dragonman225/notablog/tree/master/index.js" xlink:title="index.js">
<path fill="#ffffcc" stroke="#000000" d="M48,-127.361C48,-127.361 6,-127.361 6,-127.361 3,-127.361 0,-124.361 0,-121.361 0,-121.361 0,-115.361 0,-115.361 0,-112.361 3,-109.361 6,-109.361 6,-109.361 48,-109.361 48,-109.361 51,-109.361 54,-112.361 54,-115.361 54,-115.361 54,-121.361 54,-121.361 54,-124.361 51,-127.361 48,-127.361"/>
<text text-anchor="middle" x="27" y="-116.161" font-family="Helvetica,sans-Serif" font-size="9.00" fill="#000000">index.js</text>
</a>
</g>
</g>
<!-- index.js&#45;&gt;fs -->
<g id="edge7" class="edge">
<title>index.js&#45;&gt;fs</title>
<path fill="none" stroke="#c0c0c0" d="M28.5499,-127.4189C32.9211,-151.9146 46.0708,-218.6187 62,-233.361 100.9238,-269.3844 164.7977,-275.5695 205.1981,-275.4269"/>
<polygon fill="#c0c0c0" stroke="#c0c0c0" points="205.4925,-278.9225 215.4319,-275.2539 205.3741,-271.9235 205.4925,-278.9225"/>
</g>
<!-- path -->
<g id="node3" class="node">
<title>path</title>
<path fill="#ffffcc" stroke="#c0c0c0" d="M263.5,-252.361C263.5,-252.361 221.5,-252.361 221.5,-252.361 218.5,-252.361 215.5,-249.361 215.5,-246.361 215.5,-246.361 215.5,-240.361 215.5,-240.361 215.5,-237.361 218.5,-234.361 221.5,-234.361 221.5,-234.361 263.5,-234.361 263.5,-234.361 266.5,-234.361 269.5,-237.361 269.5,-240.361 269.5,-240.361 269.5,-246.361 269.5,-246.361 269.5,-249.361 266.5,-252.361 263.5,-252.361"/>
<text text-anchor="middle" x="242.5" y="-241.161" font-family="Helvetica,sans-Serif" font-size="9.00" fill="#c0c0c0">path</text>
</g>
<!-- index.js&#45;&gt;path -->
<g id="edge8" class="edge">
<title>index.js&#45;&gt;path</title>
<path fill="none" stroke="#c0c0c0" d="M27.9945,-127.3969C30.4219,-144.8961 38.3029,-183.4361 62,-203.361 102.3677,-237.3026 165.2779,-244.152 205.1613,-244.7046"/>
<polygon fill="#c0c0c0" stroke="#c0c0c0" points="205.2651,-248.2047 215.2694,-244.7168 205.2736,-241.2047 205.2651,-248.2047"/>
</g>
<!-- src/parse&#45;table.js -->
<g id="node5" class="node">
<title>src/parse&#45;table.js</title>
<g id="a_node5"><a xlink:href="https://github.com/dragonman225/notablog/tree/master/src/parse-table.js" xlink:title="parse&#45;table.js">
<path fill="#ffffcc" stroke="#000000" d="M165.5,-50.361C165.5,-50.361 100.5,-50.361 100.5,-50.361 97.5,-50.361 94.5,-47.361 94.5,-44.361 94.5,-44.361 94.5,-38.361 94.5,-38.361 94.5,-35.361 97.5,-32.361 100.5,-32.361 100.5,-32.361 165.5,-32.361 165.5,-32.361 168.5,-32.361 171.5,-35.361 171.5,-38.361 171.5,-38.361 171.5,-44.361 171.5,-44.361 171.5,-47.361 168.5,-50.361 165.5,-50.361"/>
<text text-anchor="middle" x="133" y="-39.161" font-family="Helvetica,sans-Serif" font-size="9.00" fill="#000000">parse&#45;table.js</text>
</a>
</g>
</g>
<!-- index.js&#45;&gt;src/parse&#45;table.js -->
<g id="edge1" class="edge">
<title>index.js&#45;&gt;src/parse&#45;table.js</title>
<path fill="none" stroke="#000000" stroke-width="2" stroke-opacity="0.466667" d="M29.5346,-109.1482C33.8205,-95.3866 43.8562,-69.6607 62,-56.361 68.6459,-51.4894 76.5305,-48.128 84.5871,-45.823"/>
<polygon fill="#000000" fill-opacity="0.466667" stroke="#000000" stroke-width="2" stroke-opacity="0.466667" points="85.4967,-49.2046 94.4278,-43.505 83.8916,-42.3911 85.4967,-49.2046"/>
</g>
<!-- src/plugins/render&#45;description.js -->
<g id="node6" class="node">
<title>src/plugins/render&#45;description.js</title>
<g id="a_node6"><a xlink:href="https://github.com/dragonman225/notablog/tree/master/src/plugins/render-description.js" xlink:title="render&#45;description.js">
<path fill="#ffffcc" stroke="#000000" d="M182,-174.361C182,-174.361 84,-174.361 84,-174.361 81,-174.361 78,-171.361 78,-168.361 78,-168.361 78,-162.361 78,-162.361 78,-159.361 81,-156.361 84,-156.361 84,-156.361 182,-156.361 182,-156.361 185,-156.361 188,-159.361 188,-162.361 188,-162.361 188,-168.361 188,-168.361 188,-171.361 185,-174.361 182,-174.361"/>
<text text-anchor="middle" x="133" y="-163.161" font-family="Helvetica,sans-Serif" font-size="9.00" fill="#000000">render&#45;description.js</text>
</a>
</g>
</g>
<!-- index.js&#45;&gt;src/plugins/render&#45;description.js -->
<g id="edge2" class="edge">
<title>index.js&#45;&gt;src/plugins/render&#45;description.js</title>
<path fill="none" stroke="#000000" stroke-width="2" stroke-opacity="0.466667" d="M34.3822,-127.3747C40.886,-134.7025 51.0141,-144.7191 62,-150.361 64.0033,-151.3897 66.0729,-152.348 68.1899,-153.2405"/>
<polygon fill="#000000" fill-opacity="0.466667" stroke="#000000" stroke-width="2" stroke-opacity="0.466667" points="67.1229,-156.5773 77.7163,-156.748 69.5415,-150.0084 67.1229,-156.5773"/>
</g>
<!-- src/plugins/timestamp&#45;to&#45;date.js -->
<g id="node7" class="node">
<title>src/plugins/timestamp&#45;to&#45;date.js</title>
<g id="a_node7"><a xlink:href="https://github.com/dragonman225/notablog/tree/master/src/plugins/timestamp-to-date.js" xlink:title="timestamp&#45;to&#45;date.js">
<path fill="#ffffcc" stroke="#000000" d="M182,-144.361C182,-144.361 84,-144.361 84,-144.361 81,-144.361 78,-141.361 78,-138.361 78,-138.361 78,-132.361 78,-132.361 78,-129.361 81,-126.361 84,-126.361 84,-126.361 182,-126.361 182,-126.361 185,-126.361 188,-129.361 188,-132.361 188,-132.361 188,-138.361 188,-138.361 188,-141.361 185,-144.361 182,-144.361"/>
<text text-anchor="middle" x="133" y="-133.161" font-family="Helvetica,sans-Serif" font-size="9.00" fill="#000000">timestamp&#45;to&#45;date.js</text>
</a>
</g>
</g>
<!-- index.js&#45;&gt;src/plugins/timestamp&#45;to&#45;date.js -->
<g id="edge3" class="edge">
<title>index.js&#45;&gt;src/plugins/timestamp&#45;to&#45;date.js</title>
<path fill="none" stroke="#000000" stroke-width="2" stroke-opacity="0.466667" d="M54.0225,-122.6948C58.3929,-123.3957 63.0763,-124.1468 67.9011,-124.9206"/>
<polygon fill="#000000" fill-opacity="0.466667" stroke="#000000" stroke-width="2" stroke-opacity="0.466667" points="67.5198,-128.4041 77.9479,-126.5318 68.6284,-121.4924 67.5198,-128.4041"/>
</g>
<!-- src/render&#45;index.js -->
<g id="node8" class="node">
<title>src/render&#45;index.js</title>
<g id="a_node8"><a xlink:href="https://github.com/dragonman225/notablog/tree/master/src/render-index.js" xlink:title="render&#45;index.js">
<path fill="#ffffcc" stroke="#000000" d="M169,-110.361C169,-110.361 97,-110.361 97,-110.361 94,-110.361 91,-107.361 91,-104.361 91,-104.361 91,-98.361 91,-98.361 91,-95.361 94,-92.361 97,-92.361 97,-92.361 169,-92.361 169,-92.361 172,-92.361 175,-95.361 175,-98.361 175,-98.361 175,-104.361 175,-104.361 175,-107.361 172,-110.361 169,-110.361"/>
<text text-anchor="middle" x="133" y="-99.161" font-family="Helvetica,sans-Serif" font-size="9.00" fill="#000000">render&#45;index.js</text>
</a>
</g>
</g>
<!-- index.js&#45;&gt;src/render&#45;index.js -->
<g id="edge4" class="edge">
<title>index.js&#45;&gt;src/render&#45;index.js</title>
<path fill="none" stroke="#000000" stroke-width="2" stroke-opacity="0.466667" d="M54.0225,-114.0271C62.2208,-112.7123 71.5207,-111.2208 80.7885,-109.7345"/>
<polygon fill="#000000" fill-opacity="0.466667" stroke="#000000" stroke-width="2" stroke-opacity="0.466667" points="81.4592,-113.1717 90.7788,-108.1323 80.3507,-106.2601 81.4592,-113.1717"/>
</g>
<!-- src/render&#45;post.js -->
<g id="node9" class="node">
<title>src/render&#45;post.js</title>
<g id="a_node9"><a xlink:href="https://github.com/dragonman225/notablog/tree/master/src/render-post.js" xlink:title="render&#45;post.js">
<path fill="#ffffcc" stroke="#000000" d="M166.5,-80.361C166.5,-80.361 99.5,-80.361 99.5,-80.361 96.5,-80.361 93.5,-77.361 93.5,-74.361 93.5,-74.361 93.5,-68.361 93.5,-68.361 93.5,-65.361 96.5,-62.361 99.5,-62.361 99.5,-62.361 166.5,-62.361 166.5,-62.361 169.5,-62.361 172.5,-65.361 172.5,-68.361 172.5,-68.361 172.5,-74.361 172.5,-74.361 172.5,-77.361 169.5,-80.361 166.5,-80.361"/>
<text text-anchor="middle" x="133" y="-69.161" font-family="Helvetica,sans-Serif" font-size="9.00" fill="#000000">render&#45;post.js</text>
</a>
</g>
</g>
<!-- index.js&#45;&gt;src/render&#45;post.js -->
<g id="edge5" class="edge">
<title>index.js&#45;&gt;src/render&#45;post.js</title>
<path fill="none" stroke="#000000" stroke-width="2" stroke-opacity="0.466667" d="M34.3822,-109.3472C40.886,-102.0194 51.0141,-92.0028 62,-86.361 68.7014,-82.9194 76.146,-80.2672 83.6209,-78.2234"/>
<polygon fill="#000000" fill-opacity="0.466667" stroke="#000000" stroke-width="2" stroke-opacity="0.466667" points="84.4998,-81.612 93.4049,-75.8718 82.8639,-74.8058 84.4998,-81.612"/>
</g>
<!-- src/utils.js -->
<g id="node10" class="node">
<title>src/utils.js</title>
<g id="a_node10"><a xlink:href="https://github.com/dragonman225/notablog/tree/master/src/utils.js" xlink:title="utils.js">
<path fill="#ffffcc" stroke="#000000" d="M263.5,-80.361C263.5,-80.361 221.5,-80.361 221.5,-80.361 218.5,-80.361 215.5,-77.361 215.5,-74.361 215.5,-74.361 215.5,-68.361 215.5,-68.361 215.5,-65.361 218.5,-62.361 221.5,-62.361 221.5,-62.361 263.5,-62.361 263.5,-62.361 266.5,-62.361 269.5,-65.361 269.5,-68.361 269.5,-68.361 269.5,-74.361 269.5,-74.361 269.5,-77.361 266.5,-80.361 263.5,-80.361"/>
<text text-anchor="middle" x="242.5" y="-69.161" font-family="Helvetica,sans-Serif" font-size="9.00" fill="#000000">utils.js</text>
</a>
</g>
</g>
<!-- index.js&#45;&gt;src/utils.js -->
<g id="edge6" class="edge">
<title>index.js&#45;&gt;src/utils.js</title>
<path fill="none" stroke="#000000" stroke-width="2" stroke-opacity="0.466667" d="M29.1182,-109.1152C34.2136,-87.7752 47.7903,-36.1583 62,-26.361 111.0308,7.4451 148.7731,9.9224 196,-26.361 206.9427,-34.768 194.7983,-46.0775 204,-56.361 204.7653,-57.2163 205.5854,-58.0233 206.4504,-58.7846"/>
<polygon fill="#000000" fill-opacity="0.466667" stroke="#000000" stroke-width="2" stroke-opacity="0.466667" points="204.8935,-61.9478 215.1817,-64.4781 208.7169,-56.0842 204.8935,-61.9478"/>
</g>
<!-- src/notion&#45;utils.js -->
<g id="node4" class="node">
<title>src/notion&#45;utils.js</title>
<g id="a_node4"><a xlink:href="https://github.com/dragonman225/notablog/tree/master/src/notion-utils.js" xlink:title="notion&#45;utils.js">
<path fill="#ffffcc" stroke="#000000" d="M275,-50.361C275,-50.361 210,-50.361 210,-50.361 207,-50.361 204,-47.361 204,-44.361 204,-44.361 204,-38.361 204,-38.361 204,-35.361 207,-32.361 210,-32.361 210,-32.361 275,-32.361 275,-32.361 278,-32.361 281,-35.361 281,-38.361 281,-38.361 281,-44.361 281,-44.361 281,-47.361 278,-50.361 275,-50.361"/>
<text text-anchor="middle" x="242.5" y="-39.161" font-family="Helvetica,sans-Serif" font-size="9.00" fill="#000000">notion&#45;utils.js</text>
</a>
</g>
</g>
<!-- src/parse&#45;table.js&#45;&gt;src/notion&#45;utils.js -->
<g id="edge9" class="edge">
<title>src/parse&#45;table.js&#45;&gt;src/notion&#45;utils.js</title>
<path fill="none" stroke="#000000" stroke-width="2" stroke-opacity="0.466667" d="M171.6056,-41.361C178.802,-41.361 186.4071,-41.361 193.8593,-41.361"/>
<polygon fill="#000000" fill-opacity="0.466667" stroke="#000000" stroke-width="2" stroke-opacity="0.466667" points="193.874,-44.8611 203.8739,-41.361 193.8739,-37.8611 193.874,-44.8611"/>
</g>
<!-- src/render&#45;index.js&#45;&gt;fs -->
<g id="edge11" class="edge">
<title>src/render&#45;index.js&#45;&gt;fs</title>
<path fill="none" stroke="#c0c0c0" d="M175.1135,-102.9449C183.1051,-105.2049 190.6333,-109.041 196,-115.361 216.6012,-139.6216 185.3113,-232.5982 204,-258.361 204.8951,-259.5948 205.9068,-260.7272 207.0097,-261.7665"/>
<polygon fill="#c0c0c0" stroke="#c0c0c0" points="205.0875,-264.6916 215.3403,-267.362 208.9906,-258.8807 205.0875,-264.6916"/>
</g>
<!-- src/render&#45;index.js&#45;&gt;path -->
<g id="edge12" class="edge">
<title>src/render&#45;index.js&#45;&gt;path</title>
<path fill="none" stroke="#c0c0c0" d="M175.0458,-103.0028C183.0416,-105.2592 190.5886,-109.0791 196,-115.361 212.5748,-134.6019 188.711,-209.0832 204,-229.361 204.8189,-230.447 205.7303,-231.449 206.7158,-232.3733"/>
<polygon fill="#c0c0c0" stroke="#c0c0c0" points="205.1288,-235.5168 215.4169,-238.0474 208.9524,-229.6533 205.1288,-235.5168"/>
</g>
<!-- src/render&#45;index.js&#45;&gt;src/utils.js -->
<g id="edge10" class="edge">
<title>src/render&#45;index.js&#45;&gt;src/utils.js</title>
<path fill="none" stroke="#000000" stroke-width="2" stroke-opacity="0.466667" d="M173.1143,-92.3076C180.7413,-90.4458 188.6375,-88.4215 196,-86.361 199.1858,-85.4693 202.4801,-84.5013 205.7759,-83.5007"/>
<polygon fill="#000000" fill-opacity="0.466667" stroke="#000000" stroke-width="2" stroke-opacity="0.466667" points="207.0586,-86.7669 215.561,-80.4456 204.9723,-80.085 207.0586,-86.7669"/>
</g>
<!-- src/render&#45;post.js&#45;&gt;fs -->
<g id="edge14" class="edge">
<title>src/render&#45;post.js&#45;&gt;fs</title>
<path fill="none" stroke="#c0c0c0" d="M172.5987,-72.8897C181.5416,-75.1703 190.1189,-79.2609 196,-86.361 208.2041,-101.0947 192.839,-242.8221 204,-258.361 204.8893,-259.599 205.8962,-260.7349 206.9951,-261.7771"/>
<polygon fill="#c0c0c0" stroke="#c0c0c0" points="205.0622,-264.6951 215.3102,-267.3837 208.9756,-258.8912 205.0622,-264.6951"/>
</g>
<!-- src/render&#45;post.js&#45;&gt;path -->
<g id="edge15" class="edge">
<title>src/render&#45;post.js&#45;&gt;path</title>
<path fill="none" stroke="#c0c0c0" d="M172.5525,-72.9281C181.4963,-75.208 190.0856,-79.2886 196,-86.361 216.4177,-110.7762 185.0195,-203.8124 204,-229.361 204.8112,-230.4528 205.716,-231.4597 206.696,-232.3882"/>
<polygon fill="#c0c0c0" stroke="#c0c0c0" points="205.0914,-235.5214 215.3725,-238.0807 208.9314,-229.6686 205.0914,-235.5214"/>
</g>
<!-- src/render&#45;post.js&#45;&gt;src/utils.js -->
<g id="edge13" class="edge">
<title>src/render&#45;post.js&#45;&gt;src/utils.js</title>
<path fill="none" stroke="#000000" stroke-width="2" stroke-opacity="0.466667" d="M172.532,-71.361C183.1912,-71.361 194.6863,-71.361 205.2182,-71.361"/>
<polygon fill="#000000" fill-opacity="0.466667" stroke="#000000" stroke-width="2" stroke-opacity="0.466667" points="205.3623,-74.8611 215.3623,-71.361 205.3622,-67.8611 205.3623,-74.8611"/>
</g>
</g>
</svg>
