<?xml version="1.0" encoding="UTF-8" standalone="no"?>
<!DOCTYPE svg PUBLIC "-//W3C//DTD SVG 1.1//EN"
 "http://www.w3.org/Graphics/SVG/1.1/DTD/svg11.dtd">
<!-- Generated by graphviz version 2.49.0 (0)
 -->
<!-- Title: dependency&#45;cruiser output Pages: 1 -->
<svg width="545pt" height="388pt"
 viewBox="0.00 0.00 545.00 387.82" xmlns="http://www.w3.org/2000/svg" xmlns:xlink="http://www.w3.org/1999/xlink">
<g id="graph0" class="graph" transform="scale(1 1) rotate(0) translate(4 383.82)">
<title>dependency&#45;cruiser output</title>
<polygon fill="white" stroke="transparent" points="-4,4 -4,-383.82 541,-383.82 541,4 -4,4"/>
<g id="clust1" class="cluster">
<title>cluster_src</title>
<path fill="#ffffff" stroke="black" stroke-width="2" d="M20,-71.01C20,-71.01 463,-71.01 463,-71.01 469,-71.01 475,-77.01 475,-83.01 475,-83.01 475,-285.01 475,-285.01 475,-291.01 469,-297.01 463,-297.01 463,-297.01 20,-297.01 20,-297.01 14,-297.01 8,-291.01 8,-285.01 8,-285.01 8,-83.01 8,-83.01 8,-77.01 14,-71.01 20,-71.01"/>
<text text-anchor="middle" x="241.5" y="-285.81" font-family="Helvetica,sans-Serif" font-weight="bold" font-size="9.00">src</text>
</g>
<g id="clust2" class="cluster">
<title>cluster_src/commands</title>
<path fill="#ffffff" stroke="black" stroke-width="2" d="M90,-168.01C90,-168.01 150,-168.01 150,-168.01 156,-168.01 162,-174.01 162,-180.01 162,-180.01 162,-238.01 162,-238.01 162,-244.01 156,-250.01 150,-250.01 150,-250.01 90,-250.01 90,-250.01 84,-250.01 78,-244.01 78,-238.01 78,-238.01 78,-180.01 78,-180.01 78,-174.01 84,-168.01 90,-168.01"/>
<text text-anchor="middle" x="120" y="-238.81" font-family="Helvetica,sans-Serif" font-weight="bold" font-size="9.00">commands</text>
</g>
<!-- child_process -->
<g id="node1" class="node">
<title>child_process</title>
<path fill="#ffffcc" stroke="grey" d="M245.5,-63.01C245.5,-63.01 180.5,-63.01 180.5,-63.01 177.5,-63.01 174.5,-60.01 174.5,-57.01 174.5,-57.01 174.5,-51.01 174.5,-51.01 174.5,-48.01 177.5,-45.01 180.5,-45.01 180.5,-45.01 245.5,-45.01 245.5,-45.01 248.5,-45.01 251.5,-48.01 251.5,-51.01 251.5,-51.01 251.5,-57.01 251.5,-57.01 251.5,-60.01 248.5,-63.01 245.5,-63.01"/>
<text text-anchor="middle" x="213" y="-51.81" font-family="Helvetica,sans-Serif" font-size="9.00" fill="grey">child_process</text>
</g>
<!-- crypto -->
<g id="node2" class="node">
<title>crypto</title>
<path fill="#ffffcc" stroke="grey" d="M449,-63.01C449,-63.01 407,-63.01 407,-63.01 404,-63.01 401,-60.01 401,-57.01 401,-57.01 401,-51.01 401,-51.01 401,-48.01 404,-45.01 407,-45.01 407,-45.01 449,-45.01 449,-45.01 452,-45.01 455,-48.01 455,-51.01 455,-51.01 455,-57.01 455,-57.01 455,-60.01 452,-63.01 449,-63.01"/>
<text text-anchor="middle" x="428" y="-51.81" font-family="Helvetica,sans-Serif" font-size="9.00" fill="grey">crypto</text>
</g>
<!-- fs -->
<g id="node3" class="node">
<title>fs</title>
<path fill="#ffffcc" stroke="grey" d="M531,-35.01C531,-35.01 489,-35.01 489,-35.01 486,-35.01 483,-32.01 483,-29.01 483,-29.01 483,-23.01 483,-23.01 483,-20.01 486,-17.01 489,-17.01 489,-17.01 531,-17.01 531,-17.01 534,-17.01 537,-20.01 537,-23.01 537,-23.01 537,-29.01 537,-29.01 537,-32.01 534,-35.01 531,-35.01"/>
<text text-anchor="middle" x="510" y="-23.81" font-family="Helvetica,sans-Serif" font-size="9.00" fill="grey">fs</text>
</g>
<!-- path -->
<g id="node4" class="node">
<title>path</title>
<path fill="#ffffcc" stroke="grey" d="M531,-273.01C531,-273.01 489,-273.01 489,-273.01 486,-273.01 483,-270.01 483,-267.01 483,-267.01 483,-261.01 483,-261.01 483,-258.01 486,-255.01 489,-255.01 489,-255.01 531,-255.01 531,-255.01 534,-255.01 537,-258.01 537,-261.01 537,-261.01 537,-267.01 537,-267.01 537,-270.01 534,-273.01 531,-273.01"/>
<text text-anchor="middle" x="510" y="-261.81" font-family="Helvetica,sans-Serif" font-size="9.00" fill="grey">path</text>
</g>
<!-- src/cache.ts -->
<g id="node5" class="node">
<title>src/cache.ts</title>
<g id="a_node5"><a xlink:href="https://github.com/dragonman225/notablog/tree/master/src/cache.ts" xlink:title="cache.ts">
<path fill="#ddfeff" stroke="black" d="M344,-141.01C344,-141.01 301,-141.01 301,-141.01 298,-141.01 295,-138.01 295,-135.01 295,-135.01 295,-129.01 295,-129.01 295,-126.01 298,-123.01 301,-123.01 301,-123.01 344,-123.01 344,-123.01 347,-123.01 350,-126.01 350,-129.01 350,-129.01 350,-135.01 350,-135.01 350,-138.01 347,-141.01 344,-141.01"/>
<text text-anchor="middle" x="322.5" y="-129.81" font-family="Helvetica,sans-Serif" font-size="9.00">cache.ts</text>
</a>
</g>
</g>
<!-- src/cache.ts&#45;&gt;crypto -->
<g id="edge2" class="edge">
<title>src/cache.ts&#45;&gt;crypto</title>
<path fill="none" stroke="#000000" stroke-dasharray="5,2" stroke-opacity="0.200000" d="M350.01,-129.81C359.33,-127.77 369.16,-123.98 376,-117.01 391.78,-100.93 373.83,-84.67 389,-68.01 390.81,-66.03 392.93,-64.32 395.22,-62.85"/>
<polygon fill="#000000" fill-opacity="0.200000" stroke="#000000" stroke-opacity="0.200000" points="396.53,-64.54 400.83,-59.86 394.55,-60.83 396.53,-64.54"/>
</g>
<!-- src/cache.ts&#45;&gt;fs -->
<g id="edge3" class="edge">
<title>src/cache.ts&#45;&gt;fs</title>
<path fill="none" stroke="#000000" stroke-dasharray="5,2" stroke-opacity="0.200000" d="M350.1,-130.21C359.54,-128.22 369.43,-124.37 376,-117.01 399.41,-90.8 363.45,-63.14 389,-39.01 411.99,-17.3 449.57,-16.67 476.56,-19.81"/>
<polygon fill="#000000" fill-opacity="0.200000" stroke="#000000" stroke-opacity="0.200000" points="476.61,-21.93 482.83,-20.63 477.15,-17.77 476.61,-21.93"/>
</g>
<!-- src/cache.ts&#45;&gt;path -->
<g id="edge4" class="edge">
<title>src/cache.ts&#45;&gt;path</title>
<path fill="none" stroke="#000000" stroke-dasharray="5,2" stroke-opacity="0.200000" d="M348.34,-141.12C358.11,-145.77 368.71,-152.32 376,-161.01 387.47,-174.69 376.02,-186.76 389,-199.01 417.85,-226.26 441.71,-201.42 475,-223.01 485.41,-229.76 494.25,-240.7 500.3,-249.58"/>
<polygon fill="#000000" fill-opacity="0.200000" stroke="#000000" stroke-opacity="0.200000" points="498.66,-250.91 503.7,-254.79 502.18,-248.61 498.66,-250.91"/>
</g>
<!-- src/utils.ts -->
<g id="node6" class="node">
<title>src/utils.ts</title>
<g id="a_node6"><a xlink:href="https://github.com/dragonman225/notablog/tree/master/src/utils.ts" xlink:title="utils.ts">
<path fill="#ddfeff" stroke="black" d="M449,-193.01C449,-193.01 407,-193.01 407,-193.01 404,-193.01 401,-190.01 401,-187.01 401,-187.01 401,-181.01 401,-181.01 401,-178.01 404,-175.01 407,-175.01 407,-175.01 449,-175.01 449,-175.01 452,-175.01 455,-178.01 455,-181.01 455,-181.01 455,-187.01 455,-187.01 455,-190.01 452,-193.01 449,-193.01"/>
<text text-anchor="middle" x="428" y="-181.81" font-family="Helvetica,sans-Serif" font-size="9.00">utils.ts</text>
</a>
</g>
</g>
<!-- src/cache.ts&#45;&gt;src/utils.ts -->
<g id="edge1" class="edge">
<title>src/cache.ts&#45;&gt;src/utils.ts</title>
<path fill="none" stroke="#000000" stroke-width="2" stroke-opacity="0.200000" d="M339.76,-141.11C352.91,-148.37 371.98,-158.67 389,-167.01 392.66,-168.81 396.56,-170.64 400.4,-172.4"/>
<polygon fill="#000000" fill-opacity="0.200000" stroke="#000000" stroke-width="2" stroke-opacity="0.200000" points="399.64,-174.36 405.97,-174.92 401.37,-170.53 399.64,-174.36"/>
</g>
<!-- src/utils.ts&#45;&gt;fs -->
<g id="edge37" class="edge">
<title>src/utils.ts&#45;&gt;fs</title>
<path fill="none" stroke="#000000" stroke-dasharray="5,2" stroke-opacity="0.200000" d="M455.04,-179.23C462.39,-176.71 469.8,-172.87 475,-167.01 507.06,-130.95 510.17,-69.87 509.71,-41.43"/>
<polygon fill="#000000" fill-opacity="0.200000" stroke="#000000" stroke-opacity="0.200000" points="511.81,-41.19 509.55,-35.25 507.61,-41.31 511.81,-41.19"/>
</g>
<!-- src/utils.ts&#45;&gt;path -->
<g id="edge38" class="edge">
<title>src/utils.ts&#45;&gt;path</title>
<path fill="none" stroke="#000000" stroke-dasharray="5,2" stroke-opacity="0.200000" d="M455.11,-190.66C462.12,-193.35 469.33,-197.03 475,-202.01 489.39,-214.67 498.87,-234.94 504.08,-248.84"/>
<polygon fill="#000000" fill-opacity="0.200000" stroke="#000000" stroke-opacity="0.200000" points="502.19,-249.77 506.18,-254.72 506.14,-248.37 502.19,-249.77"/>
</g>
<!-- src/commands/generate.ts -->
<g id="node7" class="node">
<title>src/commands/generate.ts</title>
<g id="a_node7"><a xlink:href="https://github.com/dragonman225/notablog/tree/master/src/commands/generate.ts" xlink:title="generate.ts">
<path fill="#ddfeff" stroke="black" d="M148,-194.01C148,-194.01 92,-194.01 92,-194.01 89,-194.01 86,-191.01 86,-188.01 86,-188.01 86,-182.01 86,-182.01 86,-179.01 89,-176.01 92,-176.01 92,-176.01 148,-176.01 148,-176.01 151,-176.01 154,-179.01 154,-182.01 154,-182.01 154,-188.01 154,-188.01 154,-191.01 151,-194.01 148,-194.01"/>
<text text-anchor="middle" x="120" y="-182.81" font-family="Helvetica,sans-Serif" font-size="9.00">generate.ts</text>
</a>
</g>
</g>
<!-- src/commands/generate.ts&#45;&gt;fs -->
<g id="edge13" class="edge">
<title>src/commands/generate.ts&#45;&gt;fs</title>
<path fill="none" stroke="#000000" stroke-dasharray="5,2" stroke-opacity="0.200000" d="M121.15,-175.84C122.09,-150.05 128.47,-76.4 170,-39.01 243.07,26.75 290.77,-11.69 389,-8.01 427.2,-6.58 437.9,1.2 475,-8.01 480.12,-9.29 485.33,-11.49 490.07,-13.93"/>
<polygon fill="#000000" fill-opacity="0.200000" stroke="#000000" stroke-opacity="0.200000" points="489.13,-15.81 495.4,-16.86 491.15,-12.13 489.13,-15.81"/>
</g>
<!-- src/commands/generate.ts&#45;&gt;path -->
<g id="edge14" class="edge">
<title>src/commands/generate.ts&#45;&gt;path</title>
<path fill="none" stroke="#000000" stroke-dasharray="5,2" stroke-opacity="0.200000" d="M154.25,-193.13C157.21,-194.98 159.89,-197.24 162,-200.01 175.49,-217.76 153.62,-284.89 170,-300.01 219.8,-345.99 412.76,-326.84 475,-300.01 485.26,-295.59 493.87,-286.38 499.86,-278.38"/>
<polygon fill="#000000" fill-opacity="0.200000" stroke="#000000" stroke-opacity="0.200000" points="501.83,-279.22 503.57,-273.11 498.4,-276.8 501.83,-279.22"/>
</g>
<!-- src/commands/generate.ts&#45;&gt;src/cache.ts -->
<g id="edge5" class="edge">
<title>src/commands/generate.ts&#45;&gt;src/cache.ts</title>
<path fill="none" stroke="#000000" stroke-width="2" stroke-opacity="0.200000" d="M126.56,-175.71C134.45,-163.49 150.17,-142.61 170,-134.01 208.12,-117.48 256.88,-120.59 288.64,-125.39"/>
<polygon fill="#000000" fill-opacity="0.200000" stroke="#000000" stroke-width="2" stroke-opacity="0.200000" points="288.5,-127.5 294.75,-126.37 289.16,-123.35 288.5,-127.5"/>
</g>
<!-- src/commands/generate.ts&#45;&gt;src/utils.ts -->
<g id="edge12" class="edge">
<title>src/commands/generate.ts&#45;&gt;src/utils.ts</title>
<path fill="none" stroke="#000000" stroke-width="2" stroke-opacity="0.200000" d="M154.02,-189.09C193.28,-193.99 253.81,-201.71 256,-203.01 264.47,-208.08 260.21,-216.52 269,-221.01 290.17,-231.84 353.38,-228.35 376,-221.01 390.35,-216.36 404.05,-205.97 413.62,-197.39"/>
<polygon fill="#000000" fill-opacity="0.200000" stroke="#000000" stroke-width="2" stroke-opacity="0.200000" points="415.27,-198.73 418.24,-193.1 412.41,-195.65 415.27,-198.73"/>
</g>
<!-- src/config.ts -->
<g id="node8" class="node">
<title>src/config.ts</title>
<g id="a_node8"><a xlink:href="https://github.com/dragonman225/notablog/tree/master/src/config.ts" xlink:title="config.ts">
<path fill="#ddfeff" stroke="black" d="M235,-227.01C235,-227.01 191,-227.01 191,-227.01 188,-227.01 185,-224.01 185,-221.01 185,-221.01 185,-215.01 185,-215.01 185,-212.01 188,-209.01 191,-209.01 191,-209.01 235,-209.01 235,-209.01 238,-209.01 241,-212.01 241,-215.01 241,-215.01 241,-221.01 241,-221.01 241,-224.01 238,-227.01 235,-227.01"/>
<text text-anchor="middle" x="213" y="-215.81" font-family="Helvetica,sans-Serif" font-size="9.00">config.ts</text>
</a>
</g>
</g>
<!-- src/commands/generate.ts&#45;&gt;src/config.ts -->
<g id="edge6" class="edge">
<title>src/commands/generate.ts&#45;&gt;src/config.ts</title>
<path fill="none" stroke="#000000" stroke-width="2" stroke-opacity="0.200000" d="M145.87,-194.03C156.8,-198 169.75,-202.69 181.28,-206.87"/>
<polygon fill="#000000" fill-opacity="0.200000" stroke="#000000" stroke-width="2" stroke-opacity="0.200000" points="180.81,-208.94 187.16,-209.01 182.24,-204.99 180.81,-208.94"/>
</g>
<!-- src/notion&#45;utils.ts -->
<g id="node9" class="node">
<title>src/notion&#45;utils.ts</title>
<g id="a_node9"><a xlink:href="https://github.com/dragonman225/notablog/tree/master/src/notion-utils.ts" xlink:title="notion&#45;utils.ts">
<path fill="#ddfeff" stroke="black" d="M461,-161.01C461,-161.01 395,-161.01 395,-161.01 392,-161.01 389,-158.01 389,-155.01 389,-155.01 389,-149.01 389,-149.01 389,-146.01 392,-143.01 395,-143.01 395,-143.01 461,-143.01 461,-143.01 464,-143.01 467,-146.01 467,-149.01 467,-149.01 467,-155.01 467,-155.01 467,-158.01 464,-161.01 461,-161.01"/>
<text text-anchor="middle" x="428" y="-149.81" font-family="Helvetica,sans-Serif" font-size="9.00">notion&#45;utils.ts</text>
</a>
</g>
</g>
<!-- src/commands/generate.ts&#45;&gt;src/notion&#45;utils.ts -->
<g id="edge7" class="edge">
<title>src/commands/generate.ts&#45;&gt;src/notion&#45;utils.ts</title>
<path fill="none" stroke="#000000" stroke-width="2" stroke-opacity="0.200000" d="M128.54,-175.93C137.32,-166.14 152.83,-151.13 170,-145.01 206,-132.18 217.89,-142.1 256,-145.01 261.83,-145.46 263.18,-146.48 269,-147.01 307.3,-150.55 351.02,-151.72 382.75,-152.04"/>
<polygon fill="#000000" fill-opacity="0.200000" stroke="#000000" stroke-width="2" stroke-opacity="0.200000" points="382.91,-154.14 388.93,-152.1 382.95,-149.94 382.91,-154.14"/>
</g>
<!-- src/parse&#45;table.ts -->
<g id="node10" class="node">
<title>src/parse&#45;table.ts</title>
<g id="a_node10"><a xlink:href="https://github.com/dragonman225/notablog/tree/master/src/parse-table.ts" xlink:title="parse&#45;table.ts">
<path fill="#ddfeff" stroke="black" d="M246,-111.01C246,-111.01 180,-111.01 180,-111.01 177,-111.01 174,-108.01 174,-105.01 174,-105.01 174,-99.01 174,-99.01 174,-96.01 177,-93.01 180,-93.01 180,-93.01 246,-93.01 246,-93.01 249,-93.01 252,-96.01 252,-99.01 252,-99.01 252,-105.01 252,-105.01 252,-108.01 249,-111.01 246,-111.01"/>
<text text-anchor="middle" x="213" y="-99.81" font-family="Helvetica,sans-Serif" font-size="9.00">parse&#45;table.ts</text>
</a>
</g>
</g>
<!-- src/commands/generate.ts&#45;&gt;src/parse&#45;table.ts -->
<g id="edge8" class="edge">
<title>src/commands/generate.ts&#45;&gt;src/parse&#45;table.ts</title>
<path fill="none" stroke="#000000" stroke-width="2" stroke-opacity="0.200000" d="M125.84,-175.84C133.53,-162.04 149.76,-135.88 170,-120.01 172.95,-117.7 176.24,-115.63 179.65,-113.79"/>
<polygon fill="#000000" fill-opacity="0.200000" stroke="#000000" stroke-width="2" stroke-opacity="0.200000" points="180.64,-115.64 185.06,-111.08 178.76,-111.89 180.64,-115.64"/>
</g>
<!-- src/render&#45;index.ts -->
<g id="node11" class="node">
<title>src/render&#45;index.ts</title>
<g id="a_node11"><a xlink:href="https://github.com/dragonman225/notablog/tree/master/src/render-index.ts" xlink:title="render&#45;index.ts">
<path fill="#ddfeff" stroke="black" d="M250,-257.01C250,-257.01 176,-257.01 176,-257.01 173,-257.01 170,-254.01 170,-251.01 170,-251.01 170,-245.01 170,-245.01 170,-242.01 173,-239.01 176,-239.01 176,-239.01 250,-239.01 250,-239.01 253,-239.01 256,-242.01 256,-245.01 256,-245.01 256,-251.01 256,-251.01 256,-254.01 253,-257.01 250,-257.01"/>
<text text-anchor="middle" x="213" y="-245.81" font-family="Helvetica,sans-Serif" font-size="9.00">render&#45;index.ts</text>
</a>
</g>
</g>
<!-- src/commands/generate.ts&#45;&gt;src/render&#45;index.ts -->
<g id="edge9" class="edge">
<title>src/commands/generate.ts&#45;&gt;src/render&#45;index.ts</title>
<path fill="none" stroke="#000000" stroke-width="2" stroke-opacity="0.200000" d="M154.21,-193.72C157.11,-195.45 159.78,-197.53 162,-200.01 172.05,-211.27 159.9,-221.8 170,-233.01 170.65,-233.73 171.33,-234.42 172.05,-235.07"/>
<polygon fill="#000000" fill-opacity="0.200000" stroke="#000000" stroke-width="2" stroke-opacity="0.200000" points="171.12,-237 177.18,-238.91 173.64,-233.64 171.12,-237"/>
</g>
<!-- src/render&#45;post.ts -->
<g id="node12" class="node">
<title>src/render&#45;post.ts</title>
<g id="a_node12"><a xlink:href="https://github.com/dragonman225/notablog/tree/master/src/render-post.ts" xlink:title="render&#45;post.ts">
<path fill="#ddfeff" stroke="black" d="M356.5,-215.01C356.5,-215.01 288.5,-215.01 288.5,-215.01 285.5,-215.01 282.5,-212.01 282.5,-209.01 282.5,-209.01 282.5,-203.01 282.5,-203.01 282.5,-200.01 285.5,-197.01 288.5,-197.01 288.5,-197.01 356.5,-197.01 356.5,-197.01 359.5,-197.01 362.5,-200.01 362.5,-203.01 362.5,-203.01 362.5,-209.01 362.5,-209.01 362.5,-212.01 359.5,-215.01 356.5,-215.01"/>
<text text-anchor="middle" x="322.5" y="-203.81" font-family="Helvetica,sans-Serif" font-size="9.00">render&#45;post.ts</text>
</a>
</g>
</g>
<!-- src/commands/generate.ts&#45;&gt;src/render&#45;post.ts -->
<g id="edge10" class="edge">
<title>src/commands/generate.ts&#45;&gt;src/render&#45;post.ts</title>
<path fill="none" stroke="#000000" stroke-width="2" stroke-opacity="0.200000" d="M154.14,-185.27C181.56,-185.83 221.45,-187.46 256,-192.01 263.21,-192.96 270.8,-194.29 278.16,-195.74"/>
<polygon fill="#000000" fill-opacity="0.200000" stroke="#000000" stroke-width="2" stroke-opacity="0.200000" points="277.97,-197.84 284.27,-196.99 278.81,-193.73 277.97,-197.84"/>
</g>
<!-- src/renderer.ts -->
<g id="node13" class="node">
<title>src/renderer.ts</title>
<g id="a_node13"><a xlink:href="https://github.com/dragonman225/notablog/tree/master/src/renderer.ts" xlink:title="renderer.ts">
<path fill="#ddfeff" stroke="black" d="M239.5,-169.01C239.5,-169.01 186.5,-169.01 186.5,-169.01 183.5,-169.01 180.5,-166.01 180.5,-163.01 180.5,-163.01 180.5,-157.01 180.5,-157.01 180.5,-154.01 183.5,-151.01 186.5,-151.01 186.5,-151.01 239.5,-151.01 239.5,-151.01 242.5,-151.01 245.5,-154.01 245.5,-157.01 245.5,-157.01 245.5,-163.01 245.5,-163.01 245.5,-166.01 242.5,-169.01 239.5,-169.01"/>
<text text-anchor="middle" x="213" y="-157.81" font-family="Helvetica,sans-Serif" font-size="9.00">renderer.ts</text>
</a>
</g>
</g>
<!-- src/commands/generate.ts&#45;&gt;src/renderer.ts -->
<g id="edge11" class="edge">
<title>src/commands/generate.ts&#45;&gt;src/renderer.ts</title>
<path fill="none" stroke="#000000" stroke-width="2" stroke-opacity="0.200000" d="M153.85,-175.99C160.48,-174.17 167.49,-172.24 174.27,-170.38"/>
<polygon fill="#000000" fill-opacity="0.200000" stroke="#000000" stroke-width="2" stroke-opacity="0.200000" points="175.18,-172.31 180.41,-168.69 174.07,-168.26 175.18,-172.31"/>
</g>
<!-- src/config.ts&#45;&gt;fs -->
<g id="edge20" class="edge">
<title>src/config.ts&#45;&gt;fs</title>
<path fill="none" stroke="#000000" stroke-dasharray="5,2" stroke-opacity="0.200000" d="M226.46,-208.9C236.18,-201.06 249.14,-188.85 256,-175.01 273.56,-139.59 246.95,-119.83 269,-87.01 303.56,-35.58 329.23,-32.37 389,-16.01 425.87,-5.92 437.17,-10.57 475,-16.01 475.48,-16.08 475.96,-16.16 476.45,-16.24"/>
<polygon fill="#000000" fill-opacity="0.200000" stroke="#000000" stroke-opacity="0.200000" points="476.51,-18.39 482.81,-17.51 477.33,-14.27 476.51,-18.39"/>
</g>
<!-- src/config.ts&#45;&gt;src/utils.ts -->
<g id="edge19" class="edge">
<title>src/config.ts&#45;&gt;src/utils.ts</title>
<path fill="none" stroke="#000000" stroke-width="2" stroke-opacity="0.200000" d="M239.44,-227.06C272.24,-237.22 330.47,-250.07 376,-232.01 393.05,-225.25 407.72,-209.78 416.89,-198.22"/>
<polygon fill="#000000" fill-opacity="0.200000" stroke="#000000" stroke-width="2" stroke-opacity="0.200000" points="418.73,-199.28 420.71,-193.23 415.4,-196.72 418.73,-199.28"/>
</g>
<!-- src/parse&#45;table.ts&#45;&gt;src/notion&#45;utils.ts -->
<g id="edge24" class="edge">
<title>src/parse&#45;table.ts&#45;&gt;src/notion&#45;utils.ts</title>
<path fill="none" stroke="#000000" stroke-width="2" stroke-opacity="0.200000" d="M236.27,-92.95C268.76,-81.22 330.28,-64.77 376,-87.01 397.18,-97.32 412.17,-121.15 420.2,-136.91"/>
<polygon fill="#000000" fill-opacity="0.200000" stroke="#000000" stroke-width="2" stroke-opacity="0.200000" points="418.51,-138.24 423.03,-142.71 422.29,-136.4 418.51,-138.24"/>
</g>
<!-- src/ntable.ts -->
<g id="node16" class="node">
<title>src/ntable.ts</title>
<g id="a_node16"><a xlink:href="https://github.com/dragonman225/notablog/tree/master/src/ntable.ts" xlink:title="ntable.ts">
<path fill="#ddfeff" stroke="black" d="M344.5,-111.01C344.5,-111.01 300.5,-111.01 300.5,-111.01 297.5,-111.01 294.5,-108.01 294.5,-105.01 294.5,-105.01 294.5,-99.01 294.5,-99.01 294.5,-96.01 297.5,-93.01 300.5,-93.01 300.5,-93.01 344.5,-93.01 344.5,-93.01 347.5,-93.01 350.5,-96.01 350.5,-99.01 350.5,-99.01 350.5,-105.01 350.5,-105.01 350.5,-108.01 347.5,-111.01 344.5,-111.01"/>
<text text-anchor="middle" x="322.5" y="-99.81" font-family="Helvetica,sans-Serif" font-size="9.00">ntable.ts</text>
</a>
</g>
</g>
<!-- src/parse&#45;table.ts&#45;&gt;src/ntable.ts -->
<g id="edge25" class="edge">
<title>src/parse&#45;table.ts&#45;&gt;src/ntable.ts</title>
<path fill="none" stroke="#000000" stroke-width="2" stroke-opacity="0.200000" d="M252.2,-102.01C263.91,-102.01 276.7,-102.01 288.07,-102.01"/>
<polygon fill="#000000" fill-opacity="0.200000" stroke="#000000" stroke-width="2" stroke-opacity="0.200000" points="288.22,-104.11 294.22,-102.01 288.22,-99.91 288.22,-104.11"/>
</g>
<!-- src/render&#45;index.ts&#45;&gt;fs -->
<g id="edge27" class="edge">
<title>src/render&#45;index.ts&#45;&gt;fs</title>
<path fill="none" stroke="#000000" stroke-dasharray="5,2" stroke-opacity="0.200000" d="M249.58,-238.97C252.01,-237.31 254.2,-235.34 256,-233.01 275.93,-207.25 251.62,-114.57 269,-87.01 302.06,-34.6 329.23,-32.37 389,-16.01 425.87,-5.92 437.17,-10.57 475,-16.01 475.48,-16.08 475.96,-16.16 476.45,-16.24"/>
<polygon fill="#000000" fill-opacity="0.200000" stroke="#000000" stroke-opacity="0.200000" points="476.51,-18.39 482.81,-17.51 477.33,-14.27 476.51,-18.39"/>
</g>
<!-- src/render&#45;index.ts&#45;&gt;path -->
<g id="edge28" class="edge">
<title>src/render&#45;index.ts&#45;&gt;path</title>
<path fill="none" stroke="#000000" stroke-dasharray="5,2" stroke-opacity="0.200000" d="M256.35,-253.29C291.74,-257.41 343.57,-262.81 389,-265.01 427.18,-266.86 436.78,-265.58 475,-265.01 475.46,-265.01 475.93,-265 476.41,-264.99"/>
<polygon fill="#000000" fill-opacity="0.200000" stroke="#000000" stroke-opacity="0.200000" points="476.69,-267.09 482.64,-264.87 476.6,-262.89 476.69,-267.09"/>
</g>
<!-- src/render&#45;index.ts&#45;&gt;src/utils.ts -->
<g id="edge26" class="edge">
<title>src/render&#45;index.ts&#45;&gt;src/utils.ts</title>
<path fill="none" stroke="#000000" stroke-width="2" stroke-opacity="0.200000" d="M256.04,-254.44C290.05,-257.69 338.31,-257.79 376,-240.01 394.73,-231.18 409.72,-212.02 418.48,-198.58"/>
<polygon fill="#000000" fill-opacity="0.200000" stroke="#000000" stroke-width="2" stroke-opacity="0.200000" points="420.43,-199.42 421.84,-193.22 416.88,-197.19 420.43,-199.42"/>
</g>
<!-- src/render&#45;post.ts&#45;&gt;fs -->
<g id="edge31" class="edge">
<title>src/render&#45;post.ts&#45;&gt;fs</title>
<path fill="none" stroke="#000000" stroke-dasharray="5,2" stroke-opacity="0.200000" d="M362.57,-199.98C367.58,-197.82 372.26,-194.91 376,-191.01 393.08,-173.2 373.18,-155.97 389,-137.01 415.78,-104.93 445.16,-128.27 475,-99.01 491.39,-82.94 500.74,-57.45 505.34,-41.24"/>
<polygon fill="#000000" fill-opacity="0.200000" stroke="#000000" stroke-opacity="0.200000" points="507.41,-41.66 506.93,-35.32 503.35,-40.57 507.41,-41.66"/>
</g>
<!-- src/render&#45;post.ts&#45;&gt;path -->
<g id="edge32" class="edge">
<title>src/render&#45;post.ts&#45;&gt;path</title>
<path fill="none" stroke="#000000" stroke-dasharray="5,2" stroke-opacity="0.200000" d="M334.29,-215.08C346.66,-224.93 367.95,-240.3 389,-248.01 417.56,-258.48 452.18,-262.23 476.89,-263.51"/>
<polygon fill="#000000" fill-opacity="0.200000" stroke="#000000" stroke-opacity="0.200000" points="476.85,-265.61 482.94,-263.78 477.04,-261.41 476.85,-265.61"/>
</g>
<!-- src/render&#45;post.ts&#45;&gt;src/utils.ts -->
<g id="edge30" class="edge">
<title>src/render&#45;post.ts&#45;&gt;src/utils.ts</title>
<path fill="none" stroke="#000000" stroke-width="2" stroke-opacity="0.200000" d="M362.63,-197.7C373.35,-195.42 384.84,-192.98 395.1,-190.8"/>
<polygon fill="#000000" fill-opacity="0.200000" stroke="#000000" stroke-width="2" stroke-opacity="0.200000" points="395.55,-192.85 400.98,-189.54 394.68,-188.74 395.55,-192.85"/>
</g>
<!-- src/render&#45;post.ts&#45;&gt;src/notion&#45;utils.ts -->
<g id="edge29" class="edge">
<title>src/render&#45;post.ts&#45;&gt;src/notion&#45;utils.ts</title>
<path fill="none" stroke="#000000" stroke-width="2" stroke-opacity="0.200000" d="M362.68,-198.47C367.44,-196.53 372.02,-194.09 376,-191.01 384.99,-184.07 380.53,-176.58 389,-169.01 390.94,-167.28 393.09,-165.7 395.34,-164.26"/>
<polygon fill="#000000" fill-opacity="0.200000" stroke="#000000" stroke-width="2" stroke-opacity="0.200000" points="396.6,-165.96 400.76,-161.16 394.51,-162.32 396.6,-165.96"/>
</g>
<!-- src/template&#45;provider.ts -->
<g id="node17" class="node">
<title>src/template&#45;provider.ts</title>
<g id="a_node17"><a xlink:href="https://github.com/dragonman225/notablog/tree/master/src/template-provider.ts" xlink:title="template&#45;provider.ts">
<path fill="#ddfeff" stroke="black" d="M370,-185.01C370,-185.01 275,-185.01 275,-185.01 272,-185.01 269,-182.01 269,-179.01 269,-179.01 269,-173.01 269,-173.01 269,-170.01 272,-167.01 275,-167.01 275,-167.01 370,-167.01 370,-167.01 373,-167.01 376,-170.01 376,-173.01 376,-173.01 376,-179.01 376,-179.01 376,-182.01 373,-185.01 370,-185.01"/>
<text text-anchor="middle" x="322.5" y="-173.81" font-family="Helvetica,sans-Serif" font-size="9.00">template&#45;provider.ts</text>
</a>
</g>
</g>
<!-- src/renderer.ts&#45;&gt;src/template&#45;provider.ts -->
<g id="edge33" class="edge">
<title>src/renderer.ts&#45;&gt;src/template&#45;provider.ts</title>
<path fill="none" stroke="#000000" stroke-width="2" stroke-opacity="0.200000" d="M245.67,-164.73C251.15,-165.54 257.01,-166.41 262.94,-167.3"/>
<polygon fill="#000000" fill-opacity="0.200000" stroke="#000000" stroke-width="2" stroke-opacity="0.200000" points="262.64,-169.38 268.88,-168.18 263.26,-165.22 262.64,-169.38"/>
</g>
<!-- src/commands/preview.ts -->
<g id="node14" class="node">
<title>src/commands/preview.ts</title>
<g id="a_node14"><a xlink:href="https://github.com/dragonman225/notablog/tree/master/src/commands/preview.ts" xlink:title="preview.ts">
<path fill="#ddfeff" stroke="black" d="M145,-224.01C145,-224.01 95,-224.01 95,-224.01 92,-224.01 89,-221.01 89,-218.01 89,-218.01 89,-212.01 89,-212.01 89,-209.01 92,-206.01 95,-206.01 95,-206.01 145,-206.01 145,-206.01 148,-206.01 151,-209.01 151,-212.01 151,-212.01 151,-218.01 151,-218.01 151,-221.01 148,-224.01 145,-224.01"/>
<text text-anchor="middle" x="120" y="-212.81" font-family="Helvetica,sans-Serif" font-size="9.00">preview.ts</text>
</a>
</g>
</g>
<!-- src/commands/preview.ts&#45;&gt;child_process -->
<g id="edge17" class="edge">
<title>src/commands/preview.ts&#45;&gt;child_process</title>
<path fill="none" stroke="#000000" stroke-dasharray="5,2" stroke-opacity="0.200000" d="M151.11,-208.72C155.34,-206.61 159.19,-203.78 162,-200.01 179.56,-176.45 152.1,-91.32 170,-68.01 170.09,-67.9 170.18,-67.79 170.27,-67.67"/>
<polygon fill="#000000" fill-opacity="0.200000" stroke="#000000" stroke-opacity="0.200000" points="172.03,-68.89 174.88,-63.21 169.11,-65.87 172.03,-68.89"/>
</g>
<!-- src/commands/preview.ts&#45;&gt;path -->
<g id="edge18" class="edge">
<title>src/commands/preview.ts&#45;&gt;path</title>
<path fill="none" stroke="#000000" stroke-dasharray="5,2" stroke-opacity="0.200000" d="M121.82,-224.32C124.35,-246.55 134.17,-302.67 170,-326.01 283.57,-400.02 358.36,-395.08 475,-326.01 492.01,-315.94 501.07,-294.02 505.45,-279.13"/>
<polygon fill="#000000" fill-opacity="0.200000" stroke="#000000" stroke-opacity="0.200000" points="507.51,-279.58 507.06,-273.24 503.46,-278.48 507.51,-279.58"/>
</g>
<!-- src/commands/preview.ts&#45;&gt;src/utils.ts -->
<g id="edge16" class="edge">
<title>src/commands/preview.ts&#45;&gt;src/utils.ts</title>
<path fill="none" stroke="#000000" stroke-width="2" stroke-opacity="0.200000" d="M126.96,-224.22C135.07,-235.82 150.82,-255.18 170,-263.01 254.89,-297.66 295.95,-296.72 376,-252.01 397.34,-240.09 412.42,-215.13 420.4,-198.99"/>
<polygon fill="#000000" fill-opacity="0.200000" stroke="#000000" stroke-width="2" stroke-opacity="0.200000" points="422.34,-199.8 423.02,-193.48 418.55,-198 422.34,-199.8"/>
</g>
<!-- src/commands/preview.ts&#45;&gt;src/config.ts -->
<g id="edge15" class="edge">
<title>src/commands/preview.ts&#45;&gt;src/config.ts</title>
<path fill="none" stroke="#000000" stroke-width="2" stroke-opacity="0.200000" d="M151.05,-216C159.88,-216.3 169.6,-216.62 178.63,-216.91"/>
<polygon fill="#000000" fill-opacity="0.200000" stroke="#000000" stroke-width="2" stroke-opacity="0.200000" points="178.68,-219.02 184.75,-217.12 178.82,-214.82 178.68,-219.02"/>
</g>
<!-- src/index.ts -->
<g id="node15" class="node">
<title>src/index.ts</title>
<g id="a_node15"><a xlink:href="https://github.com/dragonman225/notablog/tree/master/src/index.ts" xlink:title="index.ts">
<path fill="#ddfeff" stroke="black" d="M64,-209.01C64,-209.01 22,-209.01 22,-209.01 19,-209.01 16,-206.01 16,-203.01 16,-203.01 16,-197.01 16,-197.01 16,-194.01 19,-191.01 22,-191.01 22,-191.01 64,-191.01 64,-191.01 67,-191.01 70,-194.01 70,-197.01 70,-197.01 70,-203.01 70,-203.01 70,-206.01 67,-209.01 64,-209.01"/>
<text text-anchor="middle" x="43" y="-197.81" font-family="Helvetica,sans-Serif" font-size="9.00">index.ts</text>
</a>
</g>
</g>
<!-- src/index.ts&#45;&gt;src/commands/generate.ts -->
<g id="edge21" class="edge">
<title>src/index.ts&#45;&gt;src/commands/generate.ts</title>
<path fill="none" stroke="#000000" stroke-width="2" stroke-opacity="0.200000" d="M70.23,-194.77C73.4,-194.13 76.69,-193.48 79.99,-192.82"/>
<polygon fill="#000000" fill-opacity="0.200000" stroke="#000000" stroke-width="2" stroke-opacity="0.200000" points="80.45,-194.86 85.93,-191.63 79.63,-190.75 80.45,-194.86"/>
</g>
<!-- src/index.ts&#45;&gt;src/commands/preview.ts -->
<g id="edge22" class="edge">
<title>src/index.ts&#45;&gt;src/commands/preview.ts</title>
<path fill="none" stroke="#000000" stroke-width="2" stroke-opacity="0.200000" d="M70.23,-205.26C74.26,-206.07 78.48,-206.91 82.68,-207.75"/>
<polygon fill="#000000" fill-opacity="0.200000" stroke="#000000" stroke-width="2" stroke-opacity="0.200000" points="82.51,-209.86 88.8,-208.97 83.33,-205.74 82.51,-209.86"/>
</g>
<!-- src/ntable.ts&#45;&gt;src/notion&#45;utils.ts -->
<g id="edge23" class="edge">
<title>src/ntable.ts&#45;&gt;src/notion&#45;utils.ts</title>
<path fill="none" stroke="#000000" stroke-width="2" stroke-opacity="0.200000" d="M350.55,-107.95C358.91,-110.25 368.02,-113.26 376,-117.01 388.58,-122.93 401.47,-131.81 411.15,-139.15"/>
<polygon fill="#000000" fill-opacity="0.200000" stroke="#000000" stroke-width="2" stroke-opacity="0.200000" points="409.87,-140.81 415.9,-142.82 412.44,-137.49 409.87,-140.81"/>
</g>
<!-- src/template&#45;provider.ts&#45;&gt;fs -->
<g id="edge35" class="edge">
<title>src/template&#45;provider.ts&#45;&gt;fs</title>
<path fill="none" stroke="#000000" stroke-dasharray="5,2" stroke-opacity="0.200000" d="M348.03,-167.01C357.87,-162.34 368.6,-155.76 376,-147.01 387.26,-133.71 377.35,-122.98 389,-110.01 417.3,-78.51 441.9,-95.42 475,-69.01 485.08,-60.98 494.01,-49.41 500.18,-40.3"/>
<polygon fill="#000000" fill-opacity="0.200000" stroke="#000000" stroke-opacity="0.200000" points="501.95,-41.43 503.49,-35.26 498.44,-39.12 501.95,-41.43"/>
</g>
<!-- src/template&#45;provider.ts&#45;&gt;path -->
<g id="edge36" class="edge">
<title>src/template&#45;provider.ts&#45;&gt;path</title>
<path fill="none" stroke="#000000" stroke-dasharray="5,2" stroke-opacity="0.200000" d="M367.27,-185.05C370.42,-186.72 373.38,-188.69 376,-191.01 387.17,-200.93 377.96,-211.95 389,-222.01 418.61,-249 437.5,-234.91 475,-249.01 477.8,-250.07 480.69,-251.23 483.56,-252.43"/>
<polygon fill="#000000" fill-opacity="0.200000" stroke="#000000" stroke-opacity="0.200000" points="483.03,-254.48 489.38,-254.91 484.69,-250.62 483.03,-254.48"/>
</g>
<!-- src/template&#45;provider.ts&#45;&gt;src/utils.ts -->
<g id="edge34" class="edge">
<title>src/template&#45;provider.ts&#45;&gt;src/utils.ts</title>
<path fill="none" stroke="#000000" stroke-width="2" stroke-opacity="0.200000" d="M376.16,-180.08C382.47,-180.57 388.76,-181.06 394.65,-181.51"/>
<polygon fill="#000000" fill-opacity="0.200000" stroke="#000000" stroke-width="2" stroke-opacity="0.200000" points="394.74,-183.63 400.88,-182 395.06,-179.44 394.74,-183.63"/>
</g>
</g>
</svg>
