<?xml version="1.0" encoding="UTF-8" standalone="no"?>
<!DOCTYPE svg PUBLIC "-//W3C//DTD SVG 1.1//EN"
 "http://www.w3.org/Graphics/SVG/1.1/DTD/svg11.dtd">
<!-- Generated by graphviz version 2.43.20190912.0211 (20190912.0211)
 -->
<!-- Title: dependency&#45;cruiser output Pages: 1 -->
<svg width="303pt" height="216pt"
 viewBox="0.00 0.00 303.00 216.00" xmlns="http://www.w3.org/2000/svg" xmlns:xlink="http://www.w3.org/1999/xlink">
<g id="graph0" class="graph" transform="scale(1 1) rotate(0) translate(4 212)">
<title>dependency&#45;cruiser output</title>
<polygon fill="white" stroke="transparent" points="-4,4 -4,-212 299,-212 299,4 -4,4"/>
<g id="clust1" class="cluster">
<title>cluster_src</title>
<path fill="#ffffff" stroke="black" stroke-width="2" d="M20,-26C20,-26 275,-26 275,-26 281,-26 287,-32 287,-38 287,-38 287,-170 287,-170 287,-176 281,-182 275,-182 275,-182 20,-182 20,-182 14,-182 8,-176 8,-170 8,-170 8,-38 8,-38 8,-32 14,-26 20,-26"/>
<text text-anchor="middle" x="147.5" y="-170.8" font-family="Helvetica,sans-Serif" font-weight="bold" font-size="9.00">src</text>
</g>
<!-- fs -->
<g id="node1" class="node">
<title>fs</title>
<path fill="#ffffcc" stroke="grey" d="M261.5,-208C261.5,-208 219.5,-208 219.5,-208 216.5,-208 213.5,-205 213.5,-202 213.5,-202 213.5,-196 213.5,-196 213.5,-193 216.5,-190 219.5,-190 219.5,-190 261.5,-190 261.5,-190 264.5,-190 267.5,-193 267.5,-196 267.5,-196 267.5,-202 267.5,-202 267.5,-205 264.5,-208 261.5,-208"/>
<text text-anchor="middle" x="240.5" y="-196.8" font-family="Helvetica,sans-Serif" font-size="9.00" fill="grey">fs</text>
</g>
<!-- path -->
<g id="node2" class="node">
<title>path</title>
<path fill="#ffffcc" stroke="grey" d="M261.5,-18C261.5,-18 219.5,-18 219.5,-18 216.5,-18 213.5,-15 213.5,-12 213.5,-12 213.5,-6 213.5,-6 213.5,-3 216.5,0 219.5,0 219.5,0 261.5,0 261.5,0 264.5,0 267.5,-3 267.5,-6 267.5,-6 267.5,-12 267.5,-12 267.5,-15 264.5,-18 261.5,-18"/>
<text text-anchor="middle" x="240.5" y="-6.8" font-family="Helvetica,sans-Serif" font-size="9.00" fill="grey">path</text>
</g>
<!-- src/index.js -->
<g id="node3" class="node">
<title>src/index.js</title>
<g id="a_node3"><a xlink:href="https://github.com/dragonman225/notablog/tree/master/src/index.js" xlink:title="index.js">
<path fill="#ffffcc" stroke="black" d="M64,-96C64,-96 22,-96 22,-96 19,-96 16,-93 16,-90 16,-90 16,-84 16,-84 16,-81 19,-78 22,-78 22,-78 64,-78 64,-78 67,-78 70,-81 70,-84 70,-84 70,-90 70,-90 70,-93 67,-96 64,-96"/>
<text text-anchor="middle" x="43" y="-84.8" font-family="Helvetica,sans-Serif" font-size="9.00">index.js</text>
</a>
</g>
</g>
<!-- src/index.js&#45;&gt;fs -->
<g id="edge6" class="edge">
<title>src/index.js&#45;&gt;fs</title>
<path fill="none" stroke="grey" d="M46.12,-96.22C50.29,-112.2 61.12,-144.96 83,-162 117.73,-189.05 169.06,-196.82 203.35,-198.79"/>
<polygon fill="grey" stroke="grey" points="203.27,-202.29 213.41,-199.23 203.58,-195.3 203.27,-202.29"/>
</g>
<!-- src/index.js&#45;&gt;path -->
<g id="edge7" class="edge">
<title>src/index.js&#45;&gt;path</title>
<path fill="none" stroke="grey" d="M46.8,-77.97C51.67,-63.97 63.12,-37.34 83,-25 119.22,-2.51 169.46,-1.5 203.15,-4.14"/>
<polygon fill="grey" stroke="grey" points="203.19,-7.65 213.47,-5.1 203.84,-0.68 203.19,-7.65"/>
</g>
<!-- src/parse&#45;table.js -->
<g id="node5" class="node">
<title>src/parse&#45;table.js</title>
<g id="a_node5"><a xlink:href="https://github.com/dragonman225/notablog/tree/master/src/parse-table.js" xlink:title="parse&#45;table.js">
<path fill="#ffffcc" stroke="black" d="M168.5,-156C168.5,-156 103.5,-156 103.5,-156 100.5,-156 97.5,-153 97.5,-150 97.5,-150 97.5,-144 97.5,-144 97.5,-141 100.5,-138 103.5,-138 103.5,-138 168.5,-138 168.5,-138 171.5,-138 174.5,-141 174.5,-144 174.5,-144 174.5,-150 174.5,-150 174.5,-153 171.5,-156 168.5,-156"/>
<text text-anchor="middle" x="136" y="-144.8" font-family="Helvetica,sans-Serif" font-size="9.00">parse&#45;table.js</text>
</a>
</g>
</g>
<!-- src/index.js&#45;&gt;src/parse&#45;table.js -->
<g id="edge1" class="edge">
<title>src/index.js&#45;&gt;src/parse&#45;table.js</title>
<path fill="none" stroke="#000000" stroke-width="2" stroke-opacity="0.200000" d="M49.71,-96.35C56.43,-106.58 68.54,-122.76 83,-132 84.66,-133.06 86.4,-134.05 88.2,-134.97"/>
<polygon fill="#000000" fill-opacity="0.200000" stroke="#000000" stroke-width="2" stroke-opacity="0.200000" points="86.93,-138.24 97.49,-139.03 89.73,-131.82 86.93,-138.24"/>
</g>
<!-- src/render&#45;index.js -->
<g id="node6" class="node">
<title>src/render&#45;index.js</title>
<g id="a_node6"><a xlink:href="https://github.com/dragonman225/notablog/tree/master/src/render-index.js" xlink:title="render&#45;index.js">
<path fill="#ffffcc" stroke="black" d="M172,-126C172,-126 100,-126 100,-126 97,-126 94,-123 94,-120 94,-120 94,-114 94,-114 94,-111 97,-108 100,-108 100,-108 172,-108 172,-108 175,-108 178,-111 178,-114 178,-114 178,-120 178,-120 178,-123 175,-126 172,-126"/>
<text text-anchor="middle" x="136" y="-114.8" font-family="Helvetica,sans-Serif" font-size="9.00">render&#45;index.js</text>
</a>
</g>
</g>
<!-- src/index.js&#45;&gt;src/render&#45;index.js -->
<g id="edge2" class="edge">
<title>src/index.js&#45;&gt;src/render&#45;index.js</title>
<path fill="none" stroke="#000000" stroke-width="2" stroke-opacity="0.200000" d="M66.56,-96.06C71.92,-98.1 77.64,-100.2 83,-102 86.07,-103.03 89.26,-104.06 92.48,-105.06"/>
<polygon fill="#000000" fill-opacity="0.200000" stroke="#000000" stroke-width="2" stroke-opacity="0.200000" points="91.55,-108.44 102.13,-107.99 93.58,-101.74 91.55,-108.44"/>
</g>
<!-- src/render&#45;post.js -->
<g id="node7" class="node">
<title>src/render&#45;post.js</title>
<g id="a_node7"><a xlink:href="https://github.com/dragonman225/notablog/tree/master/src/render-post.js" xlink:title="render&#45;post.js">
<path fill="#ffffcc" stroke="black" d="M169.5,-66C169.5,-66 102.5,-66 102.5,-66 99.5,-66 96.5,-63 96.5,-60 96.5,-60 96.5,-54 96.5,-54 96.5,-51 99.5,-48 102.5,-48 102.5,-48 169.5,-48 169.5,-48 172.5,-48 175.5,-51 175.5,-54 175.5,-54 175.5,-60 175.5,-60 175.5,-63 172.5,-66 169.5,-66"/>
<text text-anchor="middle" x="136" y="-54.8" font-family="Helvetica,sans-Serif" font-size="9.00">render&#45;post.js</text>
</a>
</g>
</g>
<!-- src/index.js&#45;&gt;src/render&#45;post.js -->
<g id="edge3" class="edge">
<title>src/index.js&#45;&gt;src/render&#45;post.js</title>
<path fill="none" stroke="#000000" stroke-width="2" stroke-opacity="0.200000" d="M66.56,-77.94C71.92,-75.9 77.64,-73.8 83,-72 86.07,-70.97 89.26,-69.94 92.48,-68.94"/>
<polygon fill="#000000" fill-opacity="0.200000" stroke="#000000" stroke-width="2" stroke-opacity="0.200000" points="93.58,-72.26 102.13,-66.01 91.55,-65.56 93.58,-72.26"/>
</g>
<!-- src/template&#45;provider.js -->
<g id="node8" class="node">
<title>src/template&#45;provider.js</title>
<g id="a_node8"><a xlink:href="https://github.com/dragonman225/notablog/tree/master/src/template-provider.js" xlink:title="template&#45;provider.js">
<path fill="#ffffcc" stroke="black" d="M183,-96C183,-96 89,-96 89,-96 86,-96 83,-93 83,-90 83,-90 83,-84 83,-84 83,-81 86,-78 89,-78 89,-78 183,-78 183,-78 186,-78 189,-81 189,-84 189,-84 189,-90 189,-90 189,-93 186,-96 183,-96"/>
<text text-anchor="middle" x="136" y="-84.8" font-family="Helvetica,sans-Serif" font-size="9.00">template&#45;provider.js</text>
</a>
</g>
</g>
<!-- src/index.js&#45;&gt;src/template&#45;provider.js -->
<g id="edge4" class="edge">
<title>src/index.js&#45;&gt;src/template&#45;provider.js</title>
<path fill="none" stroke="#000000" stroke-width="2" stroke-opacity="0.200000" d="M70.32,-87C71.07,-87 71.83,-87 72.59,-87"/>
<polygon fill="#000000" fill-opacity="0.200000" stroke="#000000" stroke-width="2" stroke-opacity="0.200000" points="72.85,-90.5 82.85,-87 72.85,-83.5 72.85,-90.5"/>
</g>
<!-- src/utils.js -->
<g id="node9" class="node">
<title>src/utils.js</title>
<g id="a_node9"><a xlink:href="https://github.com/dragonman225/notablog/tree/master/src/utils.js" xlink:title="utils.js">
<path fill="#ffffcc" stroke="black" d="M261.5,-96C261.5,-96 219.5,-96 219.5,-96 216.5,-96 213.5,-93 213.5,-90 213.5,-90 213.5,-84 213.5,-84 213.5,-81 216.5,-78 219.5,-78 219.5,-78 261.5,-78 261.5,-78 264.5,-78 267.5,-81 267.5,-84 267.5,-84 267.5,-90 267.5,-90 267.5,-93 264.5,-96 261.5,-96"/>
<text text-anchor="middle" x="240.5" y="-84.8" font-family="Helvetica,sans-Serif" font-size="9.00">utils.js</text>
</a>
</g>
</g>
<!-- src/index.js&#45;&gt;src/utils.js -->
<g id="edge5" class="edge">
<title>src/index.js&#45;&gt;src/utils.js</title>
<path fill="none" stroke="#000000" stroke-width="2" stroke-opacity="0.200000" d="M48.83,-77.65C55.06,-66.75 67.01,-49.3 83,-42 125.85,-22.43 144.97,-25.23 189,-42 203.89,-47.67 217.19,-59.98 226.39,-70.29"/>
<polygon fill="#000000" fill-opacity="0.200000" stroke="#000000" stroke-width="2" stroke-opacity="0.200000" points="223.74,-72.57 232.85,-77.97 229.09,-68.06 223.74,-72.57"/>
</g>
<!-- src/notion&#45;utils.js -->
<g id="node4" class="node">
<title>src/notion&#45;utils.js</title>
<g id="a_node4"><a xlink:href="https://github.com/dragonman225/notablog/tree/master/src/notion-utils.js" xlink:title="notion&#45;utils.js">
<path fill="#ffffcc" stroke="black" d="M273,-156C273,-156 208,-156 208,-156 205,-156 202,-153 202,-150 202,-150 202,-144 202,-144 202,-141 205,-138 208,-138 208,-138 273,-138 273,-138 276,-138 279,-141 279,-144 279,-144 279,-150 279,-150 279,-153 276,-156 273,-156"/>
<text text-anchor="middle" x="240.5" y="-144.8" font-family="Helvetica,sans-Serif" font-size="9.00">notion&#45;utils.js</text>
</a>
</g>
</g>
<!-- src/parse&#45;table.js&#45;&gt;src/notion&#45;utils.js -->
<g id="edge8" class="edge">
<title>src/parse&#45;table.js&#45;&gt;src/notion&#45;utils.js</title>
<path fill="none" stroke="#000000" stroke-width="2" stroke-opacity="0.200000" d="M174.59,-147C180.16,-147 185.96,-147 191.7,-147"/>
<polygon fill="#000000" fill-opacity="0.200000" stroke="#000000" stroke-width="2" stroke-opacity="0.200000" points="191.92,-150.5 201.92,-147 191.92,-143.5 191.92,-150.5"/>
</g>
<!-- src/parse&#45;table.js&#45;&gt;src/utils.js -->
<g id="edge9" class="edge">
<title>src/parse&#45;table.js&#45;&gt;src/utils.js</title>
<path fill="none" stroke="#000000" stroke-width="2" stroke-opacity="0.200000" d="M174.74,-138.3C179.68,-136.54 184.56,-134.45 189,-132 202.33,-124.64 215.12,-113.19 224.49,-103.68"/>
<polygon fill="#000000" fill-opacity="0.200000" stroke="#000000" stroke-width="2" stroke-opacity="0.200000" points="227.16,-105.95 231.49,-96.28 222.07,-101.14 227.16,-105.95"/>
</g>
<!-- src/render&#45;index.js&#45;&gt;fs -->
<g id="edge11" class="edge">
<title>src/render&#45;index.js&#45;&gt;fs</title>
<path fill="none" stroke="grey" d="M178.01,-124.17C182.1,-126.19 185.88,-128.75 189,-132 205.8,-149.49 185.88,-166.88 202,-185 202.76,-185.86 203.58,-186.66 204.45,-187.42"/>
<polygon fill="grey" stroke="grey" points="202.91,-190.58 213.23,-192.97 206.65,-184.67 202.91,-190.58"/>
</g>
<!-- src/render&#45;index.js&#45;&gt;path -->
<g id="edge12" class="edge">
<title>src/render&#45;index.js&#45;&gt;path</title>
<path fill="none" stroke="grey" d="M178.02,-110.19C182.15,-108.11 185.94,-105.44 189,-102 212.64,-75.4 179.4,-50.48 202,-23 202.84,-21.97 203.77,-21.02 204.77,-20.14"/>
<polygon fill="grey" stroke="grey" points="206.83,-22.98 213.39,-14.66 203.07,-17.07 206.83,-22.98"/>
</g>
<!-- src/render&#45;index.js&#45;&gt;src/utils.js -->
<g id="edge10" class="edge">
<title>src/render&#45;index.js&#45;&gt;src/utils.js</title>
<path fill="none" stroke="#000000" stroke-width="2" stroke-opacity="0.200000" d="M168.36,-108C175.17,-106.03 182.33,-103.95 189,-102 193.69,-100.63 198.62,-99.17 203.49,-97.73"/>
<polygon fill="#000000" fill-opacity="0.200000" stroke="#000000" stroke-width="2" stroke-opacity="0.200000" points="204.71,-101.02 213.3,-94.82 202.72,-94.31 204.71,-101.02"/>
</g>
<!-- src/render&#45;post.js&#45;&gt;fs -->
<g id="edge14" class="edge">
<title>src/render&#45;post.js&#45;&gt;fs</title>
<path fill="none" stroke="grey" d="M175.63,-62.46C180.73,-64.69 185.42,-67.77 189,-72 221.65,-110.59 170.84,-145.19 202,-185 202.82,-186.05 203.73,-187.02 204.7,-187.91"/>
<polygon fill="grey" stroke="grey" points="202.95,-190.95 213.24,-193.46 206.76,-185.08 202.95,-190.95"/>
</g>
<!-- src/render&#45;post.js&#45;&gt;path -->
<g id="edge15" class="edge">
<title>src/render&#45;post.js&#45;&gt;path</title>
<path fill="none" stroke="grey" d="M153.02,-47.91C166.01,-40.71 184.9,-30.63 202,-23 202.83,-22.63 203.68,-22.26 204.53,-21.89"/>
<polygon fill="grey" stroke="grey" points="205.97,-25.08 213.91,-18.07 203.33,-18.6 205.97,-25.08"/>
</g>
<!-- src/render&#45;post.js&#45;&gt;src/utils.js -->
<g id="edge13" class="edge">
<title>src/render&#45;post.js&#45;&gt;src/utils.js</title>
<path fill="none" stroke="#000000" stroke-width="2" stroke-opacity="0.200000" d="M168.36,-66C175.17,-67.97 182.33,-70.05 189,-72 193.69,-73.37 198.62,-74.83 203.49,-76.27"/>
<polygon fill="#000000" fill-opacity="0.200000" stroke="#000000" stroke-width="2" stroke-opacity="0.200000" points="202.72,-79.69 213.3,-79.18 204.71,-72.98 202.72,-79.69"/>
</g>
<!-- src/template&#45;provider.js&#45;&gt;fs -->
<g id="edge17" class="edge">
<title>src/template&#45;provider.js&#45;&gt;fs</title>
<path fill="none" stroke="grey" d="M182.2,-96.18C184.71,-97.82 187.01,-99.74 189,-102 213.7,-130.01 178.39,-156.07 202,-185 202.84,-186.03 203.76,-186.98 204.75,-187.87"/>
<polygon fill="grey" stroke="grey" points="203.05,-190.93 213.37,-193.36 206.82,-185.03 203.05,-190.93"/>
</g>
<!-- src/template&#45;provider.js&#45;&gt;path -->
<g id="edge18" class="edge">
<title>src/template&#45;provider.js&#45;&gt;path</title>
<path fill="none" stroke="grey" d="M181.45,-77.87C184.21,-76.22 186.77,-74.28 189,-72 204.76,-55.9 186.87,-39.69 202,-23 202.77,-22.15 203.6,-21.35 204.47,-20.6"/>
<polygon fill="grey" stroke="grey" points="206.67,-23.35 213.28,-15.07 202.95,-17.42 206.67,-23.35"/>
</g>
<!-- src/template&#45;provider.js&#45;&gt;src/utils.js -->
<g id="edge16" class="edge">
<title>src/template&#45;provider.js&#45;&gt;src/utils.js</title>
<path fill="none" stroke="#000000" stroke-width="2" stroke-opacity="0.200000" d="M189.15,-87C193.88,-87 198.6,-87 203.15,-87"/>
<polygon fill="#000000" fill-opacity="0.200000" stroke="#000000" stroke-width="2" stroke-opacity="0.200000" points="203.37,-90.5 213.37,-87 203.37,-83.5 203.37,-90.5"/>
</g>
</g>
</svg>
